<svg width="554" height="413" viewBox="0 0 554 413" fill="none" xmlns="http://www.w3.org/2000/svg">
<path d="M549.842 362.298H0V412.144H549.842V362.298Z" fill="#ECEDF1"/>
<path fill-rule="evenodd" clip-rule="evenodd" d="M38.0009 386.985H3.63583L7.26822 380.112H41.2381L38.0009 386.985Z" fill="#DCDCDD"/>
<path fill-rule="evenodd" clip-rule="evenodd" d="M102.844 386.985H68.4793L72.1117 380.112H106.075L102.844 386.985Z" fill="#DCDCDD"/>
<path fill-rule="evenodd" clip-rule="evenodd" d="M167.702 386.985H133.337L136.972 380.112H170.935L167.702 386.985Z" fill="#DCDCDD"/>
<path fill-rule="evenodd" clip-rule="evenodd" d="M232.538 386.985H198.173L201.806 380.112H235.772L232.538 386.985Z" fill="#DCDCDD"/>
<path fill-rule="evenodd" clip-rule="evenodd" d="M297.382 386.985H263.017L266.649 380.112H300.626L297.382 386.985Z" fill="#DCDCDD"/>
<path fill-rule="evenodd" clip-rule="evenodd" d="M362.229 386.985H327.864L331.5 380.112H365.463L362.229 386.985Z" fill="#DCDCDD"/>
<path fill-rule="evenodd" clip-rule="evenodd" d="M427.076 386.985H392.711L396.343 380.112H430.31L427.076 386.985Z" fill="#DCDCDD"/>
<path fill-rule="evenodd" clip-rule="evenodd" d="M491.919 386.985H457.554L461.187 380.112H495.15L491.919 386.985Z" fill="#DCDCDD"/>
<path fill-rule="evenodd" clip-rule="evenodd" d="M556.766 386.985H522.401L526.037 380.112H560L556.766 386.985Z" fill="#DCDCDD"/>
<path opacity="0.71" fill-rule="evenodd" clip-rule="evenodd" d="M156.471 376.975C156.471 376.975 95.1226 377.384 104.539 387.219C113.955 397.054 286.33 384.044 319.128 385.267C351.926 386.49 471.063 384.69 428.457 376.975C385.851 369.26 239.023 379.686 156.471 376.975Z" fill="#CFCFCE"/>
<path fill-rule="evenodd" clip-rule="evenodd" d="M129.646 15.1994C131.545 15.2021 133.427 15.5635 135.192 16.2647C137.942 6.82822 145.931 0 155.361 0C162.76 0 169.272 4.20278 173.063 10.5705C173.688 10.4893 174.318 10.448 174.949 10.4468C181.451 10.4468 187.073 14.6221 189.754 20.6805C191.128 19.9836 192.646 19.6198 194.187 19.6187C198.235 19.6187 201.747 22.0998 203.586 25.763C204.365 25.5222 205.176 25.3983 205.991 25.3953C210.985 25.3953 215.036 29.8799 215.036 35.416C215.036 36.4508 214.89 37.4803 214.603 38.4745H113.797C113.375 36.8319 113.163 35.1427 113.164 33.4469C113.164 23.3747 120.542 15.1994 129.646 15.1994Z" fill="#EEEFF3"/>
<path fill-rule="evenodd" clip-rule="evenodd" d="M227.59 9.24414C232.471 9.25067 236.704 12.6196 237.807 17.3748C239.76 16.4096 242.058 16.4429 243.983 17.4644C245.907 18.4859 247.223 20.3708 247.518 22.5294H217.462C216.595 19.3705 217.252 15.9876 219.238 13.3828C221.225 10.778 224.314 9.24987 227.59 9.25101V9.24414Z" fill="#EEEFF3"/>
<path fill-rule="evenodd" clip-rule="evenodd" d="M209.033 51.1138H228.813C229.703 51.1138 230.425 50.3922 230.425 49.5021C230.425 48.612 229.703 47.8904 228.813 47.8904H209.033C208.605 47.8904 208.195 48.0602 207.893 48.3624C207.591 48.6647 207.421 49.0746 207.421 49.5021C207.421 49.9295 207.591 50.3395 207.893 50.6417C208.195 50.944 208.605 51.1138 209.033 51.1138Z" fill="#D5D7D8"/>
<path fill-rule="evenodd" clip-rule="evenodd" d="M201.493 60.1824H221.273C222.164 60.1824 222.885 59.4608 222.885 58.5707C222.885 57.6806 222.164 56.959 221.273 56.959H201.493C200.603 56.959 199.881 57.6806 199.881 58.5707C199.881 59.4608 200.603 60.1824 201.493 60.1824Z" fill="#D5D7D8"/>
<path fill-rule="evenodd" clip-rule="evenodd" d="M152.719 51.1138H188.616C189.506 51.1138 190.228 50.3922 190.228 49.5021C190.228 48.612 189.506 47.8904 188.616 47.8904H152.719C151.828 47.8904 151.107 48.612 151.107 49.5021C151.107 50.3922 151.828 51.1138 152.719 51.1138Z" fill="#D5D7D8"/>
<path fill-rule="evenodd" clip-rule="evenodd" d="M198.221 49.5019C198.227 50.3906 198.951 51.107 199.84 51.1033C200.729 51.0995 201.447 50.3769 201.445 49.4882C201.443 48.5994 200.722 47.8799 199.833 47.8799C199.404 47.8799 198.992 48.0511 198.69 48.3556C198.387 48.6601 198.219 49.0727 198.221 49.5019Z" fill="#D5D7D8"/>
<path fill-rule="evenodd" clip-rule="evenodd" d="M190.53 58.5707C190.53 59.4608 191.252 60.1824 192.142 60.1824C193.032 60.1824 193.754 59.4608 193.754 58.5707C193.754 57.6806 193.032 56.959 192.142 56.959C191.715 56.959 191.305 57.1288 191.003 57.431C190.7 57.7333 190.53 58.1432 190.53 58.5707Z" fill="#D5D7D8"/>
<path fill-rule="evenodd" clip-rule="evenodd" d="M206.703 184.115C205.791 184.115 204.888 184.299 204.05 184.658C203.204 182.208 201.388 180.215 199.027 179.148C196.666 178.08 193.969 178.032 191.572 179.015C190.321 171.482 183.806 165.958 176.169 165.956C175.556 165.958 174.943 165.996 174.334 166.07C170.806 157.925 162.777 152.654 153.901 152.654C145.024 152.654 136.996 157.925 133.467 166.07C132.858 165.996 132.246 165.958 131.632 165.956C124.128 165.958 117.685 171.298 116.292 178.671C111.832 177.398 107.11 179.572 105.178 183.788C103.051 182.96 100.652 183.236 98.7688 184.527C97.2986 179.788 93.1201 176.401 88.1796 175.942C83.2392 175.483 78.5084 178.044 76.1909 182.431C71.8876 179.401 65.9432 180.43 62.9088 184.73C60.8122 183.136 57.9935 182.869 55.6348 184.04C53.2762 185.212 51.7855 187.619 51.7882 190.252C51.7881 190.455 51.7984 190.658 51.8191 190.86H213.449C213.449 187.135 210.428 184.115 206.703 184.115Z" fill="#EEEFF3"/>
<path fill-rule="evenodd" clip-rule="evenodd" d="M418.653 92.1381C417.742 92.1364 416.84 92.3212 416.003 92.681C415.156 90.2327 413.338 88.2408 410.977 87.1729C408.617 86.105 405.921 86.0551 403.522 87.0349C402.272 79.5016 395.756 73.9776 388.12 73.9764C387.506 73.9783 386.894 74.015 386.284 74.0864C382.754 65.9444 374.726 60.6755 365.851 60.6755C356.976 60.6755 348.948 65.9444 345.417 74.0864C344.809 74.015 344.198 73.9783 343.586 73.9764C336.08 73.9763 329.636 79.3162 328.242 86.6913C323.782 85.4258 319.064 87.5991 317.128 91.8116C315.002 90.9842 312.603 91.2621 310.722 92.5539C309.252 87.8151 305.074 84.4274 300.133 83.9687C295.193 83.51 290.462 86.0705 288.145 90.4577C283.84 87.4273 277.895 88.4561 274.859 92.7566C272.762 91.163 269.944 90.8958 267.585 92.0671C265.226 93.2383 263.736 95.6456 263.738 98.279C263.738 98.4852 263.738 98.6879 263.769 98.8873H425.402C425.403 97.097 424.692 95.3798 423.426 94.1139C422.16 92.8479 420.443 92.1372 418.653 92.1381Z" fill="#EEEFF3"/>
<path fill-rule="evenodd" clip-rule="evenodd" d="M140.488 228.472H172.874C174.331 228.472 175.513 227.291 175.513 225.833C175.513 224.375 174.331 223.194 172.874 223.194H140.488C139.788 223.194 139.117 223.472 138.622 223.967C138.127 224.462 137.849 225.133 137.849 225.833C137.849 227.291 139.03 228.472 140.488 228.472Z" fill="#D5D7D8"/>
<path d="M125.426 228.472C126.883 228.472 128.065 227.291 128.065 225.833C128.065 224.375 126.883 223.194 125.426 223.194C123.968 223.194 122.787 224.375 122.787 225.833C122.787 227.291 123.968 228.472 125.426 228.472Z" fill="#D5D7D8"/>
<path fill-rule="evenodd" clip-rule="evenodd" d="M122.491 248.83H154.877C156.334 248.83 157.516 247.648 157.516 246.19C157.516 244.733 156.334 243.551 154.877 243.551H122.491C121.033 243.551 119.852 244.733 119.852 246.19C119.852 247.648 121.033 248.83 122.491 248.83Z" fill="#D5D7D8"/>
<path d="M107.181 248.83C108.639 248.83 109.821 247.648 109.821 246.19C109.821 244.733 108.639 243.551 107.181 243.551C105.724 243.551 104.542 244.733 104.542 246.19C104.542 247.648 105.724 248.83 107.181 248.83Z" fill="#D5D7D8"/>
<path d="M92.3631 248.83C93.8207 248.83 95.0023 247.648 95.0023 246.19C95.0023 244.733 93.8207 243.551 92.3631 243.551C90.9055 243.551 89.7239 244.733 89.7239 246.19C89.7239 247.648 90.9055 248.83 92.3631 248.83Z" fill="#D5D7D8"/>
<path fill-rule="evenodd" clip-rule="evenodd" d="M121.852 356.525C121.852 356.525 101.305 326.971 104.985 316.274C108.666 305.576 124.745 323.542 124.745 323.542C124.745 323.542 131.787 288.583 138.622 285.517C145.457 282.452 163.856 308.542 163.856 308.542C163.856 308.542 191.005 276.665 201.62 278.768C212.235 280.871 214.335 304.373 214.335 304.373C214.335 304.373 235.298 292.095 239.532 296.208C243.765 300.322 239.532 317.597 239.532 317.597C239.532 317.597 253.24 313.61 258.498 319.847C263.756 326.085 239.525 353.212 239.525 353.212L121.852 356.525Z" fill="#D5D7D8"/>
<path fill-rule="evenodd" clip-rule="evenodd" d="M118.103 362.315C118.103 362.315 103.82 352.693 101.985 343.095C100.15 333.497 120.735 341.92 120.735 341.92C120.735 341.92 111.766 316.792 115.432 311.995C119.099 307.198 136.825 317.837 136.825 317.837C136.825 317.837 155.262 285.397 164.379 289.878C173.496 294.359 186.922 321.799 186.922 321.799C186.922 321.799 215.669 300.864 221.17 307.084C226.672 313.304 214.438 333.325 214.438 333.325C214.438 333.325 237.58 327.682 240.068 333.325C242.556 338.968 227.274 351.356 227.274 351.356C227.274 351.356 247.254 346.16 248.876 352.342C250.498 358.525 222.383 362.308 222.383 362.308L118.103 362.315Z" fill="#ECEDF1"/>
<path fill-rule="evenodd" clip-rule="evenodd" d="M231.786 337.428C219.514 340.837 207.242 340.837 194.967 334.703C177.241 326.521 163.609 346.975 147.244 354.473C139.746 357.882 130.199 351.064 121.336 353.098C118.034 353.772 115.181 355.834 113.505 358.758C116.103 360.944 118.103 362.287 118.103 362.287H222.39C222.39 362.287 250.508 358.507 248.882 352.322C247.257 346.136 227.28 351.332 227.28 351.332C227.28 351.332 237.741 342.847 239.937 336.724C237.207 336.205 234.387 336.449 231.786 337.428Z" fill="#D5D7D8"/>
<path fill-rule="evenodd" clip-rule="evenodd" d="M201.582 277.043C201.809 279.954 201.28 282.37 200.404 282.438C199.527 282.507 198.634 280.201 198.407 277.284C198.18 274.366 198.709 271.957 199.586 271.888C200.462 271.82 201.355 274.132 201.582 277.043Z" fill="#DCDCDD"/>
<path fill-rule="evenodd" clip-rule="evenodd" d="M206.747 280.129C204.943 282.232 202.967 283.497 202.331 282.95C201.696 282.404 202.651 280.263 204.459 278.163C206.266 276.063 208.239 274.795 208.875 275.342C209.51 275.888 208.555 278.029 206.747 280.129Z" fill="#DCDCDD"/>
<path fill-rule="evenodd" clip-rule="evenodd" d="M256.319 315.854C255.426 318.04 254.168 319.597 253.511 319.325C252.855 319.054 253.041 317.067 253.934 314.878C254.828 312.689 256.085 311.136 256.742 311.408C257.398 311.679 257.209 313.665 256.319 315.854Z" fill="#DCDCDD"/>
<path fill-rule="evenodd" clip-rule="evenodd" d="M130.787 298.6C132.697 299.974 133.907 301.579 133.488 302.156C133.069 302.734 131.182 302.071 129.271 300.682C127.361 299.294 126.151 297.699 126.57 297.126C126.989 296.552 128.869 297.208 130.787 298.6Z" fill="#DCDCDD"/>
<path fill-rule="evenodd" clip-rule="evenodd" d="M133.371 296.435C134.175 298.181 134.402 299.789 133.873 300.029C133.343 300.27 132.275 299.053 131.467 297.311C130.66 295.569 130.436 293.957 130.965 293.717C131.495 293.476 132.567 294.693 133.371 296.435Z" fill="#DCDCDD"/>
<path fill-rule="evenodd" clip-rule="evenodd" d="M258.793 319.466C257.041 320.215 255.439 320.394 255.216 319.868C254.993 319.342 256.226 318.304 257.965 317.559C259.704 316.813 261.319 316.631 261.543 317.16C261.766 317.689 260.546 318.72 258.793 319.466Z" fill="#DCDCDD"/>
<path fill-rule="evenodd" clip-rule="evenodd" d="M162.595 290.998C162.595 294.579 161.719 297.486 160.643 297.486C159.567 297.486 158.688 294.579 158.688 290.998C158.688 287.417 159.564 284.514 160.643 284.514C161.722 284.514 162.595 287.417 162.595 290.998Z" fill="#DCDCDD"/>
<path fill-rule="evenodd" clip-rule="evenodd" d="M167.172 292.555C166.08 295.266 164.537 297.194 163.736 296.864C162.935 296.534 163.145 294.074 164.238 291.366C165.331 288.658 166.874 286.73 167.691 287.057C168.509 287.383 168.265 289.861 167.172 292.555Z" fill="#DCDCDD"/>
<path fill-rule="evenodd" clip-rule="evenodd" d="M102.253 336.799C104.903 339.205 106.46 341.817 105.731 342.614C105.003 343.411 102.271 342.098 99.6244 339.686C96.9783 337.274 95.4216 334.669 96.1467 333.871C96.8718 333.074 99.6073 334.387 102.253 336.799Z" fill="#DCDCDD"/>
<path fill-rule="evenodd" clip-rule="evenodd" d="M106.501 334.48C107.769 337.112 108.15 339.555 107.36 339.937C106.57 340.318 104.899 338.49 103.635 335.861C102.37 333.232 101.985 330.785 102.776 330.404C103.566 330.023 105.236 331.844 106.501 334.48Z" fill="#DCDCDD"/>
<path fill-rule="evenodd" clip-rule="evenodd" d="M219.734 302.634C219.961 305.545 219.435 307.96 218.559 308.029C217.682 308.098 216.785 305.792 216.559 302.874C216.332 299.957 216.861 297.548 217.737 297.479C218.614 297.411 219.507 299.723 219.734 302.634Z" fill="#DCDCDD"/>
<path fill-rule="evenodd" clip-rule="evenodd" d="M224.899 305.72C223.095 307.823 221.119 309.088 220.483 308.541C219.847 307.995 220.803 305.854 222.61 303.751C224.418 301.648 226.39 300.387 227.026 300.93C227.662 301.473 226.707 303.621 224.899 305.72Z" fill="#DCDCDD"/>
<path fill-rule="evenodd" clip-rule="evenodd" d="M141.086 333.717C143.327 335.59 144.687 337.655 144.124 338.329C143.56 339.002 141.289 338.03 139.045 336.16C136.801 334.291 135.447 332.222 136.01 331.548C136.574 330.875 138.835 331.844 141.086 333.717Z" fill="#DCDCDD"/>
<path fill-rule="evenodd" clip-rule="evenodd" d="M146.904 332.177C147.148 334.926 146.667 337.236 145.839 337.308C145.01 337.38 144.138 335.201 143.897 332.442C143.656 329.682 144.134 327.383 144.966 327.311C145.797 327.239 146.663 329.418 146.904 332.177Z" fill="#DCDCDD"/>
<path fill-rule="evenodd" clip-rule="evenodd" d="M192.476 314.892C194.716 316.765 196.077 318.83 195.513 319.504C194.95 320.177 192.675 319.205 190.434 317.335C188.194 315.466 186.833 313.397 187.396 312.724C187.96 312.05 190.235 313.019 192.476 314.892Z" fill="#DCDCDD"/>
<path fill-rule="evenodd" clip-rule="evenodd" d="M198.287 313.353C198.527 316.102 198.05 318.411 197.218 318.483C196.386 318.555 195.517 316.377 195.276 313.617C195.036 310.858 195.513 308.559 196.345 308.487C197.177 308.414 198.053 310.593 198.287 313.353Z" fill="#DCDCDD"/>
<path fill-rule="evenodd" clip-rule="evenodd" d="M228.445 328.789C227.758 331.04 226.641 332.693 225.964 332.483C225.287 332.273 225.301 330.284 225.995 328.016C226.689 325.747 227.799 324.112 228.476 324.321C229.153 324.531 229.14 326.541 228.445 328.789Z" fill="#DCDCDD"/>
<path fill-rule="evenodd" clip-rule="evenodd" d="M231.277 330.373C230.061 331.703 228.755 332.483 228.353 332.119C227.951 331.755 228.614 330.38 229.83 329.05C231.047 327.72 232.353 326.944 232.751 327.308C233.15 327.672 232.49 329.047 231.277 330.373Z" fill="#DCDCDD"/>
<path fill-rule="evenodd" clip-rule="evenodd" d="M116.8 309.05C117.776 311.194 119.092 312.693 119.735 312.397C120.378 312.102 120.113 310.129 119.137 307.988C118.161 305.847 116.845 304.349 116.202 304.641C115.56 304.933 115.81 306.909 116.8 309.05Z" fill="#DCDCDD"/>
<path fill-rule="evenodd" clip-rule="evenodd" d="M114.199 310.985C115.573 312.15 116.968 312.754 117.319 312.342C117.67 311.93 116.838 310.651 115.463 309.49C114.089 308.328 112.693 307.72 112.343 308.115C111.992 308.51 112.824 309.823 114.199 310.985Z" fill="#DCDCDD"/>
<path fill-rule="evenodd" clip-rule="evenodd" d="M247.15 358.38C247.15 358.38 233.202 338.308 235.7 331.05C238.198 323.792 249.123 335.985 249.123 335.985C249.123 335.985 253.903 312.249 258.542 310.167C263.182 308.084 275.677 325.799 275.677 325.799C275.677 325.799 294.121 304.15 301.317 305.586C308.513 307.022 309.946 322.968 309.946 322.968C309.946 322.968 324.169 314.634 327.049 317.428C329.929 320.222 327.049 331.947 327.049 331.947C327.049 331.947 336.359 329.243 339.929 333.476C343.5 337.71 327.049 356.129 327.049 356.129L247.15 358.38Z" fill="#D5D7D8"/>
<path fill-rule="evenodd" clip-rule="evenodd" d="M244.607 362.315C244.607 362.315 234.91 355.786 233.662 349.256C232.415 342.727 246.377 348.456 246.377 348.456C246.377 348.456 240.284 331.397 242.776 328.139C245.267 324.882 257.298 332.112 257.298 332.112C257.298 332.112 269.818 310.088 276.01 313.129C282.203 316.17 291.313 334.803 291.313 334.803C291.313 334.803 310.832 320.586 314.568 324.81C318.303 329.033 310.001 342.631 310.001 342.631C310.001 342.631 325.712 338.803 327.403 342.631C329.094 346.459 318.716 354.875 318.716 354.875C318.716 354.875 332.28 351.349 333.383 355.562C334.486 359.775 315.413 362.315 315.413 362.315H244.607Z" fill="#ECEDF1"/>
<path fill-rule="evenodd" clip-rule="evenodd" d="M321.791 345.415C313.458 347.727 305.128 347.727 296.794 343.562C284.766 338.006 275.488 351.892 264.391 356.985C259.302 359.301 252.821 354.672 246.803 356.061C244.558 356.517 242.619 357.92 241.484 359.909C243.25 361.394 244.607 362.315 244.607 362.315H315.399C315.399 362.315 334.489 359.751 333.386 355.555C332.283 351.36 318.719 354.868 318.719 354.868C318.719 354.868 325.822 349.105 327.31 344.947C325.463 344.594 323.553 344.756 321.791 345.415Z" fill="#D5D7D8"/>
<path fill-rule="evenodd" clip-rule="evenodd" d="M301.286 304.414C301.437 306.39 301.08 308.029 300.485 308.078C299.891 308.126 299.282 306.559 299.131 304.583C298.98 302.607 299.334 300.964 299.928 300.919C300.523 300.875 301.131 302.438 301.286 304.414Z" fill="#DCDCDD"/>
<path fill-rule="evenodd" clip-rule="evenodd" d="M304.791 306.51C303.564 307.937 302.224 308.796 301.794 308.425C301.365 308.053 302.011 306.6 303.238 305.174C304.465 303.748 305.805 302.888 306.234 303.256C306.664 303.624 306.018 305.084 304.791 306.51Z" fill="#DCDCDD"/>
<path fill-rule="evenodd" clip-rule="evenodd" d="M338.448 330.765C337.843 332.25 336.988 333.305 336.541 333.122C336.094 332.94 336.225 331.59 336.83 330.102C337.434 328.614 338.29 327.562 338.737 327.744C339.184 327.927 339.053 329.277 338.448 330.765Z" fill="#DCDCDD"/>
<path fill-rule="evenodd" clip-rule="evenodd" d="M253.219 319.05C254.515 319.992 255.336 321.074 255.054 321.455C254.773 321.837 253.487 321.401 252.192 320.456C250.896 319.51 250.071 318.431 250.357 318.05C250.642 317.669 251.92 318.105 253.219 319.05Z" fill="#DCDCDD"/>
<path fill-rule="evenodd" clip-rule="evenodd" d="M254.989 317.579C255.536 318.765 255.676 319.858 255.333 320.023C254.989 320.187 254.243 319.359 253.7 318.174C253.157 316.988 253.013 315.899 253.357 315.734C253.7 315.569 254.429 316.397 254.989 317.579Z" fill="#DCDCDD"/>
<path fill-rule="evenodd" clip-rule="evenodd" d="M340.129 333.219C338.94 333.724 337.854 333.847 337.699 333.49C337.544 333.133 338.386 332.428 339.575 331.923C340.764 331.418 341.854 331.294 342.005 331.652C342.156 332.009 341.318 332.71 340.129 333.219Z" fill="#DCDCDD"/>
<path fill-rule="evenodd" clip-rule="evenodd" d="M274.814 313.889C274.814 316.322 274.22 318.294 273.488 318.294C272.756 318.294 272.161 316.322 272.161 313.889C272.161 311.456 272.756 309.487 273.488 309.487C274.22 309.487 274.814 311.456 274.814 313.889Z" fill="#DCDCDD"/>
<path fill-rule="evenodd" clip-rule="evenodd" d="M277.921 314.957C277.182 316.796 276.13 318.105 275.577 317.882C275.024 317.658 275.175 315.988 275.921 314.15C276.667 312.311 277.711 310.998 278.265 311.222C278.818 311.445 278.663 313.115 277.921 314.957Z" fill="#DCDCDD"/>
<path fill-rule="evenodd" clip-rule="evenodd" d="M233.848 344.985C235.645 346.624 236.7 348.394 236.205 348.933C235.71 349.473 233.858 348.59 232.061 346.944C230.263 345.298 229.205 343.538 229.7 342.999C230.195 342.459 232.05 343.346 233.848 344.985Z" fill="#DCDCDD"/>
<path fill-rule="evenodd" clip-rule="evenodd" d="M236.731 343.414C237.59 345.201 237.851 346.851 237.312 347.119C236.772 347.387 235.642 346.139 234.782 344.37C233.923 342.6 233.662 340.933 234.202 340.665C234.741 340.397 235.872 341.621 236.731 343.414Z" fill="#DCDCDD"/>
<path fill-rule="evenodd" clip-rule="evenodd" d="M313.609 321.789C313.764 323.765 313.406 325.404 312.812 325.452C312.217 325.5 311.609 323.933 311.437 321.957C311.265 319.981 311.64 318.339 312.234 318.294C312.829 318.249 313.454 319.813 313.609 321.789Z" fill="#DCDCDD"/>
<path fill-rule="evenodd" clip-rule="evenodd" d="M317.118 323.885C315.891 325.311 314.547 326.17 314.118 325.799C313.688 325.428 314.334 323.974 315.561 322.548C316.788 321.122 318.132 320.263 318.561 320.634C318.991 321.005 318.345 322.452 317.118 323.885Z" fill="#DCDCDD"/>
<path fill-rule="evenodd" clip-rule="evenodd" d="M260.213 342.892C261.732 344.164 262.656 345.566 262.275 346.023C261.893 346.48 260.347 345.824 258.838 344.552C257.329 343.281 256.395 341.879 256.776 341.418C257.158 340.958 258.69 341.621 260.213 342.892Z" fill="#DCDCDD"/>
<path fill-rule="evenodd" clip-rule="evenodd" d="M264.161 341.848C264.326 343.724 264 345.284 263.436 345.332C262.872 345.38 262.281 343.903 262.12 342.026C261.958 340.15 262.281 338.59 262.845 338.542C263.409 338.494 264 339.978 264.161 341.848Z" fill="#DCDCDD"/>
<path fill-rule="evenodd" clip-rule="evenodd" d="M295.1 330.112C296.622 331.384 297.547 332.786 297.162 333.243C296.777 333.7 295.237 333.04 293.725 331.768C292.213 330.497 291.282 329.095 291.663 328.638C292.045 328.181 293.581 328.841 295.1 330.112Z" fill="#DCDCDD"/>
<path fill-rule="evenodd" clip-rule="evenodd" d="M299.052 329.067C299.217 330.94 298.891 332.504 298.327 332.548C297.763 332.593 297.172 331.119 297.007 329.246C296.842 327.373 297.169 325.81 297.732 325.761C298.296 325.713 298.887 327.191 299.052 329.067Z" fill="#DCDCDD"/>
<path fill-rule="evenodd" clip-rule="evenodd" d="M319.523 339.549C319.053 341.075 318.3 342.198 317.839 342.054C317.379 341.91 317.389 340.562 317.86 339.033C318.331 337.504 319.087 336.384 319.544 336.525C320.001 336.666 319.994 338.02 319.523 339.549Z" fill="#DCDCDD"/>
<path fill-rule="evenodd" clip-rule="evenodd" d="M321.448 340.624C320.623 341.524 319.73 342.053 319.461 341.806C319.193 341.559 319.64 340.627 320.461 339.723C321.283 338.82 322.18 338.294 322.448 338.541C322.716 338.789 322.269 339.72 321.448 340.624Z" fill="#DCDCDD"/>
<path fill-rule="evenodd" clip-rule="evenodd" d="M243.724 326.147C244.384 327.6 245.277 328.617 245.714 328.418C246.15 328.219 245.972 326.878 245.308 325.425C244.645 323.971 243.752 322.954 243.315 323.153C242.879 323.353 243.061 324.693 243.724 326.147Z" fill="#DCDCDD"/>
<path fill-rule="evenodd" clip-rule="evenodd" d="M241.954 327.459C242.889 328.249 243.838 328.662 244.075 328.38C244.312 328.098 243.731 327.232 242.814 326.442C241.896 325.651 240.934 325.243 240.697 325.524C240.459 325.806 241.023 326.672 241.954 327.459Z" fill="#DCDCDD"/>
<path fill-rule="evenodd" clip-rule="evenodd" d="M463.699 286.122C488.658 284.524 517.456 256.318 509.861 238.864C502.267 221.41 500.531 209.857 508.215 198.063C515.185 187.369 489.163 142.049 499.036 124.681C495.345 121.186 490.242 119.234 485.531 120.839C479.551 122.881 476.596 129.472 474.699 135.503C472.62 142.165 471.045 148.975 469.988 155.874C468.981 162.448 468.269 169.517 464.022 174.63C459.355 180.242 451.478 182.163 446.286 187.293C441.93 191.678 439.93 197.88 440.904 203.984C441.794 209.273 444.846 213.902 447.025 218.806C449.204 223.709 450.461 229.627 447.784 234.27C445.43 238.366 440.681 240.39 437.389 243.778C433.179 248.108 431.615 254.562 432.368 260.551C433.121 266.541 435.973 272.101 439.585 276.947C441.464 279.474 443.552 281.839 445.829 284.016C451.611 285.783 457.664 286.497 463.699 286.122Z" fill="#ECEDF1"/>
<path fill-rule="evenodd" clip-rule="evenodd" d="M488.328 311.455C493.641 299.954 512.831 291.96 520.25 285.617C528.078 278.919 535.243 269.94 536.745 259.448C538.422 247.699 532.003 241.421 526.601 232.197C517.666 216.922 535.745 201.932 529.618 186.596C526.456 178.692 517.167 175.156 512.164 168.269C508.164 162.771 507.274 155.647 506.717 148.86C506.16 142.073 505.744 135.015 502.449 129.056C501.544 127.434 500.396 125.96 499.047 124.685C489.174 142.052 515.198 187.372 508.226 198.066C500.542 209.86 502.28 221.434 509.872 238.867C517.463 256.3 488.668 284.527 463.709 286.125C457.675 286.503 451.622 285.793 445.839 284.029C449.419 287.462 453.436 290.406 457.788 292.785C468.376 298.572 481.5 301.49 488.328 311.455Z" fill="#D5D7D8"/>
<path fill-rule="evenodd" clip-rule="evenodd" d="M513.676 245.606L513.178 245.146L488.658 271.854V207.029L504.652 186.768L504.119 186.348L488.658 205.936V140.654H487.981V174.895L477.094 159.056L476.537 159.441L487.981 176.09V228.455L459.08 199.3L458.599 199.778L487.981 229.417V291.995L450.805 254.95L450.327 255.428L487.981 292.95V361.37H488.658V272.854L513.676 245.606Z" fill="#D5D7D8"/>
<path fill-rule="evenodd" clip-rule="evenodd" d="M136.491 244.503C128.794 231.362 144.361 218.465 139.086 205.266C136.368 198.465 128.374 195.424 124.072 189.499C120.635 184.757 119.862 178.637 119.384 172.798C118.907 166.96 118.546 160.884 115.711 155.757C114.932 154.364 113.945 153.098 112.783 152.004C109.608 148.997 105.223 147.317 101.161 148.698C96.0058 150.454 93.4593 156.124 91.8407 161.314C90.0541 167.046 88.6997 172.904 87.7891 178.839C86.9231 184.496 86.3114 190.578 82.655 194.991C78.6377 199.819 71.8609 201.472 67.3934 205.888C63.6436 209.66 61.9222 214.996 62.761 220.249C63.5273 224.802 66.1528 228.785 68.0257 233.001C69.8986 237.218 70.9777 242.314 68.6787 246.317C66.6546 249.843 62.5685 251.582 59.7437 254.5C56.1217 258.221 54.7745 263.778 55.424 268.933C56.0735 274.087 58.5169 278.871 61.6098 283.043C65.7893 288.654 71.1296 293.298 77.2665 296.658C86.3973 301.641 97.6897 304.136 103.559 312.723C108.133 302.826 124.642 295.95 131.027 290.49C137.763 284.727 143.928 276.998 145.217 267.971C146.663 257.847 141.137 252.441 136.491 244.503Z" fill="#ECEDF1"/>
<path d="M103.773 240.208H103.36V362.435H103.773V240.208Z" fill="#D5D7D8"/>
<path fill-rule="evenodd" clip-rule="evenodd" d="M103.411 279.862L121.016 262.257L121.259 262.5L103.654 280.105L103.411 279.862Z" fill="#D5D7D8"/>
<path fill-rule="evenodd" clip-rule="evenodd" d="M88.2818 242.877L88.5248 242.634L103.654 257.763L103.411 258.006L88.2818 242.877Z" fill="#D5D7D8"/>
<path fill-rule="evenodd" clip-rule="evenodd" d="M300.588 337.84C300.55 337.765 300.506 337.7 300.471 337.624C300.437 337.548 300.392 337.48 300.358 337.407C300.323 337.335 300.279 337.263 300.244 337.188C300.21 337.112 300.162 337.047 300.128 336.974C300.093 336.902 300.049 336.83 300.014 336.755C299.98 336.679 299.935 336.614 299.901 336.538C299.866 336.462 299.818 336.397 299.784 336.322C299.75 336.246 299.705 336.181 299.671 336.105C299.636 336.029 299.592 335.964 299.557 335.889C299.523 335.813 299.475 335.748 299.44 335.672C299.406 335.596 299.361 335.528 299.327 335.456C299.293 335.383 299.248 335.311 299.213 335.239C299.179 335.167 299.131 335.095 299.097 335.019C299.062 334.944 299.018 334.878 298.983 334.803C298.949 334.727 298.904 334.662 298.87 334.586C298.835 334.511 298.787 334.445 298.753 334.37C298.719 334.294 298.674 334.229 298.64 334.153C298.605 334.078 298.561 334.012 298.526 333.937C298.492 333.861 298.444 333.796 298.409 333.72C298.375 333.645 298.33 333.579 298.296 333.504C298.262 333.428 298.217 333.359 298.183 333.287C298.148 333.215 298.1 333.143 298.066 333.071C298.031 332.999 297.987 332.926 297.952 332.851C297.918 332.775 297.873 332.71 297.839 332.634C297.805 332.559 297.756 332.493 297.722 332.418C297.688 332.342 297.643 332.277 297.609 332.201C297.574 332.126 297.53 332.06 297.495 331.985C297.461 331.909 297.413 331.844 297.378 331.768C297.344 331.693 297.299 331.627 297.265 331.552C297.231 331.476 297.186 331.411 297.152 331.335C297.117 331.26 297.069 331.191 297.035 331.119C297 331.047 296.956 330.974 296.921 330.899C296.887 330.823 296.842 330.758 296.808 330.682C296.774 330.607 296.725 330.541 296.691 330.466C296.657 330.39 296.612 330.325 296.578 330.249C296.543 330.174 296.499 330.108 296.464 330.033C296.43 329.957 296.382 329.892 296.347 329.816C296.313 329.741 296.268 329.675 296.234 329.6C296.2 329.524 296.155 329.459 296.121 329.383C294.945 326.978 294.667 323.995 295.557 320.792L364.511 74.3406C366.012 68.9694 371.889 64.8594 377.652 65.1309L487.874 70.3268C491.61 70.502 494.545 72.4196 495.919 75.1859L496.036 75.4024L496.15 75.6189C496.187 75.6911 496.229 75.7632 496.263 75.8354L496.38 76.0519L496.493 76.2718C496.531 76.3406 496.572 76.4127 496.607 76.4849C496.641 76.5571 496.686 76.6292 496.724 76.7048L496.837 76.9213C496.875 76.9935 496.916 77.0657 496.95 77.1378L497.067 77.3543L497.181 77.5708C497.218 77.643 497.26 77.7151 497.294 77.7873L497.411 78.0038L497.524 78.2203C497.562 78.2925 497.603 78.3646 497.638 78.4402C497.672 78.5158 497.717 78.5811 497.754 78.6567C497.792 78.7323 497.83 78.7976 497.868 78.8732C497.906 78.9488 497.947 79.0176 497.981 79.0897C498.016 79.1619 498.06 79.2341 498.098 79.3062L498.212 79.5227C498.249 79.5949 498.291 79.667 498.325 79.7392C498.359 79.8114 498.404 79.8835 498.442 79.9557L498.555 80.1722C498.593 80.2444 498.634 80.3165 498.669 80.3921L498.785 80.6052L498.899 80.8251C498.937 80.8973 498.978 80.9695 499.012 81.0416C499.047 81.1138 499.091 81.186 499.129 81.2581L499.242 81.4746C499.28 81.5468 499.322 81.6189 499.356 81.6911C499.39 81.7633 499.435 81.8354 499.473 81.9076L499.586 82.1241C499.624 82.1963 499.665 82.2684 499.7 82.3406C499.734 82.4128 499.779 82.4849 499.816 82.5605C499.854 82.6361 499.892 82.7014 499.93 82.777C499.968 82.8526 500.009 82.9179 500.043 82.9935C500.078 83.0691 500.122 83.1379 500.16 83.21L500.273 83.4265C500.311 83.4987 500.352 83.5709 500.387 83.643C500.421 83.7152 500.466 83.7873 500.504 83.8595C501.435 85.6234 501.713 87.6599 501.287 89.6087L450.279 341.335C448.815 348.552 442.086 354.019 435.275 353.483L308.623 343.469C304.904 343.177 302.093 341.091 300.702 338.064C300.664 337.981 300.622 337.916 300.588 337.84Z" fill="url(#paint0_linear_168_4482)"/>
<path fill-rule="evenodd" clip-rule="evenodd" d="M377.652 65.124L487.875 70.3199C493.792 70.5983 497.699 75.2375 496.593 80.7118L445.581 332.438C444.117 339.655 437.392 345.122 430.578 344.583L303.925 334.572C297.32 334.05 293.581 327.868 295.557 320.827L364.511 74.3406C366.012 68.9626 371.889 64.8526 377.652 65.124Z" fill="url(#paint1_linear_168_4482)"/>
<path fill-rule="evenodd" clip-rule="evenodd" d="M380.109 69.1861L483.445 74.1037C488.991 74.3649 492.61 78.8632 491.521 84.1725L441.643 327.298C440.217 334.243 433.897 339.507 427.553 339.009L309.358 329.731C303.172 329.246 299.736 323.311 301.612 316.514L367.707 78.1209C369.157 72.9113 374.7 68.9147 380.109 69.1861Z" fill="url(#paint2_linear_168_4482)" stroke="#95A1B5" stroke-width="0.5"/>
<path opacity="0.42" fill-rule="evenodd" clip-rule="evenodd" d="M303.526 327.077C323.695 318.143 342.843 306.524 359.105 291.338C396.02 256.816 425.612 214.286 446.746 173.932C464.517 140.011 472.668 106.506 483.62 74.2168C489.043 74.5845 492.555 79.0278 491.486 84.2684L441.592 327.394C440.169 334.339 433.849 339.6 427.502 339.102L309.31 329.823C307.101 329.685 305.03 328.702 303.526 327.077Z" fill="url(#paint3_linear_168_4482)"/>
<g opacity="0.64">
<path opacity="0.64" fill-rule="evenodd" clip-rule="evenodd" d="M366.81 328.51L371.992 328.916C372.842 328.923 373.584 328.339 373.775 327.51L375.178 321.648C375.377 320.816 374.906 320.095 374.126 320.036L368.971 319.638C368.126 319.631 367.389 320.21 367.195 321.033L365.768 326.875C365.555 327.723 366.026 328.452 366.81 328.51Z" fill="white"/>
<path opacity="0.64" fill-rule="evenodd" clip-rule="evenodd" d="M406.484 331.05L403.976 322.868L397.944 330.387L406.484 331.05Z" fill="white"/>
<path opacity="0.64" fill-rule="evenodd" clip-rule="evenodd" d="M331.871 325.868L340.314 321.937L334.208 316.902L331.871 325.868Z" fill="white"/>
</g>
<path fill-rule="evenodd" clip-rule="evenodd" d="M376.583 345.256L375.978 343.092C375.852 342.642 375.458 342.319 374.992 342.284L359.803 341.174C359.443 341.147 359.093 341.297 358.864 341.577C358.636 341.856 358.558 342.229 358.655 342.576L359.218 344.593C359.343 345.04 359.732 345.362 360.194 345.401L375.425 346.659C375.787 346.689 376.14 346.54 376.371 346.261C376.602 345.981 376.681 345.606 376.583 345.256Z" fill="#131435"/>
<path fill-rule="evenodd" clip-rule="evenodd" d="M392.549 294.211C392.68 294.315 392.802 294.43 392.913 294.555L393.913 295.61L393.955 295.655L393.9 295.699L390.632 298.345L390.663 298.211C391.858 299.93 393.336 302.019 395.017 304.418H394.807L397.989 301.981L398.089 301.902L398.178 301.961C398.889 302.423 399.528 302.987 400.075 303.634C400.695 304.307 401.059 305.175 401.106 306.088C401.101 306.342 401.058 306.595 400.979 306.837L400.855 307.212L400.649 307.555C400.509 307.791 400.341 308.01 400.147 308.205C399.967 308.413 399.768 308.604 399.553 308.775C398.702 309.498 397.658 309.954 396.549 310.088C395.53 310.209 394.499 309.995 393.611 309.48C393.204 309.245 392.839 308.945 392.529 308.593C392.219 308.249 391.989 307.868 391.728 307.51L388.814 303.363L386.171 299.61L385.563 298.744C385.35 298.47 385.17 298.171 385.027 297.854C384.751 297.191 384.767 296.443 385.071 295.792C385.655 294.595 386.688 293.677 387.944 293.235C388.835 292.904 389.805 292.849 390.728 293.077C391.261 293.211 391.758 293.462 392.181 293.813C392.285 293.904 392.382 294.001 392.474 294.105C392.535 294.174 392.566 294.211 392.559 294.215C392.03 293.716 391.382 293.361 390.676 293.184C389.78 292.986 388.845 293.058 387.989 293.39C386.806 293.823 385.839 294.701 385.295 295.837C385.025 296.431 385.018 297.111 385.278 297.71C385.419 298.013 385.596 298.299 385.803 298.562L386.418 299.421C387.257 300.589 388.137 301.827 389.085 303.15L392.02 307.273C392.278 307.617 392.518 308.012 392.803 308.332C393.101 308.663 393.449 308.945 393.834 309.167C394.667 309.645 395.63 309.843 396.584 309.73C397.613 309.607 398.582 309.183 399.371 308.511C399.572 308.353 399.758 308.176 399.924 307.981C400.099 307.807 400.251 307.611 400.374 307.397L400.56 307.088L400.67 306.744C400.739 306.532 400.777 306.311 400.783 306.088C400.739 305.238 400.402 304.43 399.828 303.803C399.301 303.174 398.685 302.626 397.999 302.177H398.189L394.996 304.583L394.865 304.682L394.786 304.569C393.137 302.163 391.693 300.026 390.508 298.308L390.46 298.236L390.539 298.17L393.855 295.579V295.669L392.907 294.572C392.779 294.461 392.659 294.34 392.549 294.211Z" fill="white"/>
<path fill-rule="evenodd" clip-rule="evenodd" d="M400.113 316.122C400.48 316.125 400.846 316.092 401.206 316.022C402.277 315.774 403.216 315.133 403.838 314.225C404.041 313.926 404.203 313.602 404.319 313.26C404.433 312.916 404.512 312.517 404.618 312.122C404.818 311.32 405.034 310.454 405.268 309.524L406.883 303.208L408.824 295.534L409.361 293.435C409.529 292.713 409.79 291.998 409.68 291.321C409.606 290.642 409.273 290.018 408.749 289.579C408.169 289.124 407.451 288.882 406.714 288.892L386.068 287.232C385.148 287.175 384.236 287.437 383.487 287.974C382.739 288.491 382.192 289.249 381.937 290.122C381.502 291.854 381.074 293.558 380.652 295.235C379.81 298.586 378.996 301.823 378.222 304.906C377.835 306.445 377.456 307.946 377.085 309.407C376.923 310.139 376.648 310.861 376.686 311.524C376.709 312.17 376.959 312.786 377.391 313.266C377.823 313.73 378.397 314.037 379.023 314.139C379.669 314.225 380.353 314.266 380.999 314.328L384.735 314.672L396.006 315.703L399.068 316.002L399.862 316.088L400.13 316.129C400.038 316.137 399.944 316.137 399.852 316.129L399.051 316.077L395.958 315.84L384.659 314.902L380.917 314.586C380.264 314.524 379.611 314.49 378.92 314.4C378.242 314.294 377.618 313.966 377.147 313.466C376.674 312.95 376.4 312.282 376.374 311.583C376.361 311.208 376.405 310.834 376.504 310.473C376.593 310.129 376.683 309.751 376.772 309.383C377.136 307.926 377.511 306.421 377.892 304.881C378.662 301.789 379.466 298.565 380.298 295.211C380.717 293.53 381.145 291.823 381.58 290.091C381.861 289.127 382.468 288.292 383.298 287.727C384.12 287.132 385.124 286.841 386.137 286.905L406.78 288.593C407.571 288.587 408.341 288.851 408.962 289.342C409.533 289.82 409.895 290.502 409.972 291.242C410.017 291.621 409.995 292.005 409.907 292.376C409.825 292.747 409.725 293.098 409.636 293.455C409.45 294.17 409.269 294.871 409.093 295.558C408.378 298.308 407.718 300.881 407.106 303.229C406.495 305.576 405.945 307.696 405.46 309.552L404.773 312.15C404.663 312.548 404.584 312.923 404.457 313.297C404.332 313.652 404.16 313.989 403.945 314.297C403.291 315.226 402.308 315.872 401.195 316.101C400.839 316.176 400.472 316.183 400.113 316.122Z" fill="white"/>
<path fill-rule="evenodd" clip-rule="evenodd" d="M366.847 312.937C367.214 312.94 367.58 312.906 367.94 312.837C369.005 312.595 369.939 311.959 370.555 311.057C370.758 310.76 370.916 310.436 371.026 310.095C371.14 309.751 371.212 309.359 371.315 308.964C371.507 308.171 371.717 307.312 371.944 306.387L373.483 300.102L375.36 292.486C375.528 291.799 375.703 291.112 375.875 290.4C376.047 289.689 376.294 288.974 376.178 288.301C376.094 287.627 375.755 287.012 375.229 286.583C374.649 286.129 373.931 285.887 373.195 285.895L352.548 284.232C351.632 284.174 350.723 284.435 349.978 284.971C349.234 285.48 348.692 286.234 348.445 287.101C348.026 288.82 347.612 290.512 347.204 292.177C346.393 295.504 345.606 298.706 344.861 301.775L343.768 306.242C343.61 306.971 343.342 307.686 343.386 308.346C343.416 308.985 343.671 309.593 344.105 310.064C344.54 310.526 345.117 310.83 345.744 310.93C346.39 311.016 347.074 311.057 347.716 311.122L351.455 311.466L362.727 312.497L365.786 312.796L366.579 312.882C366.67 312.888 366.759 312.902 366.847 312.923C366.756 312.931 366.664 312.931 366.573 312.923L365.772 312.868L362.696 312.631L351.397 311.696L347.655 311.377C347.002 311.315 346.349 311.28 345.658 311.194C344.979 311.085 344.355 310.758 343.878 310.263C343.402 309.751 343.124 309.088 343.091 308.39C343.075 308.02 343.115 307.649 343.211 307.291C343.297 306.947 343.383 306.572 343.472 306.212C343.818 304.761 344.178 303.272 344.551 301.744C345.29 298.686 346.07 295.473 346.874 292.146C347.28 290.481 347.692 288.786 348.112 287.064C348.383 286.109 348.979 285.278 349.796 284.713C350.618 284.125 351.618 283.839 352.627 283.902L373.267 285.589C374.059 285.586 374.83 285.849 375.456 286.335C376.03 286.809 376.4 287.486 376.487 288.225C376.534 288.6 376.515 288.98 376.432 289.349C376.349 289.717 376.253 290.067 376.167 290.421L375.642 292.51C374.954 295.26 374.312 297.792 373.724 300.122L372.136 306.404C371.899 307.325 371.679 308.188 371.48 308.978C371.37 309.377 371.298 309.751 371.174 310.119C371.052 310.472 370.882 310.808 370.669 311.115C370.025 312.038 369.05 312.678 367.947 312.902C367.586 312.981 367.213 312.993 366.847 312.937Z" fill="white"/>
<path fill-rule="evenodd" clip-rule="evenodd" d="M352.438 291.335C352.542 291.328 352.647 291.328 352.751 291.335L353.679 291.394L357.222 291.645L369.769 292.61H369.923L369.885 292.761C368.992 296.383 367.988 300.452 366.933 304.737C366.978 304.71 366.535 305.023 366.72 304.889H366.648H366.573H366.421L366.119 304.861L365.521 304.81L364.329 304.706L361.985 304.504L357.49 304.115L349.493 303.404H349.356L349.39 303.27C350.304 299.655 351.057 296.669 351.593 294.552C351.854 293.545 352.06 292.744 352.208 292.167L352.376 291.552C352.392 291.483 352.412 291.415 352.438 291.349C352.432 291.428 352.419 291.506 352.397 291.583C352.363 291.748 352.314 291.961 352.256 292.225L351.703 294.631C351.208 296.73 350.507 299.693 349.662 303.28L349.558 303.136L357.565 303.799L362.064 304.177L364.408 304.377L365.6 304.48L366.201 304.531L366.504 304.555H366.655H366.731H366.799C366.988 304.421 366.552 304.737 366.597 304.703C367.665 300.418 368.659 296.349 369.58 292.727L369.696 292.889L357.284 291.785L353.727 291.442L352.775 291.346C352.663 291.35 352.55 291.347 352.438 291.335Z" fill="white"/>
<path fill-rule="evenodd" clip-rule="evenodd" d="M359.208 299.693C359.269 299.634 359.335 299.582 359.407 299.538L359.981 299.139L362.133 297.682L369.659 292.648L369.696 292.916L361.047 292.229L352.404 291.497L352.569 291.249C354.524 293.706 356.177 295.789 357.38 297.294L358.737 299.047L359.098 299.524C359.144 299.581 359.184 299.642 359.218 299.706C359.035 299.53 358.865 299.341 358.71 299.139L357.301 297.466C356.064 295.967 354.349 293.895 352.321 291.452L352.088 291.17L352.486 291.201L361.139 291.888L369.779 292.62L370.177 292.651L369.834 292.885L362.15 297.857L359.988 299.232C359.459 299.548 359.201 299.706 359.208 299.693Z" fill="white"/>
<path fill-rule="evenodd" clip-rule="evenodd" d="M357.332 297.366C357.383 297.431 355.679 298.809 353.521 300.438C351.363 302.067 349.579 303.332 349.524 303.267C349.469 303.201 351.177 301.823 353.332 300.194C355.486 298.565 357.28 297.301 357.332 297.366Z" fill="white"/>
<path fill-rule="evenodd" clip-rule="evenodd" d="M366.765 304.744C366.679 304.803 365.576 303.284 364.298 301.359C363.019 299.435 362.043 297.827 362.126 297.772C362.208 297.717 363.315 299.229 364.597 301.157C365.878 303.084 366.847 304.689 366.765 304.744Z" fill="white"/>
<path fill-rule="evenodd" clip-rule="evenodd" d="M333.585 309.737C333.951 309.738 334.316 309.705 334.675 309.638C335.734 309.401 336.663 308.769 337.273 307.871C337.471 307.577 337.627 307.257 337.737 306.919C337.843 306.576 337.915 306.187 338.015 305.796L338.62 303.236C339.056 301.397 339.555 299.308 340.101 296.998C340.648 294.689 341.263 292.153 341.912 289.438L342.407 287.376C342.565 286.668 342.813 285.964 342.692 285.314C342.605 284.639 342.26 284.024 341.73 283.596C341.146 283.145 340.427 282.903 339.689 282.909L319.042 281.246C318.13 281.183 317.225 281.441 316.482 281.974C315.743 282.479 315.208 283.229 314.97 284.091C314.569 285.796 314.171 287.474 313.777 289.125C312.994 292.431 312.238 295.62 311.52 298.658C311.16 300.177 310.808 301.656 310.465 303.095C310.313 303.82 310.052 304.528 310.121 305.181C310.154 305.822 310.413 306.431 310.853 306.899C311.294 307.357 311.872 307.659 312.499 307.761C313.145 307.847 313.829 307.888 314.472 307.954L318.207 308.297L329.479 309.328L332.541 309.627L333.335 309.713C333.425 309.718 333.515 309.732 333.603 309.754C333.511 309.763 333.419 309.763 333.328 309.754L332.524 309.699L329.451 309.462L318.156 308.524L314.413 308.208C313.76 308.146 313.107 308.112 312.417 308.022C311.737 307.916 311.11 307.591 310.63 307.098C310.15 306.593 309.865 305.934 309.825 305.239C309.806 304.87 309.843 304.5 309.935 304.143C310.018 303.799 310.1 303.431 310.186 303.074C310.523 301.635 310.867 300.155 311.217 298.634C311.932 295.596 312.681 292.407 313.454 289.101C313.846 287.447 314.244 285.766 314.647 284.057C314.911 283.109 315.5 282.284 316.31 281.727C317.13 281.141 318.127 280.858 319.132 280.926L339.771 282.61C340.564 282.609 341.336 282.871 341.964 283.356C342.537 283.825 342.906 284.497 342.995 285.232C343.045 285.603 343.03 285.98 342.95 286.345C342.874 286.713 342.778 287.06 342.696 287.411L342.191 289.473C341.527 292.191 340.905 294.72 340.342 297.033C339.778 299.345 339.259 301.428 338.806 303.266C338.576 304.183 338.366 305.035 338.173 305.823C338.07 306.218 337.998 306.589 337.878 306.957C337.76 307.307 337.593 307.639 337.383 307.943C336.744 308.862 335.775 309.497 334.678 309.717C334.318 309.791 333.948 309.798 333.585 309.737Z" fill="white"/>
<path fill-rule="evenodd" clip-rule="evenodd" d="M332.768 303.208C332.776 303.129 332.789 303.051 332.809 302.974C332.847 302.803 332.895 302.586 332.95 302.322C333.084 301.727 333.273 300.902 333.506 299.868L335.527 291.16L335.634 291.304L319.434 289.985C319.386 290.016 319.822 289.706 319.637 289.837V289.858V289.882V289.933L319.613 290.033L319.565 290.236L319.468 290.641L319.279 291.442C319.152 291.974 319.025 292.5 318.901 293.026C318.65 294.057 318.406 295.088 318.166 296.119L316.791 301.84L316.674 301.682L328.273 302.754L331.585 303.081L332.469 303.174C332.574 303.181 332.678 303.196 332.781 303.218C332.686 303.227 332.591 303.227 332.496 303.218L331.63 303.16L328.335 302.916L316.606 301.981H316.454L316.489 301.837C316.908 300.04 317.362 298.122 317.833 296.112C318.062 295.104 318.304 294.073 318.561 293.019C318.685 292.493 318.809 291.967 318.936 291.435L319.125 290.631L319.221 290.229L319.269 290.026L319.293 289.926V289.875V289.851V289.806L319.503 289.658L335.692 291.033H335.833L335.799 291.167C334.895 294.799 334.142 297.813 333.61 299.95C333.352 300.981 333.142 301.782 332.994 302.356L332.826 302.981C332.817 303.059 332.798 303.136 332.768 303.208Z" fill="white"/>
<path fill-rule="evenodd" clip-rule="evenodd" d="M325.455 287.964C325.934 287.936 326.414 287.946 326.891 287.995C327.798 288.043 329.084 288.129 330.613 288.242H330.699L330.723 288.318C330.994 289.063 331.286 289.881 331.596 290.723L331.689 290.978L331.396 290.953L329.86 290.83C327.307 290.617 324.994 290.407 323.307 290.235L323.097 290.215L323.245 290.053C324.52 288.679 325.386 287.854 325.455 287.94C325.455 287.94 325.245 288.136 324.895 288.527L323.427 290.187L323.365 290.005C325.063 290.115 327.383 290.29 329.939 290.503L331.472 290.634L331.273 290.864C330.974 289.998 330.692 289.177 330.431 288.424L330.544 288.507C329.022 288.366 327.747 288.242 326.853 288.142C326.383 288.123 325.915 288.063 325.455 287.964Z" fill="white"/>
<path fill-rule="evenodd" clip-rule="evenodd" d="M329.194 297.871C329.163 297.871 329.355 297.569 329.537 297.012C329.776 296.266 329.74 295.46 329.438 294.737C328.954 293.687 327.92 292.999 326.764 292.961C325.21 292.894 323.739 293.663 322.908 294.978C322.039 296.352 322.248 297.964 323.104 298.851C323.938 299.693 325.149 300.043 326.304 299.775C327.154 299.599 327.937 299.185 328.561 298.583C329.001 298.153 329.176 297.854 329.204 297.871C329.231 297.889 329.176 297.95 329.091 298.088C328.966 298.294 328.82 298.487 328.654 298.662C328.031 299.331 327.22 299.797 326.328 299.998C325.086 300.32 323.766 299.965 322.853 299.064C322.362 298.548 322.067 297.875 322.022 297.163C321.967 296.347 322.175 295.534 322.616 294.844C323.084 294.106 323.746 293.511 324.53 293.126C325.241 292.764 326.037 292.603 326.833 292.662C328.078 292.714 329.182 293.48 329.668 294.627C330.037 295.635 329.922 296.757 329.355 297.669C329.256 297.806 329.218 297.875 329.194 297.871Z" fill="white"/>
<path fill-rule="evenodd" clip-rule="evenodd" d="M433.375 319.311C433.742 319.31 434.107 319.275 434.468 319.208C435.546 318.954 436.492 318.309 437.121 317.397C437.327 317.096 437.492 316.768 437.609 316.421C437.729 316.078 437.808 315.676 437.918 315.277C438.124 314.469 438.351 313.597 438.605 312.658C439.093 310.782 439.636 308.645 440.258 306.284C440.88 303.923 441.547 301.335 442.272 298.559C442.451 297.871 442.636 297.157 442.822 296.442C443.007 295.727 443.269 294.995 443.166 294.315C443.099 293.633 442.769 293.004 442.245 292.562C441.668 292.107 440.952 291.865 440.217 291.875L419.567 290.218C418.644 290.159 417.728 290.424 416.979 290.968C416.224 291.489 415.669 292.253 415.409 293.133C414.951 294.876 414.506 296.594 414.075 298.287L411.56 308.026L410.385 312.562C410.216 313.301 409.934 314.026 409.969 314.693C409.982 315.341 410.225 315.964 410.656 316.449C411.086 316.915 411.659 317.223 412.285 317.325C412.928 317.411 413.615 317.452 414.258 317.518L417.993 317.861L429.268 318.892L432.327 319.195L433.121 319.281C433.211 319.285 433.301 319.299 433.389 319.322C433.389 319.322 433.292 319.322 433.11 319.322L432.31 319.267L429.217 319.03L417.918 318.095L414.175 317.779C413.519 317.717 412.866 317.683 412.175 317.593C411.498 317.487 410.876 317.157 410.409 316.655C409.939 316.132 409.67 315.458 409.653 314.755C409.644 314.377 409.691 314.001 409.794 313.638C409.886 313.294 409.979 312.909 410.072 312.542C410.45 311.071 410.837 309.559 411.233 308.006C412.027 304.913 412.862 301.645 413.728 298.267L415.058 293.112C415.673 291.123 417.556 289.802 419.636 289.902L440.279 291.586C441.07 291.582 441.839 291.849 442.458 292.342C443.027 292.825 443.384 293.513 443.451 294.256C443.493 294.637 443.469 295.022 443.379 295.394C443.289 295.768 443.19 296.122 443.093 296.483C442.903 297.202 442.717 297.909 442.533 298.603L440.471 306.325L438.753 312.696C438.502 313.634 438.265 314.507 438.066 315.311C437.949 315.713 437.87 316.091 437.722 316.466C437.593 316.824 437.417 317.164 437.2 317.476C436.547 318.409 435.564 319.059 434.451 319.294C434.096 319.366 433.732 319.371 433.375 319.311Z" fill="white"/>
<path fill-rule="evenodd" clip-rule="evenodd" d="M435.835 305.418C435.964 304.675 436.04 303.924 436.062 303.17C436.106 299.787 433.837 296.81 430.564 295.954C428.956 295.53 427.265 295.53 425.657 295.954C424.738 296.178 423.854 296.525 423.028 296.985C422.151 297.455 421.342 298.041 420.622 298.727C419.111 300.115 418.023 301.902 417.485 303.882C416.99 305.688 417.131 307.61 417.883 309.325C418.226 310.096 418.711 310.796 419.313 311.387C419.885 311.974 420.556 312.456 421.296 312.81C422.751 313.503 424.369 313.784 425.973 313.621C427.477 313.477 428.934 313.021 430.251 312.28C432.224 311.202 433.847 309.582 434.928 307.61C435.285 306.902 435.597 306.172 435.863 305.425C435.857 305.475 435.847 305.524 435.832 305.572C435.801 305.693 435.76 305.834 435.712 306.009C435.648 306.243 435.567 306.473 435.471 306.696C435.349 307.019 435.207 307.333 435.045 307.638C434.606 308.504 434.051 309.306 433.396 310.023C432.52 310.997 431.49 311.821 430.347 312.462C428.998 313.237 427.5 313.719 425.952 313.878C424.295 314.058 422.621 313.777 421.113 313.067C420.345 312.707 419.646 312.213 419.052 311.607C418.425 310.995 417.92 310.269 417.564 309.469C416.778 307.694 416.63 305.702 417.144 303.83C418.026 300.772 420.107 298.202 422.914 296.703C423.77 296.231 424.686 295.875 425.636 295.644C427.295 295.213 429.039 295.22 430.694 295.665C432.026 296.033 433.234 296.751 434.193 297.744C434.96 298.551 435.531 299.523 435.863 300.586C436.123 301.411 436.239 302.275 436.207 303.139C436.207 303.464 436.182 303.788 436.131 304.108C436.107 304.35 436.064 304.589 436 304.823C435.959 304.998 435.921 305.139 435.894 305.26C435.879 305.314 435.86 305.367 435.835 305.418Z" fill="white"/>
<path fill-rule="evenodd" clip-rule="evenodd" d="M425.474 300.063C425.635 300.152 425.788 300.255 425.931 300.369L427.258 301.311C428.395 302.125 430.038 303.304 431.925 304.716L432.134 304.871L431.856 304.988L427.65 306.747L423.354 308.524L423.083 308.637L423.155 308.366C423.804 305.895 424.399 303.785 424.815 302.325C425.007 301.637 425.167 301.074 425.296 300.634C425.34 300.439 425.4 300.249 425.474 300.063C425.474 300.063 425.426 300.311 425.33 300.723C425.234 301.136 425.086 301.754 424.918 302.472C424.574 303.957 424.079 306.005 423.471 308.393L423.268 308.239L427.557 306.445L431.77 304.703L431.698 304.974C429.887 303.6 428.361 302.38 427.258 301.5L425.955 300.469C425.65 300.218 425.478 300.077 425.474 300.063Z" fill="white"/>
<path fill-rule="evenodd" clip-rule="evenodd" d="M402.67 196.967L507.287 219.599L475.799 269.002L371.181 246.369L402.67 196.967Z" fill="white"/>
<path fill-rule="evenodd" clip-rule="evenodd" d="M372.36 244.52L401.491 198.816L502.195 220.599L473.063 266.304L372.36 244.52Z" fill="url(#paint4_radial_168_4482)"/>
<path fill-rule="evenodd" clip-rule="evenodd" d="M389.037 218.355L414.732 222.469L457.733 210.981L401.491 198.816L389.037 218.355Z" fill="url(#paint5_radial_168_4482)"/>
<path fill-rule="evenodd" clip-rule="evenodd" d="M386.762 221.926L410.725 225.761L402.793 239.019L378.442 236.056L386.762 221.926Z" fill="url(#paint6_radial_168_4482)"/>
<path fill-rule="evenodd" clip-rule="evenodd" d="M377.267 245.582L381.264 238.624L419.883 242.995L410.068 252.679L377.267 245.582Z" fill="url(#paint7_radial_168_4482)"/>
<path fill-rule="evenodd" clip-rule="evenodd" d="M418.46 254.493L428.653 244.386L461.324 248.359L448.228 260.933L418.46 254.493Z" fill="url(#paint8_radial_168_4482)"/>
<path fill-rule="evenodd" clip-rule="evenodd" d="M456.619 262.747L463.224 255.675L478.108 258.39L473.063 266.304L456.619 262.747Z" fill="url(#paint9_radial_168_4482)"/>
<path fill-rule="evenodd" clip-rule="evenodd" d="M479.321 256.486L465.678 254.005L473.785 244.847L485.283 247.132L479.321 256.486Z" fill="url(#paint10_radial_168_4482)"/>
<path fill-rule="evenodd" clip-rule="evenodd" d="M411.653 240.094L464.431 245.922L475.503 232.72L419.12 226.97L411.653 240.094Z" fill="url(#paint11_radial_168_4482)"/>
<path fill-rule="evenodd" clip-rule="evenodd" d="M424.031 223.599L465.73 212.713L492.029 218.4L457.211 227.637L424.031 223.599Z" fill="url(#paint12_radial_168_4482)"/>
<path fill-rule="evenodd" clip-rule="evenodd" d="M466.994 228.826L494.796 232.207L502.195 220.599L466.994 228.826Z" fill="url(#paint13_radial_168_4482)"/>
<path fill-rule="evenodd" clip-rule="evenodd" d="M486.71 244.895L476.469 242.569L481.197 233.41L493.277 234.589L486.71 244.895Z" fill="url(#paint14_radial_168_4482)"/>
<path fill-rule="evenodd" clip-rule="evenodd" d="M453.506 216.737L371.181 246.335L396.783 201.792L453.506 216.737Z" fill="#2F3E8B"/>
<path fill-rule="evenodd" clip-rule="evenodd" d="M403.35 110.094L474.991 128.97L453.506 216.737L381.923 197.878L403.35 110.094Z" fill="white"/>
<path fill-rule="evenodd" clip-rule="evenodd" d="M382.724 194.592L402.549 113.379L474.039 132.214L454.214 213.427L382.724 194.592Z" fill="url(#paint15_radial_168_4482)"/>
<path fill-rule="evenodd" clip-rule="evenodd" d="M381.924 197.878L306.533 182.905L328.053 94.7568L403.35 110.094L381.924 197.878Z" fill="white"/>
<path fill-rule="evenodd" clip-rule="evenodd" d="M382.724 194.592L310.331 179.465L330.094 98.4919L402.549 113.379L382.724 194.592Z" fill="url(#paint16_radial_168_4482)"/>
<path fill-rule="evenodd" clip-rule="evenodd" d="M391.762 169.358C391.769 169.678 391.713 169.995 391.597 170.293C391.567 170.364 391.53 170.432 391.487 170.496L391.762 169.358Z" fill="#297F98"/>
<path fill-rule="evenodd" clip-rule="evenodd" d="M330.094 98.4919L323.702 124.688L361.036 104.849L330.094 98.4919Z" fill="url(#paint17_radial_168_4482)"/>
<path fill-rule="evenodd" clip-rule="evenodd" d="M366.394 105.949L345.758 118.396L359.679 137.166L396.065 112.045L366.394 105.949Z" fill="url(#paint18_radial_168_4482)"/>
<path fill-rule="evenodd" clip-rule="evenodd" d="M402.549 113.379L375.975 132.228L394.075 148.097L402.549 113.379Z" fill="url(#paint19_radial_168_4482)"/>
<path fill-rule="evenodd" clip-rule="evenodd" d="M392.525 154.441L372.693 135.523L354.95 146.314L386.882 179.431L392.525 154.441Z" fill="url(#paint20_radial_168_4482)"/>
<path fill-rule="evenodd" clip-rule="evenodd" d="M342.118 120.695L355.277 138.544L334.915 152.063L323.462 130.372L342.118 120.695Z" fill="url(#paint21_radial_168_4482)"/>
<path fill-rule="evenodd" clip-rule="evenodd" d="M321.046 135.571L331.084 153.441L313.585 166.132L321.046 135.571Z" fill="url(#paint22_radial_168_4482)"/>
<path fill-rule="evenodd" clip-rule="evenodd" d="M351.428 147.984L324.953 164.719L340.28 185.723L362.617 190.393L368.755 166.527L351.428 147.984Z" fill="url(#paint23_radial_168_4482)"/>
<path fill-rule="evenodd" clip-rule="evenodd" d="M371.569 169.788L366.253 191.152L382.724 194.592L385.535 183.08L371.569 169.788Z" fill="url(#paint24_radial_168_4482)"/>
<path fill-rule="evenodd" clip-rule="evenodd" d="M333.269 184.259L322.001 167.74L311.719 173.778L310.331 179.465L333.269 184.259Z" fill="url(#paint25_radial_168_4482)"/>
<path fill-rule="evenodd" clip-rule="evenodd" d="M394.075 148.097L412.292 150.499L442.478 123.898L402.549 113.379L394.075 148.097Z" fill="url(#paint26_radial_168_4482)"/>
<path fill-rule="evenodd" clip-rule="evenodd" d="M392.525 154.441L409.515 156.678L404.13 180.145L386.882 179.431L392.525 154.441Z" fill="url(#paint27_radial_168_4482)"/>
<path fill-rule="evenodd" clip-rule="evenodd" d="M386.209 195.51L388.917 183.218L416.268 183.805L409.495 201.647L386.209 195.51Z" fill="url(#paint28_radial_168_4482)"/>
<path fill-rule="evenodd" clip-rule="evenodd" d="M415.454 203.214L422.488 184.606L445.626 185.561L436.585 208.785L415.454 203.214Z" fill="url(#paint29_radial_168_4482)"/>
<path fill-rule="evenodd" clip-rule="evenodd" d="M442.544 210.352L447.09 197.42L457.647 199.365L454.214 213.427L442.544 210.352Z" fill="url(#paint30_radial_168_4482)"/>
<path fill-rule="evenodd" clip-rule="evenodd" d="M458.475 195.98L448.798 194.211L454.372 177.544L462.53 179.362L458.475 195.98Z" fill="url(#paint31_radial_168_4482)"/>
<path fill-rule="evenodd" clip-rule="evenodd" d="M410.405 180.403L447.781 180.963L455.386 157.039L415.464 157.235L410.405 180.403Z" fill="url(#paint32_radial_168_4482)"/>
<path fill-rule="evenodd" clip-rule="evenodd" d="M418.88 150.771L448.155 125.396L466.823 130.314L442.382 151.74L418.88 150.771Z" fill="url(#paint33_radial_168_4482)"/>
<path fill-rule="evenodd" clip-rule="evenodd" d="M449.31 152.028L469.005 152.839L474.039 132.214L449.31 152.028Z" fill="url(#paint34_radial_168_4482)"/>
<path fill-rule="evenodd" clip-rule="evenodd" d="M463.503 175.383L456.231 173.286L459.42 157.204L467.97 157.073L463.503 175.383Z" fill="url(#paint35_radial_168_4482)"/>
<path opacity="0.26" fill-rule="evenodd" clip-rule="evenodd" d="M398.151 169.269L316.479 142.17L328.053 94.7568L398.395 163.448L398.151 169.269Z" fill="url(#paint36_linear_168_4482)"/>
<path opacity="0.14" fill-rule="evenodd" clip-rule="evenodd" d="M371.181 246.335L383.436 249.019L458.413 220.046L450.743 217.73L371.181 246.335Z" fill="#030303"/>
<path fill-rule="evenodd" clip-rule="evenodd" d="M410.536 120.025C407.237 121.348 403.695 121.954 400.144 121.805C386.353 121.234 375.642 109.688 376.219 96.0143C376.796 82.3407 388.436 71.7187 402.223 72.2857C407.513 72.4968 412.599 74.3811 416.749 77.6671C411.271 62.722 393.144 61.4918 380.174 62.7117C373.524 66.5155 368.236 72.3101 365.054 79.2788C357.287 96.4061 361.552 113.516 372.239 124.568C372.392 124.726 372.523 124.904 372.628 125.097L396.137 168.032C396.376 168.465 396.743 168.813 397.188 169.029C389.432 155.64 401.652 140.413 410.536 120.025Z" fill="#1F2055"/>
<path fill-rule="evenodd" clip-rule="evenodd" d="M400.247 168.2L427.282 127.345C427.399 127.168 427.539 127.007 427.698 126.867C435.893 119.734 440.79 109.543 441.238 98.688C442.372 71.6776 416.065 49.8389 386.889 59.6672C384.557 60.4542 382.308 61.4694 380.174 62.6981C393.144 61.4782 411.271 62.6981 416.749 77.6535C423.696 83.1201 427.189 91.8848 425.906 100.631C424.623 109.378 418.76 116.77 410.536 120.011C401.653 140.4 389.432 155.627 397.199 169.015C398.276 169.541 399.576 169.193 400.247 168.2Z" fill="#2F3E8B"/>
<path opacity="0.42" fill-rule="evenodd" clip-rule="evenodd" d="M382.14 279.555C382.14 279.555 411.608 260.28 414.945 270.472C418.282 280.665 403.604 298.476 406.862 303.194C410.12 307.913 382.59 311.442 376.621 316.153C370.652 320.865 345.27 314.724 345.266 310.112C345.263 305.5 382.14 279.555 382.14 279.555Z" fill="url(#paint37_linear_168_4482)"/>
<path fill-rule="evenodd" clip-rule="evenodd" d="M406.556 286.59C392.267 291.895 376.387 296.899 367.036 297.112H366.765C355.081 297.112 332.926 281.899 320.692 272.785C304.141 260.452 288.426 246.462 285.43 242.201C279.931 234.338 275.708 224.582 275.667 224.486C275.609 224.317 275.692 224.132 275.856 224.061C276.02 223.99 276.211 224.057 276.295 224.215C276.337 224.314 280.519 234.005 285.993 241.806C291.571 249.758 346.692 296.445 366.751 296.445H367.012C376.428 296.249 392.532 291.115 406.914 285.748C408.646 281.246 409.587 276.48 409.697 271.658C398.357 274.201 386.817 276.126 378.425 275.923C355.057 275.369 326.716 246.177 318.097 225.606C309.478 205.036 288.543 195.953 288.543 195.953C232.294 180.754 257.223 248.82 269.594 262.301C281.966 275.782 330.874 311.92 363.122 313.861C368.298 314.174 374.167 313.287 380.377 311.579C389.91 307.167 401.182 299.466 406.556 286.59Z" fill="#1F2055"/>
<path fill-rule="evenodd" clip-rule="evenodd" d="M366.748 296.428C346.679 296.428 291.557 249.754 285.99 241.788C280.515 233.988 276.333 224.297 276.292 224.197C276.208 224.039 276.017 223.972 275.853 224.043C275.688 224.114 275.606 224.299 275.663 224.469C275.704 224.565 279.911 234.321 285.426 242.184C288.423 246.452 304.138 260.441 320.688 272.768C332.922 281.881 355.088 297.095 366.762 297.095H367.033C376.398 296.899 392.278 291.878 406.553 286.572C406.673 286.287 406.793 286.002 406.897 285.71C392.515 291.077 376.411 296.211 366.995 296.407L366.748 296.428Z" fill="#0E142D"/>
<path fill-rule="evenodd" clip-rule="evenodd" d="M281.821 224.001C286.323 225.991 299.038 207.049 299.038 207.049C293.244 199.249 284.656 195.781 284.656 195.781C274.443 192.262 224.06 208.757 224.06 208.757C224.06 208.757 219.937 210.451 213.373 213.445L213.105 213.565C217.878 215.304 231.899 220.194 240.394 220.802C250.738 221.544 277.326 222.008 281.821 224.001Z" fill="#1F2055"/>
<path fill-rule="evenodd" clip-rule="evenodd" d="M144.079 356.837C146.973 362.27 148.987 365.552 148.987 365.552L164.863 362.5L163.815 359.621C163.815 359.621 163.09 356.94 162.207 352.59C162.037 352.729 161.837 352.828 161.623 352.878L144.079 356.837Z" fill="#F37878"/>
<path fill-rule="evenodd" clip-rule="evenodd" d="M299.038 207.049C299.038 207.049 286.323 225.991 281.821 224.001C277.32 222.012 250.738 221.544 240.384 220.802C231.889 220.194 217.868 215.304 213.095 213.565C191.582 223.379 144.55 246.754 129.154 269.923C115.285 290.792 129.807 328.088 140.275 349.414C139.811 349.849 139.687 350.536 139.969 351.105L142.437 356.085C142.73 356.682 143.396 356.999 144.045 356.851H144.079L161.623 352.892C162.365 352.715 162.845 351.996 162.726 351.243L161.695 345.16C161.604 344.626 161.22 344.19 160.702 344.033C158.915 332.105 157.767 315.614 161.963 302.919C169.379 280.496 233.507 278.455 249.817 272.335C258.604 269.039 273.185 261.383 285.062 251.837C295.21 243.665 303.351 234.108 304.121 224.689C304.686 218.381 302.874 212.089 299.038 207.049Z" fill="#2F3E8B"/>
<path d="M141.34 348.964L158.715 344.933" stroke="#CAE2F2" stroke-width="2" stroke-linecap="round"/>
<path d="M150.028 343.59C150.028 343.59 129.33 291.139 150.279 275.016C171.228 258.892 250.58 235.72 259.278 221.73" stroke="#CAE2F2" stroke-width="2" stroke-linecap="round"/>
<path fill-rule="evenodd" clip-rule="evenodd" d="M141.76 385.102C146.206 384.734 171.506 380.731 171.506 380.731L164.863 362.518L148.986 365.569C148.986 365.569 142.684 377.253 134.344 377.8C128.577 378.185 123.783 382.497 121.378 385.119C121.384 385.106 137.309 385.473 141.76 385.102Z" fill="#2F3E8B"/>
<path fill-rule="evenodd" clip-rule="evenodd" d="M172.513 383.528L171.482 380.731C171.482 380.731 146.182 384.734 141.735 385.102C137.289 385.47 121.36 385.102 121.353 385.102C120.759 385.74 120.201 386.41 119.68 387.109C136.753 390.15 172.513 383.528 172.513 383.528Z" fill="#C9E1F2"/>
<path d="M145.87 370.164L148.756 372.26" stroke="#CAE2F2" stroke-width="2" stroke-linecap="round"/>
<path d="M144.065 372.26L146.993 374.367" stroke="#CAE2F2" stroke-width="2" stroke-linecap="round"/>
<path d="M142.402 373.882L144.907 375.93" stroke="#CAE2F2" stroke-width="2" stroke-linecap="round"/>
<path fill-rule="evenodd" clip-rule="evenodd" d="M208.758 160.475C211.538 149.355 240.174 137.124 240.174 130.172C240.174 123.221 233.233 104.444 238.556 89.8801C239.47 85.155 241.305 81.8148 244.054 81.4609C232.483 80.3887 199.225 79.2065 199.225 79.2065C199.225 79.2065 198.349 79.777 197.015 80.6052C201.878 80.2615 205.462 80.6052 206.823 82.0794C206.823 82.0794 202.744 96.6259 179.022 102.011C155.299 107.396 150.11 113.09 150.292 122.935C150.475 132.781 154.695 148.365 154.695 148.365C154.695 148.365 179.991 179.781 199.163 198.73C199.163 198.73 205.978 171.592 208.758 160.475Z" fill="white"/>
<path fill-rule="evenodd" clip-rule="evenodd" d="M288.175 195.596C288.361 192.815 279.649 145.001 279.649 145.001C279.649 145.001 249.065 131.471 242.398 118.495C238.174 110.286 236.982 98.0245 238.556 89.8801C233.233 104.444 240.174 123.214 240.174 130.172C240.174 137.131 211.538 149.355 208.758 160.475C205.978 171.595 199.135 198.712 199.135 198.712C206.792 206.273 213.473 211.853 217.174 212.647C230.164 215.427 287.98 198.376 288.175 195.596Z" fill="#C9E2F4"/>
<path fill-rule="evenodd" clip-rule="evenodd" d="M179.011 102.001C202.723 96.6261 206.813 82.0693 206.813 82.0693C205.438 80.6054 201.868 80.2411 197.005 80.5951C194.28 82.279 189.627 85.0247 186.517 86.145C181.884 87.8151 171.877 91.7979 167.798 92.4474C166.485 92.657 160.327 94.7155 152.234 97.4818C133.498 112.066 154.684 148.341 154.684 148.341C154.684 148.341 150.468 132.76 150.282 122.912C150.096 113.063 155.289 107.375 179.011 102.001Z" fill="#C9E2F4"/>
<path fill-rule="evenodd" clip-rule="evenodd" d="M189.761 64.3747C185.499 56.7767 184.386 55.385 184.386 55.385C184.386 55.385 189.297 49.0859 185.221 43.1546C184.668 42.3505 183.716 41.6598 182.492 41.0928L176.719 47.5361C176.719 47.5361 178.664 58.3781 177.063 57.6152C175.461 56.8523 174.214 54.3471 171.85 51.519C169.994 49.2956 160.681 56.5533 156.767 59.7664C157.454 68.4538 159.832 83.4023 168.107 83.1858C174.661 83.014 178.046 79.7803 178.046 79.7803C178.046 79.7803 182.702 93.124 181.936 95.2787C181.169 97.4333 185.761 98.7564 191.946 96.4608C198.132 94.1653 206.82 82.0758 206.82 82.0758C206.82 82.0758 194.025 71.9761 189.761 64.3747Z" fill="#F37878"/>
<path fill-rule="evenodd" clip-rule="evenodd" d="M171.853 51.5191C174.217 54.3473 175.468 56.849 177.066 57.6153C178.664 58.3817 176.723 47.5362 176.723 47.5362L182.479 41.1101C174.695 37.598 155.756 39.7046 156.478 53.7218C156.478 53.7218 156.478 56.2236 156.756 59.77C160.684 56.5535 169.997 49.2957 171.853 51.5191Z" fill="#F15859"/>
<path fill-rule="evenodd" clip-rule="evenodd" d="M178.039 79.7838C178.039 79.7838 181.166 76.447 182.348 73.4607C182.348 73.4607 182.764 78.8112 182.626 83.2614C182.489 87.7116 181.891 93.2752 181.891 93.2752C181.891 93.2752 180.018 85.1377 178.039 79.7838Z" fill="#F15859"/>
<path fill-rule="evenodd" clip-rule="evenodd" d="M182.534 47.8591C182.534 47.8591 184.503 44.079 184.664 46.4845C184.826 48.89 184.015 51.8591 184.015 51.8591L182.534 47.8591Z" fill="#F15859"/>
<path fill-rule="evenodd" clip-rule="evenodd" d="M194.094 52.8281L194.074 52.7731C194.005 52.5738 193.936 52.3642 193.878 52.1442C192.857 48.5553 192.345 44.841 192.355 41.1098C192.355 34.2678 166.636 43.3607 166.636 43.3607C166.822 42.6047 167.832 41.6631 169.386 40.6321C160.695 43.8074 150.121 47.9758 149.952 48.2301C149.674 48.6494 133.966 58.4467 147.797 57.8006C161.629 57.1546 167.953 48.9243 171.358 47.3263C174.764 45.7284 175.32 55.9449 177.059 57.6151C178.798 59.2852 179.073 49.3435 179.073 49.3435C179.073 49.3435 183.417 40.6012 185.537 43.7834C188.458 48.1614 184.379 55.3882 184.379 55.3882C184.379 55.3882 190.403 68.1787 191.252 68.6426C192.101 69.1065 197.366 68.1787 194.307 67.6907C191.249 67.2027 192.781 62.1305 194.651 59.0721C196.225 56.5223 194.926 55.1786 194.094 52.8281Z" fill="#1F2055"/>
<path fill-rule="evenodd" clip-rule="evenodd" d="M194.094 52.8274L194.074 52.7734L194.094 52.8274Z" fill="#2F3E8B"/>
<path fill-rule="evenodd" clip-rule="evenodd" d="M166.636 43.3609C166.636 43.3609 192.355 34.268 192.355 41.11C192.345 44.8412 192.857 48.5555 193.878 52.1444C193.799 51.8729 193.733 51.5911 193.675 51.2887C193.049 47.8832 194.926 50.0379 196.455 39.6048C197.984 29.1718 182.486 37.2371 180.541 37.0275C179.778 36.945 174.973 38.5773 169.392 40.6186C167.832 41.6632 166.822 42.6048 166.636 43.3609Z" fill="#2F3E8B"/>
<path fill-rule="evenodd" clip-rule="evenodd" d="M138.278 58.6361C145.495 57.2306 168.547 42.2168 168.547 42.2168L154.684 43.8525C154.684 43.8525 141.897 50.0382 137.656 52.8285C133.416 55.6189 138.275 58.6361 138.278 58.6361Z" fill="#E0A126"/>
<path fill-rule="evenodd" clip-rule="evenodd" d="M138.278 58.6359C138.278 58.6359 133.419 55.6187 137.656 52.8283C141.894 50.0379 154.684 43.8523 154.684 43.8523C154.684 43.8523 134.392 52.3472 132.027 54.0654C129.663 55.7836 131.818 58.0964 137.031 58.7218C137.432 58.7545 137.836 58.7279 138.23 58.6428H138.271L138.278 58.6359Z" fill="#FDB714"/>
<path fill-rule="evenodd" clip-rule="evenodd" d="M190.122 34.4469L153.99 48.1618C153.99 48.1618 141.017 34.4366 151.605 28.4056C162.193 22.3747 179.08 17.0035 190.122 34.4469Z" fill="#FDB714"/>
<path fill-rule="evenodd" clip-rule="evenodd" d="M161.54 24.0344C161.54 24.0344 177.97 26.7836 181.791 37.6084L164.059 44.3404C164.059 44.3404 152.691 29.6668 161.54 24.0344Z" fill="#E0A126"/>
<path fill-rule="evenodd" clip-rule="evenodd" d="M152.237 97.4917C137.718 102.447 116.975 109.664 106.772 112.519C106.772 112.519 94.8786 134.513 100.714 144.396C125.78 148.719 154.688 148.341 154.688 148.341C154.688 148.341 133.498 112.076 152.237 97.4917Z" fill="#C9E2F4"/>
<path fill-rule="evenodd" clip-rule="evenodd" d="M122.683 62.1548C122.683 62.1548 123.422 61.7837 123.051 57.7081C122.68 53.6325 113.958 53.7218 108.027 54.7527C102.095 55.7837 100.81 67.1686 100.81 71.0621C100.81 74.9556 74.4795 90.698 65.2112 120.166C64.7856 121.478 64.5812 122.852 64.6064 124.231C65.0428 128.726 69.8471 136.781 99.1708 135.571C99.9406 125.155 106.769 112.516 106.769 112.516C104.982 113.018 103.515 113.385 102.466 113.581C92.0882 115.53 92.6415 106.818 100.704 91.8045C108.766 76.7907 121.835 72.3439 122.852 71.8731C123.869 71.4023 123.78 70.8422 124.244 66.6841C124.708 62.526 122.683 62.1548 122.683 62.1548Z" fill="#F37878"/>
<path fill-rule="evenodd" clip-rule="evenodd" d="M64.6064 124.231C64.8951 135.138 81.6962 141.121 100.71 144.403C99.298 141.997 98.9268 138.904 99.1708 135.581C69.8471 136.781 65.0428 128.726 64.6064 124.231Z" fill="#F15859"/>
<path fill-rule="evenodd" clip-rule="evenodd" d="M122.683 62.1548C122.683 62.1548 114.804 61.8317 114.456 62.1548C114.109 62.4778 113.45 64.1479 114.319 64.7046C115.188 65.2613 118.941 66.6496 118.941 66.6496C118.941 66.6496 110.693 65.4675 109.594 66.9623L104.539 63.3816C104.539 63.3816 104.539 60.708 105.999 60.708C107.46 60.708 122.683 62.1548 122.683 62.1548Z" fill="#F15859"/>
<path fill-rule="evenodd" clip-rule="evenodd" d="M270.941 161.97L288.179 209.297C288.179 209.297 259.151 215.785 228.349 212.355L211.445 161.97H270.941Z" fill="#FDB714"/>
<path fill-rule="evenodd" clip-rule="evenodd" d="M288.179 209.311L324.317 182.994L310.231 145.001L270.941 161.98L288.179 209.311Z" fill="#E0A126"/>
<path fill-rule="evenodd" clip-rule="evenodd" d="M211.445 161.97C211.445 161.97 220.724 186.132 238.875 192.802C257.027 199.472 288.179 209.297 288.179 209.297L270.941 161.97H211.445Z" fill="#E0A126"/>
<path fill-rule="evenodd" clip-rule="evenodd" d="M311.901 143.101L270.941 156.029L206.813 158.74L207.923 172.846L273.952 170.255L315.791 154.08L311.901 143.101Z" fill="#FDB714"/>
<path fill-rule="evenodd" clip-rule="evenodd" d="M206.813 158.74L270.941 156.028L273.955 170.255C273.955 170.255 265.055 160.616 259.357 161.726C253.659 162.836 206.813 158.74 206.813 158.74Z" fill="#E0A126"/>
<path fill-rule="evenodd" clip-rule="evenodd" d="M268.529 137.54C268.529 137.54 259.182 140.015 247.157 143.726L218.675 156.028H270.941L311.901 143.1L268.529 137.54Z" fill="#E0A126"/>
<path fill-rule="evenodd" clip-rule="evenodd" d="M247.157 143.726C233.999 147.788 217.634 153.348 206.813 158.74L270.941 156.029H218.675L247.157 143.726Z" fill="#FDB714"/>
<path fill-rule="evenodd" clip-rule="evenodd" d="M245.549 81.6156C245.102 81.564 244.597 81.5125 244.044 81.4609C236.611 82.4197 235.724 105.516 242.398 118.496C249.071 131.475 279.649 145.001 279.649 145.001L295.196 106.471C274.746 93.8253 250.965 82.2444 245.549 81.6156Z" fill="white"/>
<path fill-rule="evenodd" clip-rule="evenodd" d="M326.912 134.066C326.331 127.747 311.867 116.76 295.21 106.472L279.65 145.001C279.65 145.001 289.176 149.658 292.708 153.527C293.11 153.97 293.469 154.45 293.78 154.96C294.487 156.143 295.034 157.414 295.406 158.74C297.811 164.761 301.856 176.768 299.921 185.775C297.234 198.283 293.997 206.163 288.155 209.311C282.313 212.459 263.165 212.603 263.165 212.603C263.165 212.603 271.704 216.771 279.072 217.465C286.44 218.16 296.306 205.05 296.306 205.05C325.438 185.403 328.211 148.152 326.912 134.066Z" fill="#F37878"/>
<path fill-rule="evenodd" clip-rule="evenodd" d="M299.946 185.775C301.88 176.768 297.842 164.761 295.43 158.74C299.533 172.575 292.578 200.465 291.048 201.991C289.289 203.751 277.24 202.641 274.921 202.733C272.601 202.826 279.096 208.757 279.096 208.757C277.797 210.703 263.189 212.603 263.189 212.603C263.189 212.603 282.337 212.462 288.179 209.311C294.021 206.16 297.258 198.283 299.946 185.775Z" fill="#F15859"/>
<defs>
<linearGradient id="paint0_linear_168_4482" x1="484.792" y1="60.4917" x2="270.408" y2="270.179" gradientUnits="userSpaceOnUse">
<stop stop-color="#2F3E8B"/>
<stop offset="0.25" stop-color="#2D3B85"/>
<stop offset="0.58" stop-color="#283174"/>
<stop offset="0.97" stop-color="#202158"/>
<stop offset="1" stop-color="#1F2055"/>
</linearGradient>
<linearGradient id="paint1_linear_168_4482" x1="486.239" y1="52.392" x2="244.654" y2="287.098" gradientUnits="userSpaceOnUse">
<stop stop-color="#C9E2F4"/>
<stop offset="0.25" stop-color="#CFE5F5"/>
<stop offset="0.58" stop-color="#E0EEF9"/>
<stop offset="0.97" stop-color="#FCFEFE"/>
<stop offset="1" stop-color="white"/>
</linearGradient>
<linearGradient id="paint2_linear_168_4482" x1="471.427" y1="52.0761" x2="299.24" y2="246.285" gradientUnits="userSpaceOnUse">
<stop stop-color="#D5D7D8"/>
<stop offset="0.43" stop-color="#DCDDDF"/>
<stop offset="1" stop-color="#ECEDF1"/>
</linearGradient>
<linearGradient id="paint3_linear_168_4482" x1="351.146" y1="362.246" x2="569.503" y2="186.81" gradientUnits="userSpaceOnUse">
<stop stop-color="#D5D7D8"/>
<stop offset="0.29" stop-color="#DBDDDE"/>
<stop offset="0.69" stop-color="#ECEDEE"/>
<stop offset="1" stop-color="white"/>
</linearGradient>
<radialGradient id="paint4_radial_168_4482" cx="0" cy="0" r="1" gradientUnits="userSpaceOnUse" gradientTransform="translate(312.548 178.736) rotate(13.3604) scale(198.891 191.141)">
<stop stop-color="#E20882"/>
<stop offset="0.55" stop-color="#FBAF4A"/>
<stop offset="1" stop-color="#FCF5A3"/>
</radialGradient>
<radialGradient id="paint5_radial_168_4482" cx="0" cy="0" r="1" gradientUnits="userSpaceOnUse" gradientTransform="translate(303.546 171.098) rotate(19.7253) scale(416.258 374.462)">
<stop stop-color="#C16428"/>
<stop offset="0.55" stop-color="#F78F30" stop-opacity="0.49"/>
<stop offset="1" stop-color="#FFEE99"/>
</radialGradient>
<radialGradient id="paint6_radial_168_4482" cx="0" cy="0" r="1" gradientUnits="userSpaceOnUse" gradientTransform="translate(78.8454 -88.6533) scale(241.865 241.865)">
<stop stop-color="#C16428"/>
<stop offset="0.55" stop-color="#F78F30" stop-opacity="0.49"/>
<stop offset="1" stop-color="#FFEE99"/>
</radialGradient>
<radialGradient id="paint7_radial_168_4482" cx="0" cy="0" r="1" gradientUnits="userSpaceOnUse" gradientTransform="translate(163.227 -88.6534) scale(241.865 241.865)">
<stop stop-color="#C16428"/>
<stop offset="0.55" stop-color="#F78F30" stop-opacity="0.49"/>
<stop offset="1" stop-color="#FFEE99"/>
</radialGradient>
<radialGradient id="paint8_radial_168_4482" cx="0" cy="0" r="1" gradientUnits="userSpaceOnUse" gradientTransform="translate(139.446 -88.6533) scale(241.869 241.868)">
<stop stop-color="#C16428"/>
<stop offset="0.55" stop-color="#F78F30" stop-opacity="0.49"/>
<stop offset="1" stop-color="#FFEE99"/>
</radialGradient>
<radialGradient id="paint9_radial_168_4482" cx="0" cy="0" r="1" gradientUnits="userSpaceOnUse" gradientTransform="translate(91.0203 -88.653) scale(241.868 241.868)">
<stop stop-color="#C16428"/>
<stop offset="0.55" stop-color="#F78F30" stop-opacity="0.49"/>
<stop offset="1" stop-color="#FFEE99"/>
</radialGradient>
<radialGradient id="paint10_radial_168_4482" cx="0" cy="0" r="1" gradientUnits="userSpaceOnUse" gradientTransform="translate(49.6343 -88.6535) scale(241.869 241.869)">
<stop stop-color="#C16428"/>
<stop offset="0.55" stop-color="#F78F30" stop-opacity="0.49"/>
<stop offset="1" stop-color="#FFEE99"/>
</radialGradient>
<radialGradient id="paint11_radial_168_4482" cx="0" cy="0" r="1" gradientUnits="userSpaceOnUse" gradientTransform="translate(178.012 -88.6534) scale(241.872 241.872)">
<stop stop-color="#C16428"/>
<stop offset="0.55" stop-color="#F78F30" stop-opacity="0.49"/>
<stop offset="1" stop-color="#FFEE99"/>
</radialGradient>
<radialGradient id="paint12_radial_168_4482" cx="0" cy="0" r="1" gradientUnits="userSpaceOnUse" gradientTransform="translate(210.622 -88.6536) scale(241.875 241.875)">
<stop stop-color="#C16428"/>
<stop offset="0.55" stop-color="#F78F30" stop-opacity="0.49"/>
<stop offset="1" stop-color="#FFEE99"/>
</radialGradient>
<radialGradient id="paint13_radial_168_4482" cx="0" cy="0" r="1" gradientUnits="userSpaceOnUse" gradientTransform="translate(161.856 -88.6537) scale(241.875 241.875)">
<stop stop-color="#C16428"/>
<stop offset="0.55" stop-color="#F78F30" stop-opacity="0.49"/>
<stop offset="1" stop-color="#FFEE99"/>
</radialGradient>
<radialGradient id="paint14_radial_168_4482" cx="0" cy="0" r="1" gradientUnits="userSpaceOnUse" gradientTransform="translate(12.0368 -88.6533) scale(241.868 241.868)">
<stop stop-color="#C16428"/>
<stop offset="0.55" stop-color="#F78F30" stop-opacity="0.49"/>
<stop offset="1" stop-color="#FFEE99"/>
</radialGradient>
<radialGradient id="paint15_radial_168_4482" cx="0" cy="0" r="1" gradientUnits="userSpaceOnUse" gradientTransform="translate(353.255 86.7878) rotate(2.0908) scale(137.445 137.482)">
<stop stop-color="#E20882"/>
<stop offset="0.55" stop-color="#FBAF4A"/>
<stop offset="1" stop-color="#FCF5A3"/>
</radialGradient>
<radialGradient id="paint16_radial_168_4482" cx="0" cy="0" r="1" gradientUnits="userSpaceOnUse" gradientTransform="translate(274.144 91.8185) rotate(2.19814) scale(181.949 181.972)">
<stop stop-color="#E20882"/>
<stop offset="0.55" stop-color="#FBAF4A"/>
<stop offset="1" stop-color="#FCF5A3"/>
</radialGradient>
<radialGradient id="paint17_radial_168_4482" cx="0" cy="0" r="1" gradientUnits="userSpaceOnUse" gradientTransform="translate(267.316 61.4123) rotate(3.2627) scale(414.304 413.622)">
<stop stop-color="#C16428"/>
<stop offset="0.55" stop-color="#F78F30" stop-opacity="0.49"/>
<stop offset="1" stop-color="#FFEE99"/>
</radialGradient>
<radialGradient id="paint18_radial_168_4482" cx="0" cy="0" r="1" gradientUnits="userSpaceOnUse" gradientTransform="translate(271.729 61.4112) rotate(3.68822) scale(414.491 413.436)">
<stop stop-color="#C16428"/>
<stop offset="0.55" stop-color="#F78F30" stop-opacity="0.49"/>
<stop offset="1" stop-color="#FFEE99"/>
</radialGradient>
<radialGradient id="paint19_radial_168_4482" cx="0" cy="0" r="1" gradientUnits="userSpaceOnUse" gradientTransform="translate(251.124 60.3103) rotate(1.75366) scale(413.826 414.1)">
<stop stop-color="#C16428"/>
<stop offset="0.55" stop-color="#F78F30" stop-opacity="0.49"/>
<stop offset="1" stop-color="#FFEE99"/>
</radialGradient>
<radialGradient id="paint20_radial_168_4482" cx="0" cy="0" r="1" gradientUnits="userSpaceOnUse" gradientTransform="translate(251.121 60.7128) rotate(1.96048) scale(413.874 414.051)">
<stop stop-color="#C16428"/>
<stop offset="0.55" stop-color="#F78F30" stop-opacity="0.49"/>
<stop offset="1" stop-color="#FFEE99"/>
</radialGradient>
<radialGradient id="paint21_radial_168_4482" cx="0" cy="0" r="1" gradientUnits="userSpaceOnUse" gradientTransform="translate(251.88 61.4176) rotate(2.3232) scale(413.972 413.953)">
<stop stop-color="#C16428"/>
<stop offset="0.55" stop-color="#F78F30" stop-opacity="0.49"/>
<stop offset="1" stop-color="#FFEE99"/>
</radialGradient>
<radialGradient id="paint22_radial_168_4482" cx="0" cy="0" r="1" gradientUnits="userSpaceOnUse" gradientTransform="translate(251.109 59.1937) rotate(1.31204) scale(413.741 414.186)">
<stop stop-color="#C16428"/>
<stop offset="0.55" stop-color="#F78F30" stop-opacity="0.49"/>
<stop offset="1" stop-color="#FFEE99"/>
</radialGradient>
<radialGradient id="paint23_radial_168_4482" cx="0" cy="0" r="1" gradientUnits="userSpaceOnUse" gradientTransform="translate(252.845 61.4078) rotate(2.3657) scale(413.985 413.941)">
<stop stop-color="#C16428"/>
<stop offset="0.55" stop-color="#F78F30" stop-opacity="0.49"/>
<stop offset="1" stop-color="#FFEE99"/>
</radialGradient>
<radialGradient id="paint24_radial_168_4482" cx="0" cy="0" r="1" gradientUnits="userSpaceOnUse" gradientTransform="translate(251.077 60.1228) rotate(1.78101) scale(413.832 414.094)">
<stop stop-color="#C16428"/>
<stop offset="0.55" stop-color="#F78F30" stop-opacity="0.49"/>
<stop offset="1" stop-color="#FFEE99"/>
</radialGradient>
<radialGradient id="paint25_radial_168_4482" cx="0" cy="0" r="1" gradientUnits="userSpaceOnUse" gradientTransform="translate(266.182 61.4211) rotate(3.17917) scale(414.27 413.656)">
<stop stop-color="#C16428"/>
<stop offset="0.55" stop-color="#F78F30" stop-opacity="0.49"/>
<stop offset="1" stop-color="#FFEE99"/>
</radialGradient>
<radialGradient id="paint26_radial_168_4482" cx="0" cy="0" r="1" gradientUnits="userSpaceOnUse" gradientTransform="translate(331.464 83.8603) rotate(2.98567) scale(278.495 278.184)">
<stop stop-color="#C16428"/>
<stop offset="0.55" stop-color="#F78F30" stop-opacity="0.49"/>
<stop offset="1" stop-color="#FFEE99"/>
</radialGradient>
<radialGradient id="paint27_radial_168_4482" cx="0" cy="0" r="1" gradientUnits="userSpaceOnUse" gradientTransform="translate(339.252 80.5444) rotate(2.01708) scale(278.293 278.393)">
<stop stop-color="#C16428"/>
<stop offset="0.55" stop-color="#F78F30" stop-opacity="0.49"/>
<stop offset="1" stop-color="#FFEE99"/>
</radialGradient>
<radialGradient id="paint28_radial_168_4482" cx="0" cy="0" r="1" gradientUnits="userSpaceOnUse" gradientTransform="translate(326.191 83.8656) rotate(3.73267) scale(278.708 277.971)">
<stop stop-color="#C16428"/>
<stop offset="0.55" stop-color="#F78F30" stop-opacity="0.49"/>
<stop offset="1" stop-color="#FFEE99"/>
</radialGradient>
<radialGradient id="paint29_radial_168_4482" cx="0" cy="0" r="1" gradientUnits="userSpaceOnUse" gradientTransform="translate(332.462 83.882) rotate(2.85753) scale(278.466 278.219)">
<stop stop-color="#C16428"/>
<stop offset="0.55" stop-color="#F78F30" stop-opacity="0.49"/>
<stop offset="1" stop-color="#FFEE99"/>
</radialGradient>
<radialGradient id="paint30_radial_168_4482" cx="0" cy="0" r="1" gradientUnits="userSpaceOnUse" gradientTransform="translate(339.178 82.272) rotate(2.1614) scale(278.318 278.367)">
<stop stop-color="#C16428"/>
<stop offset="0.55" stop-color="#F78F30" stop-opacity="0.49"/>
<stop offset="1" stop-color="#FFEE99"/>
</radialGradient>
<radialGradient id="paint31_radial_168_4482" cx="0" cy="0" r="1" gradientUnits="userSpaceOnUse" gradientTransform="translate(339.211 76.5864) rotate(1.70651) scale(278.244 278.442)">
<stop stop-color="#C16428"/>
<stop offset="0.55" stop-color="#F78F30" stop-opacity="0.49"/>
<stop offset="1" stop-color="#FFEE99"/>
</radialGradient>
<radialGradient id="paint32_radial_168_4482" cx="0" cy="0" r="1" gradientUnits="userSpaceOnUse" gradientTransform="translate(323.473 83.867) rotate(4.30069) scale(278.902 277.777)">
<stop stop-color="#C16428"/>
<stop offset="0.55" stop-color="#F78F30" stop-opacity="0.49"/>
<stop offset="1" stop-color="#FFEE99"/>
</radialGradient>
<radialGradient id="paint33_radial_168_4482" cx="0" cy="0" r="1" gradientUnits="userSpaceOnUse" gradientTransform="translate(324.065 83.8688) rotate(4.16345) scale(278.853 277.827)">
<stop stop-color="#C16428"/>
<stop offset="0.55" stop-color="#F78F30" stop-opacity="0.49"/>
<stop offset="1" stop-color="#FFEE99"/>
</radialGradient>
<radialGradient id="paint34_radial_168_4482" cx="0" cy="0" r="1" gradientUnits="userSpaceOnUse" gradientTransform="translate(333.469 83.9142) rotate(2.74565) scale(278.44 278.245)">
<stop stop-color="#C16428"/>
<stop offset="0.55" stop-color="#F78F30" stop-opacity="0.49"/>
<stop offset="1" stop-color="#FFEE99"/>
</radialGradient>
<radialGradient id="paint35_radial_168_4482" cx="0" cy="0" r="1" gradientUnits="userSpaceOnUse" gradientTransform="translate(339.229 73.7672) rotate(1.46907) scale(278.212 278.474)">
<stop stop-color="#C16428"/>
<stop offset="0.55" stop-color="#F78F30" stop-opacity="0.49"/>
<stop offset="1" stop-color="#FFEE99"/>
</radialGradient>
<linearGradient id="paint36_linear_168_4482" x1="317.007" y1="130.076" x2="399.634" y2="134.226" gradientUnits="userSpaceOnUse">
<stop stop-color="#6F1911"/>
<stop offset="1" stop-color="#030303"/>
</linearGradient>
<linearGradient id="paint37_linear_168_4482" x1="345.27" y1="292.675" x2="415.447" y2="292.675" gradientUnits="userSpaceOnUse">
<stop stop-color="#D5D7D8"/>
<stop offset="0.29" stop-color="#DBDDDE"/>
<stop offset="0.69" stop-color="#ECEDEE"/>
<stop offset="1" stop-color="white"/>
</linearGradient>
</defs>
</svg>
