<svg width="554" height="411" viewBox="0 0 554 411" fill="none" xmlns="http://www.w3.org/2000/svg">
<path fill-rule="evenodd" clip-rule="evenodd" d="M512.843 382.96H476.337L471.474 311.824H517.995L512.843 382.96Z" fill="#D5D7D8"/>
<path fill-rule="evenodd" clip-rule="evenodd" d="M484.853 296.214C484.853 296.214 490.642 267.601 479.061 256.031C467.481 244.462 460.877 240.321 460.877 240.321C460.877 240.321 439.359 274.718 484.853 296.214Z" fill="#ECEDF1"/>
<path fill-rule="evenodd" clip-rule="evenodd" d="M487.5 216.397C487.5 216.397 493.288 187.783 481.708 176.21C470.127 164.637 463.524 160.5 463.524 160.5C463.524 160.5 442.006 194.896 487.5 216.397Z" fill="#ECEDF1"/>
<path fill-rule="evenodd" clip-rule="evenodd" d="M491.8 169.872C491.8 169.872 496.875 151.24 487.278 140.656C477.681 130.073 467.316 127.427 467.316 127.427C467.316 127.427 465.992 156.754 491.8 169.872Z" fill="#D5D7D8"/>
<path fill-rule="evenodd" clip-rule="evenodd" d="M501.064 281.167C501.064 281.167 498.747 239.658 526.377 222.295C526.377 222.295 526.555 271.24 501.064 281.167Z" fill="#ECEDF1"/>
<path fill-rule="evenodd" clip-rule="evenodd" d="M494.474 256.139C494.474 256.139 491.14 227.256 470.037 218.564C470.037 218.558 475.728 252.318 494.474 256.139Z" fill="#D5D7D8"/>
<path fill-rule="evenodd" clip-rule="evenodd" d="M506.192 207.247C506.192 207.247 489.483 177.644 523.393 155.649C523.393 155.649 536.412 192.678 506.192 207.247Z" fill="#D5D7D8"/>
<path d="M486.301 153.333C486.301 153.333 495.659 171.636 495.659 199.64V241.327" stroke="#D5D7D8" stroke-width="2" stroke-linecap="round"/>
<path d="M477.795 194.348C477.795 194.348 485.624 208.348 487.5 216.397C489.375 224.446 490.982 250.241 490.982 276.37V333.26" stroke="#D5D7D8" stroke-width="2" stroke-linecap="round"/>
<path d="M475.148 274.829C475.148 274.829 483.903 288.829 484.853 296.215C485.803 303.6 484.853 334.085 484.853 334.085" stroke="#D5D7D8" stroke-width="2" stroke-linecap="round"/>
<path d="M487.086 245.704C487.086 245.704 492.349 252.1 494.474 256.139C496.599 260.179 498.336 274.653 498.336 281.174V329.793" stroke="#D5D7D8" stroke-width="2" stroke-linecap="round"/>
<path d="M512.809 184.919C512.809 184.919 506.192 197.818 506.192 207.247V329.779" stroke="#D5D7D8" stroke-width="2" stroke-linecap="round"/>
<path d="M272.158 0H271.518V18.1913H272.158V0Z" fill="#D5D7D8"/>
<path d="M300.151 18.1914H299.511V36.3827H300.151V18.1914Z" fill="#D5D7D8"/>
<path d="M281.074 36.3826H280.435V54.5739H281.074V36.3826Z" fill="#D5D7D8"/>
<path d="M328.046 17.8716H246.104V18.5112H328.046V17.8716Z" fill="#D5D7D8"/>
<path d="M319.355 36.0627H237.413V36.7023H319.355V36.0627Z" fill="#D5D7D8"/>
<path d="M341.479 54.2542H259.536V54.8937H341.479V54.2542Z" fill="#D5D7D8"/>
<path d="M325.396 160.073H324.756V178.264H325.396V160.073Z" fill="#D5D7D8"/>
<path d="M353.386 178.264H352.747V196.455H353.386V178.264Z" fill="#D5D7D8"/>
<path d="M334.313 196.455H333.673V214.647H334.313V196.455Z" fill="#D5D7D8"/>
<path d="M381.285 177.944H299.343V178.584H381.285V177.944Z" fill="#D5D7D8"/>
<path d="M372.594 196.135H290.651V196.775H372.594V196.135Z" fill="#D5D7D8"/>
<path d="M394.714 214.326H312.771V214.966H394.714V214.326Z" fill="#D5D7D8"/>
<path d="M100.753 75.4717H100.113V93.663H100.753V75.4717Z" fill="#D5D7D8"/>
<path d="M128.746 93.6631H128.106V111.854H128.746V93.6631Z" fill="#D5D7D8"/>
<path d="M109.67 111.854H109.03V130.046H109.67V111.854Z" fill="#D5D7D8"/>
<path d="M156.642 93.343H74.7V93.9826H156.642V93.343Z" fill="#D5D7D8"/>
<path d="M147.954 111.535H66.0112V112.174H147.954V111.535Z" fill="#D5D7D8"/>
<path d="M170.074 129.726H88.1316V130.365H170.074V129.726Z" fill="#D5D7D8"/>
<path fill-rule="evenodd" clip-rule="evenodd" d="M470.757 26.9136V82.3492H381.78V26.9136L470.757 26.9136Z" fill="#ECEDF1"/>
<path d="M478.438 88.9903H374.099V20.2681H478.438V88.9903ZM374.419 88.6537H478.135V20.6081H374.419V88.6537Z" fill="#DFE1EE"/>
<path fill-rule="evenodd" clip-rule="evenodd" d="M423.34 392.062C423.34 392.062 473.825 391.702 470.036 399.734C466.248 407.766 361.064 409.812 336.013 410.22C310.963 410.627 160.164 402.299 139.741 400.744C119.317 399.188 84.357 388.288 157.409 387.871C200.667 387.618 423.34 392.062 423.34 392.062Z" fill="#DCDCDD"/>
<path d="M91.6404 105.216C91.6404 105.216 270.669 107.047 254.926 151.61C239.183 196.172 151.142 207.49 205.789 230.976" stroke="#1F2055" stroke-width="2" stroke-linecap="round" stroke-dasharray="8 8"/>
<path fill-rule="evenodd" clip-rule="evenodd" d="M140.751 228.303C122.405 224.674 113.69 211.057 113.69 211.057C113.69 211.057 123.119 253.176 130.76 281.682C135.073 297.799 134.043 327.321 132.336 349.939C131.429 350.055 130.751 350.827 130.753 351.74V355.066C130.754 355.761 131.155 356.394 131.784 356.692L148.22 358.735C148.767 358.546 149.189 358.105 149.355 357.55L150.308 354.346C150.502 353.693 150.312 352.985 149.816 352.518C155.514 330.58 167.121 287.152 167.795 270.196L168.704 248.093C168.704 248.093 159.093 231.935 140.751 228.303Z" fill="#2F3E8B"/>
<path fill-rule="evenodd" clip-rule="evenodd" d="M200.499 364.175C202.091 364.088 202.361 360.381 202.361 358.789C202.361 357.197 200.499 356.679 200.499 356.679C200.499 356.679 201.408 326.517 200.499 314.173C199.589 301.829 168.717 248.093 168.717 248.093C168.717 248.093 184.153 298.924 189.06 317.808C191.962 328.988 194.111 343.92 195.097 356.655C194.611 356.694 194.159 356.924 193.843 357.297C193.527 357.669 193.373 358.151 193.414 358.638L193.75 362.6C193.831 363.551 194.627 364.283 195.582 364.283L200.445 364.246C200.354 364.195 200.371 364.195 200.499 364.175Z" fill="#2F3E8B"/>
<path fill-rule="evenodd" clip-rule="evenodd" d="M211.365 362.731L211.894 359.338C212.021 358.534 211.603 357.743 210.867 357.396C213.026 335.04 216.235 291.807 213.032 275.508C208.853 254.267 202.317 206.698 202.317 206.698L113.69 211.074C113.69 211.074 122.405 224.691 140.751 228.32C159.097 231.949 168.717 248.11 168.717 248.11C168.717 248.11 199.593 301.849 200.499 314.197C201.405 326.544 200.499 356.702 200.499 356.702C200.499 356.702 202.361 357.224 202.361 358.813C202.361 360.402 202.092 364.105 200.499 364.199C200.371 364.199 200.354 364.233 200.431 364.273L210.177 364.199C210.813 363.966 211.27 363.402 211.365 362.731Z" fill="#1F2055"/>
<path fill-rule="evenodd" clip-rule="evenodd" d="M131.258 362.624L146.748 365.219V365.205C146.859 364.327 147.395 362.048 148.233 358.739L131.797 356.696C131.612 358.759 131.427 360.745 131.258 362.624Z" fill="#F37878"/>
<path fill-rule="evenodd" clip-rule="evenodd" d="M200.431 364.25L195.569 364.287C195.7 367.262 195.751 370.009 195.714 372.436C196.724 372.392 198.121 372.339 199.734 372.275L200.431 364.25Z" fill="#F37878"/>
<path fill-rule="evenodd" clip-rule="evenodd" d="M209.399 370.642C209.557 369.632 209.833 367.377 210.177 364.176L200.432 364.25L199.735 372.275C202.617 372.161 206.163 372.029 209.305 371.938C209.299 371.504 209.33 371.071 209.399 370.642Z" fill="#F15859"/>
<path d="M196.687 356.685L209.308 357.298" stroke="#0E142D" stroke-width="2" stroke-linecap="round"/>
<path d="M202.998 355.389C202.998 355.389 203.695 311.816 199.735 293.662C195.775 275.508 185.541 231.935 185.541 231.935" stroke="#0E142D" stroke-width="2" stroke-linecap="round"/>
<path d="M133.03 350.125L148.227 352.212" stroke="#CAE2F2" stroke-width="2" stroke-linecap="round"/>
<path d="M140.629 348.311C140.629 348.311 151.826 300.2 151.826 273.149C151.826 246.097 144.889 229.387 144.889 229.387" stroke="#CAE2F2" stroke-width="2" stroke-linecap="round"/>
<path fill-rule="evenodd" clip-rule="evenodd" d="M211.759 130.577C218.494 131.19 235.058 138.246 228.495 113.84C220.932 98.5607 208.436 82.3892 204.95 78.4473L197.151 84.1699C202.778 96.2346 209.493 115.719 209.493 115.719C209.493 115.719 198.596 107.003 190.561 99.2407C182.527 91.4781 158.551 84.3988 158.551 84.3988C158.551 84.3988 134.575 79.4336 121.324 96.1403C120.068 97.7225 118.967 100.032 118.048 102.917C118.048 102.917 140.757 113.015 151.109 142.248C161.46 171.481 167.636 204.884 202.324 206.699L196.495 145.927L193.599 115.197C193.599 115.197 205.041 129.948 211.759 130.577Z" fill="white"/>
<path fill-rule="evenodd" clip-rule="evenodd" d="M233.869 137.212C235.688 131.51 232.947 122.822 228.482 113.827C235.045 138.232 218.467 131.177 211.746 130.564C205.024 129.951 193.585 115.197 193.585 115.197L196.481 145.928C196.481 145.928 228.967 152.6 233.869 137.212Z" fill="#C9E2F4"/>
<path fill-rule="evenodd" clip-rule="evenodd" d="M151.102 142.248C140.751 113.019 118.041 102.917 118.041 102.917C109.074 130.547 113.69 211.058 113.69 211.058C113.69 211.058 124.405 219.591 148.937 222.14C173.469 224.688 202.334 206.705 202.334 206.705C167.629 204.884 161.454 171.481 151.102 142.248Z" fill="#C9E2F4"/>
<path d="M0 368.168C0 368.168 16.3454 368.024 46.1739 328.053C76.0024 288.082 103.699 250.08 168.717 240.287" stroke="#222154" stroke-width="19"/>
<path d="M180.001 276.663C190.892 275.438 198.018 259.312 195.918 240.645C193.817 221.978 183.286 207.839 172.395 209.064C161.504 210.29 154.378 226.416 156.479 245.083C158.579 263.75 169.111 277.889 180.001 276.663Z" fill="#FDB714"/>
<path fill-rule="evenodd" clip-rule="evenodd" d="M204.314 246.862C208.143 247.481 214.554 254.755 220.111 263.111L212.177 192.645L177.715 198.081C173.233 198.576 169.478 202.413 166.801 208.446C166.801 208.446 195.596 245.444 204.314 246.862Z" fill="#F7B219"/>
<path fill-rule="evenodd" clip-rule="evenodd" d="M162.983 244.572C165.737 269.025 176.789 287.856 187.686 286.63C187.922 286.603 188.157 286.563 188.39 286.519L222.145 281.194L220.124 263.11C214.568 254.755 208.156 247.481 204.328 246.861C195.609 245.444 166.815 208.446 166.815 208.446C162.979 217.067 161.363 230.188 162.983 244.572Z" fill="#E0A126"/>
<path d="M222.136 281.196C233.026 279.97 239.625 259.155 236.874 234.703C234.122 210.252 223.063 191.424 212.172 192.649C201.281 193.874 194.683 214.69 197.434 239.141C200.186 263.593 211.245 282.421 222.136 281.196Z" fill="#FDB714"/>
<path d="M217.087 227.89C218.695 227.709 219.731 225.19 219.402 222.264C219.073 219.337 217.502 217.112 215.895 217.293C214.287 217.473 213.25 219.992 213.58 222.919C213.909 225.845 215.479 228.071 217.087 227.89Z" fill="#E0A126"/>
<path d="M221.31 260.164C222.918 259.984 223.955 257.465 223.626 254.538C223.296 251.612 221.726 249.386 220.118 249.567C218.51 249.748 217.474 252.267 217.803 255.193C218.132 258.12 219.703 260.345 221.31 260.164Z" fill="#E0A126"/>
<path fill-rule="evenodd" clip-rule="evenodd" d="M202.317 196.852C202.317 196.852 195.044 210.398 194.293 220.271C193.542 230.145 197.347 205.564 194.293 204.339C191.238 203.114 173.758 198.62 202.317 196.852Z" fill="#FFEE99"/>
<path fill-rule="evenodd" clip-rule="evenodd" d="M254.673 215.124C254.162 213.623 252.906 212.623 251.585 212.798L216.164 217.427C215.002 217.578 214.268 219.295 214.524 221.261C214.592 221.787 214.733 222.301 214.941 222.789C221.69 222.139 251.474 219.11 254.673 215.124Z" fill="#2F3E8B"/>
<path fill-rule="evenodd" clip-rule="evenodd" d="M259.092 249.565C259.19 249.087 259.207 248.597 259.142 248.114C258.886 246.148 257.411 244.717 255.849 244.923L220.42 249.551C219.575 249.662 218.962 250.595 218.784 251.847C225.424 251.955 250.653 252.18 259.092 249.565Z" fill="#2F3E8B"/>
<path fill-rule="evenodd" clip-rule="evenodd" d="M217.097 224.546L252.525 219.918C254.088 219.712 255.145 217.952 254.882 215.986C254.842 215.693 254.774 215.404 254.677 215.124C251.468 219.11 221.676 222.15 214.941 222.789C215.44 223.93 216.265 224.654 217.097 224.546Z" fill="#1F2055"/>
<path fill-rule="evenodd" clip-rule="evenodd" d="M218.777 253.385C219.037 255.351 220.188 256.822 221.35 256.671L256.782 252.042C257.94 251.891 258.802 250.881 259.092 249.565C250.653 252.18 225.418 251.955 218.784 251.847C218.711 252.357 218.709 252.875 218.777 253.385Z" fill="#1F2055"/>
<path fill-rule="evenodd" clip-rule="evenodd" d="M192.963 62.7303C192.69 66.9954 195.96 82.157 204.951 78.4339C199.411 72.1693 198.048 63.3665 197.957 60.7341C197.866 58.1017 192.508 48.5684 189.919 48.5415C189.667 48.547 189.437 48.687 189.316 48.9084C190.498 51.9852 193.175 59.3943 192.963 62.7303Z" fill="#F37878"/>
<path fill-rule="evenodd" clip-rule="evenodd" d="M187.423 238.2C191.966 245.007 201.25 245.734 201.25 245.734C201.738 242.263 193.949 231.232 193.542 230.145C193.134 229.057 199.532 230.145 200.896 229.189C202.26 228.233 199.671 226.536 193.336 224.425C188.871 222.938 186.602 221.483 181.173 215.125L173.58 222.678C173.58 222.678 182.884 231.39 187.423 238.2Z" fill="#F37878"/>
<path fill-rule="evenodd" clip-rule="evenodd" d="M201.25 245.734C201.25 245.734 191.966 245.007 187.423 238.201C182.881 231.394 173.58 222.679 173.58 222.679C178.075 227.25 185.746 239.315 187.75 241.378C190.067 243.758 200.758 249.205 201.25 245.734Z" fill="#F15859"/>
<path fill-rule="evenodd" clip-rule="evenodd" d="M190.057 63.1849C189.046 63.7302 186.878 69.7188 192.326 75.7108C193.65 77.165 195.357 80.2754 197.148 84.15L204.947 78.4273C195.956 82.1504 192.687 66.9821 192.959 62.7237C193.171 59.3878 190.494 51.9786 189.312 48.9019C187.824 51.1774 190.057 63.1849 190.057 63.1849Z" fill="#F15859"/>
<path fill-rule="evenodd" clip-rule="evenodd" d="M181.173 215.125C178.897 212.465 176.068 208.944 172.29 204.204C159.494 188.137 147.637 149.604 144.095 125.229C140.552 100.853 126.248 93.7742 126.248 93.7742C118.617 95.0466 108.326 105.246 110.323 143.009C112.32 180.772 167.933 219.046 171.748 221.157C172.423 221.581 173.039 222.093 173.58 222.678L181.173 215.125Z" fill="white"/>
<path fill-rule="evenodd" clip-rule="evenodd" d="M170.263 51.4295C165.885 49.9887 161.952 54.1966 161.952 54.1966C161.946 52.9892 162.029 51.783 162.201 50.5879C162.04 50.8168 161.952 50.9515 161.952 50.9515C161.952 50.9515 159.639 45.1649 157.117 48.6355C154.594 52.1061 158.41 56.3981 158.41 56.3981C158.682 59.8721 151.055 79.0699 149.355 83.1532C147.654 87.2364 151.123 89.8857 157.184 94.5244C158.018 95.1767 158.976 95.6541 159.999 95.9281C160.046 95.9281 168.024 94.888 164.131 87.738C160.238 80.5881 162.541 74.7577 162.541 74.7577L167.195 77.9119C167.195 77.9119 173.856 81.4532 177.56 78.7366C181.264 76.0201 184.968 53.9306 184.968 53.9306C184.793 53.5334 184.632 53.153 184.443 52.7794C180.419 53.6613 173.701 52.5606 170.263 51.4295Z" fill="#F37878"/>
<path fill-rule="evenodd" clip-rule="evenodd" d="M164.131 87.7379C168.024 94.8946 160.05 95.9213 159.999 95.928C165.077 97.2341 169.576 92.2251 168.418 89.623C167.054 86.5597 167.189 77.9118 167.189 77.9118L162.535 74.7576C162.535 74.7576 160.228 80.5677 164.131 87.7379Z" fill="#F15859"/>
<path fill-rule="evenodd" clip-rule="evenodd" d="M162.201 50.5878C162.029 51.7829 161.946 52.989 161.952 54.1964C161.952 54.1964 165.885 49.9886 170.263 51.4293C173.701 52.5604 180.419 53.6612 184.446 52.7758C175.277 33.3963 164.006 48.0294 162.201 50.5878Z" fill="#F15859"/>
<path fill-rule="evenodd" clip-rule="evenodd" d="M193.781 31.323C189.333 30.0505 185.426 32.8647 185.426 32.8647C185.426 32.8647 180.712 22.6077 174.075 30.3232C167.438 38.0387 166.63 34.6791 161.952 34.77C157.275 34.8609 154.642 35.8607 154.823 39.7622C155.005 43.6637 144.741 45.1179 148.92 51.7461L149.846 53.207C146.728 46.5418 151.328 50.4063 152.965 45.9123C154.601 41.4184 161.545 47.5483 164.303 44.6197C167.061 41.691 169.99 45.505 172.576 49.3325C175.163 53.1599 182.066 54.6444 182.066 54.6444C184.342 54.5803 186.458 53.4603 187.79 51.6148C193.781 43.667 198.229 32.592 193.781 31.323Z" fill="#2F3E8B"/>
<path fill-rule="evenodd" clip-rule="evenodd" d="M172.577 49.3187C169.99 45.5047 167.057 41.6941 164.303 44.6059C161.548 47.5177 154.598 41.408 152.965 45.8986C151.332 50.3892 146.728 46.5281 149.847 53.1933C153.551 59.0505 156.208 63.3695 154.814 69.0147C154.814 69.0147 159.774 57.7545 159.228 56.6639C159.228 56.6639 155.915 53.1226 156.935 50.3555C157.955 47.5884 161.06 49.5173 161.952 50.9446V54.1897C161.952 54.1897 164.269 48.467 166.946 49.0157C168.923 49.4163 176.038 54.9269 182.066 54.6239C182.066 54.6239 175.166 53.1293 172.577 49.3187Z" fill="#1F2055"/>
<path fill-rule="evenodd" clip-rule="evenodd" d="M200.637 389.524L202.186 390.577H237.412C233.459 387.568 227.196 383.091 223.02 381.364C216.912 378.819 209.379 377.698 209.305 371.938C206.163 372.039 202.617 372.171 199.734 372.275C199.734 372.275 197.64 387.48 200.637 389.524Z" fill="#1F2055"/>
<path fill-rule="evenodd" clip-rule="evenodd" d="M202.186 390.577L200.637 389.524C197.64 387.48 199.734 372.275 199.734 372.275C198.121 372.339 196.704 372.393 195.714 372.436C195.68 374.527 195.582 376.372 195.414 377.903C194.741 384.138 194.209 388.174 193.868 390.577H202.186Z" fill="#2D4087"/>
<path fill-rule="evenodd" clip-rule="evenodd" d="M240.076 392.634C239.419 392.119 238.5 391.402 237.412 390.577H193.868C193.572 392.657 193.417 393.516 193.417 393.516H239.766C239.976 393.517 240.164 393.384 240.234 393.185C240.304 392.986 240.24 392.765 240.076 392.634Z" fill="#C9E1F2"/>
<path d="M213.393 377.583L211.123 379.99" stroke="#CAE2F2" stroke-width="2" stroke-linecap="round"/>
<path d="M215.861 378.708L213.813 381.427" stroke="#CAE2F2" stroke-width="2" stroke-linecap="round"/>
<path d="M217.996 379.506L216.097 382.306" stroke="#CAE2F2" stroke-width="2" stroke-linecap="round"/>
<path fill-rule="evenodd" clip-rule="evenodd" d="M173.539 392.045C171.182 387.803 166.784 380.889 162.905 380.263C157.284 379.357 146.047 371.026 146.741 365.219L131.251 362.624C130.53 370.248 129.854 376.089 129.517 378.866C131.611 380.34 148.374 391.92 160.585 392.048C166.245 392.105 170.505 391.971 173.539 392.045Z" fill="#2F3E8B"/>
<path fill-rule="evenodd" clip-rule="evenodd" d="M154.009 393.516C163.346 395.434 170.071 395.552 173.233 395.451C173.683 395.438 174.095 395.194 174.322 394.805C174.549 394.416 174.559 393.937 174.348 393.539C174.119 393.102 173.846 392.593 173.539 392.045C170.509 391.971 166.246 392.105 160.592 392.045C148.395 391.917 131.632 380.337 129.524 378.862C129.389 380.003 129.309 380.623 129.309 380.623C129.309 380.623 140.751 390.789 154.009 393.516Z" fill="#C9E1F2"/>
<path d="M149.543 371.699L142.68 372.844" stroke="#CAE2F2" stroke-width="2" stroke-linecap="round"/>
<path d="M151.372 373.608L144.314 375.702" stroke="#CAE2F2" stroke-width="2" stroke-linecap="round"/>
<path d="M153.321 375.287L146.112 377.879" stroke="#CAE2F2" stroke-width="2" stroke-linecap="round"/>
<path fill-rule="evenodd" clip-rule="evenodd" d="M436.238 375.756L421.421 378.278L418.209 365.796L434.537 363.042C434.8 365.102 435.979 373.888 436.238 375.756Z" fill="#F15859"/>
<path fill-rule="evenodd" clip-rule="evenodd" d="M366.213 373.511C364.62 373.494 364.192 369.808 364.118 368.216C364.044 366.624 365.886 366.028 365.886 366.028C365.886 366.028 363.667 335.933 364.037 323.562C364.408 311.191 392.913 256.156 392.913 256.156C392.913 256.156 379.702 307.613 375.625 326.69C373.213 337.987 371.725 352.997 371.284 365.762C371.773 365.778 372.235 365.989 372.568 366.347C372.901 366.706 373.078 367.182 373.059 367.67L372.907 371.643C372.871 372.599 372.106 373.367 371.149 373.407L366.293 373.582C366.361 373.538 366.344 373.511 366.213 373.511Z" fill="#1F2055"/>
<path fill-rule="evenodd" clip-rule="evenodd" d="M355.292 372.541L354.619 369.175C354.458 368.377 354.842 367.567 355.561 367.186C352.43 344.948 347.342 301.88 349.837 285.473C353.086 264.07 357.548 216.263 357.548 216.263L446.279 216.754C446.279 216.754 438.164 230.738 420.014 235.164C401.863 239.591 392.933 256.15 392.933 256.15C392.933 256.15 364.428 311.181 364.057 323.556C363.687 335.93 365.906 366.021 365.906 366.021C365.906 366.021 364.071 366.624 364.138 368.209C364.206 369.795 364.64 373.487 366.233 373.504C366.364 373.504 366.381 373.531 366.307 373.575L356.565 373.912C355.924 373.719 355.437 373.195 355.292 372.541Z" fill="#2F3E8B"/>
<path fill-rule="evenodd" clip-rule="evenodd" d="M435.736 364.23C435.692 363.301 435.453 363.268 434.571 363.19C431.877 340.67 428.688 304.351 432.294 288.062C438.676 259.254 446.279 216.754 446.279 216.754L391.303 216.536L392.916 256.15L394.785 278.192C396.219 295.101 411.659 344.528 418.299 366.186C417.833 366.648 417.678 367.34 417.902 367.957L418.801 370.889C418.801 370.889 419.572 373.033 420.111 373.198L435.544 370.596C436.143 370.259 436.026 368.331 435.995 367.62L435.736 364.23Z" fill="#1F2055"/>
<path fill-rule="evenodd" clip-rule="evenodd" d="M366.287 373.582L371.143 373.406C371.143 376.386 371.213 379.129 371.355 381.553H367.314L366.287 373.582Z" fill="#F15859"/>
<path fill-rule="evenodd" clip-rule="evenodd" d="M357.605 380.355C357.403 379.345 357.03 377.113 356.545 373.928L366.287 373.592L367.33 381.58C364.448 381.58 360.899 381.614 357.757 381.647C357.743 381.213 357.692 380.78 357.605 380.355Z" fill="#F37878"/>
<path d="M369.698 365.863L357.114 367.021" stroke="#CAE2F2" stroke-width="2" stroke-linecap="round"/>
<path d="M363.337 364.843C363.337 364.843 360.744 321.341 363.906 303.032C367.068 284.723 375.402 240.756 375.402 240.756" stroke="#CAE2F2" stroke-width="2" stroke-linecap="round"/>
<path d="M433.723 363.338L418.943 366.028" stroke="#0E142D" stroke-width="2" stroke-linecap="round"/>
<path d="M426.267 363.166C426.267 363.166 412.053 307.478 410.878 280.45C409.702 253.423 415.905 236.416 415.905 236.416" stroke="#0E142D" stroke-width="2" stroke-linecap="round"/>
<path fill-rule="evenodd" clip-rule="evenodd" d="M447.313 93.3807C453.988 83.319 414.077 75.1221 415.441 66.1342C416.805 57.1463 399.503 60.9602 399.91 51.3462C400.092 47.1215 398.375 44.681 395.607 43.4086C394.464 42.9104 393.255 42.5826 392.017 42.4357C369.136 36.9251 366.762 50.5147 366.762 50.5147C364.937 52.3864 361.754 54.7596 360.835 57.0083C358.111 63.6903 362.835 66.1308 365.512 69.5341C368.189 72.9374 370.264 79.7844 363.697 83.4233C353.366 89.146 369.146 93.2292 360.562 99.3559C351.979 105.482 362.286 116.241 362.286 116.241C362.286 116.241 433.571 120.87 445.152 113.245C456.732 105.62 447.313 93.3807 447.313 93.3807Z" fill="#2F3E8B"/>
<path fill-rule="evenodd" clip-rule="evenodd" d="M395.553 60.8255C395.553 60.8255 402.5 75.2566 409.992 75.3947C417.485 75.5327 412.986 85.7426 424.021 89.1458C435.056 92.5491 441.868 81.6862 447.313 93.3806C447.313 93.3806 457.665 88.6678 455.486 100.137C453.307 111.606 446.337 123.701 437.221 124.468C428.106 125.236 361.99 132.261 361.542 114.854C361.094 97.4471 372.399 101.5 373.352 92.805C374.304 84.1099 366.782 73.0484 370.543 64.7573C374.304 56.4662 395.553 60.8255 395.553 60.8255Z" fill="#1F2055"/>
<path fill-rule="evenodd" clip-rule="evenodd" d="M405.904 149.648C414.976 119.994 437.221 108.916 437.221 108.916C447.384 136.129 446.279 216.754 446.279 216.754C446.279 216.754 435.948 225.745 411.565 229.351C387.181 232.956 357.548 216.256 357.548 216.256C392.121 212.94 396.836 179.298 405.904 149.648Z" fill="#C9E2F4"/>
<path fill-rule="evenodd" clip-rule="evenodd" d="M362.269 124.469C362.269 124.469 348.695 163.494 345.432 170.391C342.169 177.289 336.606 188.199 336.599 188.232C333.437 209.571 333.07 222.605 333.07 222.605C333.07 222.605 328.972 230.23 326.238 234.858C323.503 239.487 330.801 234.586 331.033 235.532C331.265 236.478 326.362 253.036 330.447 251.915C334.532 250.794 344.206 242.103 344.341 230.987C344.476 219.872 344.341 219.879 346.924 211.84C347.961 208.635 353.073 200.243 358.888 190.504L360.72 155.303L362.269 124.469Z" fill="#C9E2F4"/>
<path fill-rule="evenodd" clip-rule="evenodd" d="M433.655 102.301C419.684 86.1868 395.94 92.172 395.94 92.172C395.94 92.172 378.787 98.063 368.947 104.816C368.467 105.146 368.041 105.548 367.684 106.007C366.698 107.293 364.414 110.363 361.535 114.871C356.674 122.482 352.449 130.482 348.904 138.788C345.197 147.405 342.386 156.381 340.516 165.573C338.876 173.861 337.593 181.462 336.59 188.232C336.59 188.215 342.153 177.301 345.422 170.391C348.692 163.48 362.259 124.468 362.259 124.468L360.707 155.293L358.885 190.497L357.538 216.266C392.115 212.943 396.829 179.301 405.898 149.651C414.966 120.001 437.214 108.919 437.214 108.919C436.177 106.071 434.975 103.809 433.655 102.301Z" fill="white"/>
<path d="M560 376.547C560 376.547 543.655 376.403 513.827 336.432C483.998 296.461 456.301 258.469 391.283 248.667" stroke="#2E3F8B" stroke-width="19"/>
<path d="M396.685 250.34C398.785 231.673 391.659 215.547 380.768 214.321C369.877 213.096 359.346 227.235 357.246 245.902C355.145 264.569 362.271 280.695 373.162 281.92C384.053 283.146 394.584 269.007 396.685 250.34Z" fill="#FDB714"/>
<path fill-rule="evenodd" clip-rule="evenodd" d="M348.861 252.127C345.035 252.746 338.62 260.021 333.068 268.379L340.998 197.903L375.46 203.34C379.942 203.845 383.697 207.672 386.374 213.704C386.374 213.704 357.579 250.71 348.861 252.127Z" fill="#F7B219"/>
<path fill-rule="evenodd" clip-rule="evenodd" d="M390.192 249.838C387.441 274.29 376.385 293.121 365.488 291.896C365.253 291.869 365.017 291.828 364.785 291.785L331.03 286.459L333.05 268.379C338.603 260.021 345.018 252.746 348.843 252.127C357.578 250.71 386.373 213.724 386.373 213.724C390.195 222.332 391.811 235.457 390.192 249.838Z" fill="#E0A126"/>
<path d="M355.73 244.4C358.482 219.948 351.883 199.133 340.992 197.908C330.101 196.682 319.042 215.511 316.291 239.962C313.54 264.414 320.138 285.229 331.029 286.454C341.92 287.68 352.979 268.851 355.73 244.4Z" fill="#FDB714"/>
<path d="M339.584 228.179C339.914 225.252 338.877 222.733 337.269 222.552C335.661 222.371 334.091 224.597 333.762 227.524C333.432 230.45 334.469 232.969 336.077 233.15C337.685 233.331 339.255 231.105 339.584 228.179Z" fill="#B97F2B"/>
<path d="M335.361 260.444C335.69 257.518 334.654 254.999 333.046 254.818C331.438 254.637 329.868 256.863 329.539 259.789C329.209 262.716 330.246 265.235 331.854 265.415C333.461 265.596 335.032 263.371 335.361 260.444Z" fill="#B97F2B"/>
<path fill-rule="evenodd" clip-rule="evenodd" d="M373.793 247.084C369.553 254.083 360.323 255.214 360.323 255.214C359.683 251.767 366.984 240.402 367.348 239.301C367.711 238.201 361.357 239.564 359.939 238.668C358.522 237.773 361.047 235.975 367.284 233.579C371.681 231.896 373.88 230.347 379.032 223.759L386.949 230.977C386.949 230.977 378.032 240.086 373.793 247.084Z" fill="#F37878"/>
<path fill-rule="evenodd" clip-rule="evenodd" d="M360.31 255.214C360.31 255.214 369.553 254.083 373.779 247.084C378.005 240.086 386.939 230.977 386.939 230.977C382.642 235.74 375.49 248.125 373.591 250.272C371.395 252.753 360.949 258.661 360.31 255.214Z" fill="#F15859"/>
<path fill-rule="evenodd" clip-rule="evenodd" d="M379.036 223.759C381.191 221.002 383.865 217.364 387.431 212.462C399.523 195.853 409.686 156.842 412.165 132.345C414.643 107.849 428.621 100.144 428.621 100.144C436.296 101.083 447.024 110.825 446.674 148.638C446.324 186.451 392.432 227.102 388.714 229.378C388.058 229.829 387.465 230.367 386.953 230.977L379.036 223.759Z" fill="white"/>
<path fill-rule="evenodd" clip-rule="evenodd" d="M390.515 95.7544C386.935 103.066 394.953 103.753 395 103.756C389.983 105.284 385.272 100.46 386.309 97.8213C387.538 94.7041 387.026 86.0696 387.026 86.0696L391.539 82.7034C391.539 82.7034 394.104 88.4193 390.515 95.7544Z" fill="#F15859"/>
<path fill-rule="evenodd" clip-rule="evenodd" d="M405.079 90.5197C403.2 86.5138 394.745 67.6661 394.866 64.1854C394.866 64.1854 398.489 59.7352 395.822 56.3757C393.155 53.0161 391.091 58.897 391.091 58.897C391.091 58.897 390.997 58.7657 390.825 58.5604C388.912 56.0828 377.019 41.9546 368.698 61.7112C368.539 62.0916 368.381 62.4821 368.223 62.886C368.223 62.886 373.712 83.666 377.503 86.2243C381.295 88.7827 387.027 86.0762 387.027 86.0762L391.539 82.71C391.539 82.71 394.105 88.4124 390.529 95.7475C386.952 103.083 394.967 103.746 395.014 103.749C396.024 103.431 396.96 102.912 397.765 102.224C403.604 97.3431 406.958 94.539 405.079 90.5197Z" fill="#F37878"/>
<path fill-rule="evenodd" clip-rule="evenodd" d="M367.118 398.092L365.616 399.213L330.42 400.744C334.259 397.566 340.303 392.82 344.398 390.901C350.392 388.094 357.868 386.65 357.693 380.89C360.834 380.853 364.384 380.833 367.266 380.819C367.266 380.823 370.024 395.92 367.118 398.092Z" fill="#2D4087"/>
<path fill-rule="evenodd" clip-rule="evenodd" d="M365.617 399.206L367.119 398.085C370.025 395.913 367.267 380.816 367.267 380.812H371.308C371.432 382.899 371.607 384.737 371.843 386.262C372.796 392.46 373.496 396.469 373.941 398.859L365.617 399.206Z" fill="#1F2055"/>
<path fill-rule="evenodd" clip-rule="evenodd" d="M327.851 402.909C328.487 402.363 329.37 401.609 330.42 400.737L365.617 399.206L373.927 398.845C374.311 400.909 374.503 401.761 374.503 401.761L361.441 402.33L328.198 403.777C327.987 403.787 327.793 403.662 327.715 403.466C327.637 403.27 327.692 403.047 327.851 402.909Z" fill="#C9E1F2"/>
<path d="M353.854 386.717L356.225 389.023" stroke="#CAE2F2" stroke-width="2" stroke-linecap="round"/>
<path d="M351.44 387.949L353.602 390.574" stroke="#CAE2F2" stroke-width="2" stroke-linecap="round"/>
<path d="M349.339 388.837L351.359 391.554" stroke="#CAE2F2" stroke-width="2" stroke-linecap="round"/>
<path fill-rule="evenodd" clip-rule="evenodd" d="M436.238 375.756L421.421 378.277C421.421 378.277 419.29 384.64 411.541 388.282C406.652 390.581 402.449 394.536 399.988 397.145C407.568 396.809 432.126 395.708 440.861 394.452C439.713 388.804 436.238 375.756 436.238 375.756Z" fill="#1E204D"/>
<path fill-rule="evenodd" clip-rule="evenodd" d="M441.228 396.674C441.157 395.925 441.038 395.182 440.871 394.449C432.136 395.708 407.577 396.822 399.997 397.142C398.566 398.667 397.741 399.73 397.741 399.73C397.741 399.73 441.329 399.353 441.228 396.674Z" fill="#C9E1F2"/>
<path d="M418.67 382.819L421.522 384.758" stroke="#CAE2F2" stroke-width="2" stroke-linecap="round"/>
<path d="M416.824 384.758L419.841 386.71" stroke="#CAE2F2" stroke-width="2" stroke-linecap="round"/>
<path d="M414.71 386.451L417.347 388.299" stroke="#CAE2F2" stroke-width="2" stroke-linecap="round"/>
<path fill-rule="evenodd" clip-rule="evenodd" d="M368.856 57.5574C368.856 57.5574 372.806 63.1386 379.632 62.3913C386.458 61.644 389.576 63.004 389.576 63.004L391.28 65.182L391.108 58.9073C391.108 58.9073 389.441 52.2858 387.67 51.3466C385.899 50.4074 377.709 45.9135 373.207 48.1049C368.705 50.2964 362.381 59.4728 364.489 63.2868C366.597 67.1007 368.711 70.6925 368.711 70.6925C368.711 70.6925 373.419 59.8868 368.856 57.5574Z" fill="#2F3E8B"/>
<path d="M462.261 62.2828C469.649 62.2828 475.639 56.2949 475.639 48.9086C475.639 41.5222 469.649 35.5344 462.261 35.5344C454.872 35.5344 448.882 41.5222 448.882 48.9086C448.882 56.2949 454.872 62.2828 462.261 62.2828Z" fill="#F7B219"/>
<path fill-rule="evenodd" clip-rule="evenodd" d="M459.877 54.8366C459.52 54.8368 459.177 54.6952 458.924 54.4427L454.546 50.0666C454.02 49.5404 454.02 48.6874 454.546 48.1613C455.073 47.6351 455.926 47.6351 456.452 48.1613L459.884 51.5915L467.699 43.7784C468.04 43.4374 468.536 43.304 469.002 43.4282C469.468 43.5525 469.832 43.9157 469.957 44.3809C470.082 44.8461 469.949 45.3427 469.609 45.6837L460.854 54.4528C460.593 54.7074 460.241 54.8459 459.877 54.8366Z" fill="white"/>
<path fill-rule="evenodd" clip-rule="evenodd" d="M99.7896 43.0544H130.433C132.568 43.0544 134.299 44.7846 134.299 46.9189V74.0544C134.298 74.5016 134.029 74.9047 133.616 75.0762C133.203 75.2478 132.727 75.1541 132.41 74.8387L125.419 67.8301C124.804 67.2138 123.969 66.8674 123.099 66.8674H99.7896C97.6193 66.8674 95.8599 65.1086 95.8599 62.939V46.9761C95.8654 44.8099 97.6227 43.0563 99.7896 43.0544Z" fill="#2F3E8B"/>
<path fill-rule="evenodd" clip-rule="evenodd" d="M103.497 50.124H125.385C126.166 50.1277 126.798 50.7606 126.8 51.5412C126.798 52.3213 126.166 52.9532 125.385 52.955H103.497C102.717 52.9532 102.085 52.3213 102.083 51.5412C102.085 50.7606 102.716 50.1277 103.497 50.124Z" fill="#1F2055"/>
<path fill-rule="evenodd" clip-rule="evenodd" d="M112.08 58.2234H125.365C126.145 58.2252 126.777 58.8571 126.779 59.6372C126.777 60.4173 126.145 61.0492 125.365 61.0511H112.08C111.3 61.0492 110.668 60.4173 110.666 59.6372C110.668 58.8571 111.3 58.2252 112.08 58.2234Z" fill="#1F2055"/>
<path d="M278.587 193.187C290.037 193.073 299.226 183.675 299.112 172.195C298.998 160.716 289.623 151.502 278.173 151.616C266.723 151.73 257.534 161.128 257.648 172.608C257.762 184.088 267.137 193.301 278.587 193.187Z" fill="#2F3E8B"/>
<path fill-rule="evenodd" clip-rule="evenodd" d="M287.594 180.833L269.335 181.025L269.335 178.359C269.328 176.708 270.144 175.163 271.511 174.238L274.989 171.882C272.612 170.361 271.52 167.456 272.308 164.747C273.096 162.037 275.575 160.17 278.398 160.16C281.22 160.151 283.712 162.001 284.519 164.705C285.325 167.409 284.253 170.321 281.886 171.858L285.381 174.178C286.756 175.093 287.584 176.633 287.59 178.285L287.594 180.833Z" fill="white"/>
<path d="M321.264 218.558C321.264 218.558 279.909 233.993 302.794 240.204C325.679 246.414 463.419 196.853 463.419 196.853" stroke="#1F2055" stroke-width="2" stroke-linecap="round" stroke-dasharray="8 8"/>
<path fill-rule="evenodd" clip-rule="evenodd" d="M80.73 111.592L77.2784 115.291L50.9622 104.317L80.73 111.592Z" fill="#1F2055"/>
<path fill-rule="evenodd" clip-rule="evenodd" d="M79.5043 99.3757L82.1006 103.297L80.3462 107.138L84.286 107.808L87.7713 115.453L50.1169 104.065L79.5043 99.3757Z" fill="#2F3E8B"/>
<path fill-rule="evenodd" clip-rule="evenodd" d="M80.3461 107.138L82.1005 103.297L61.7075 104.25L80.3461 107.138Z" fill="#1F2055"/>
<path fill-rule="evenodd" clip-rule="evenodd" d="M466.648 196.819L470.103 200.522L496.42 189.548L466.648 196.819Z" fill="#1F2055"/>
<path fill-rule="evenodd" clip-rule="evenodd" d="M467.877 184.606L465.278 188.525L467.035 192.369L463.092 193.039L459.61 200.683L497.265 189.292L467.877 184.606Z" fill="#2F3E8B"/>
<path fill-rule="evenodd" clip-rule="evenodd" d="M467.036 192.369L465.278 188.524L485.674 189.48L467.036 192.369Z" fill="#1F2055"/>
</svg>
