<svg width="167" height="46" viewBox="0 0 167 46" fill="none" xmlns="http://www.w3.org/2000/svg">
<path d="M76.2467 35L74.4767 30.14H65.8367L64.0667 35H59.6867L67.8467 13.73H72.6467L80.7467 35H76.2467ZM70.1567 18.32L67.2167 26.36H73.0967L70.1567 18.32ZM81.9071 30.89L85.3271 30.14C85.3671 30.78 85.6171 31.32 86.0771 31.76C86.5571 32.18 87.2071 32.39 88.0271 32.39C88.6471 32.39 89.1271 32.25 89.4671 31.97C89.8071 31.69 89.9771 31.34 89.9771 30.92C89.9771 30.18 89.4471 29.7 88.3871 29.48L86.4371 29.03C85.0571 28.73 84.0171 28.19 83.3171 27.41C82.6371 26.63 82.2971 25.7 82.2971 24.62C82.2971 23.28 82.8171 22.14 83.8571 21.2C84.9171 20.26 86.2371 19.79 87.8171 19.79C88.8171 19.79 89.6971 19.94 90.4571 20.24C91.2171 20.52 91.8071 20.89 92.2271 21.35C92.6471 21.79 92.9671 22.24 93.1871 22.7C93.4071 23.16 93.5471 23.61 93.6071 24.05L90.2771 24.8C90.1971 24.28 89.9571 23.82 89.5571 23.42C89.1771 23.02 88.6071 22.82 87.8471 22.82C87.3271 22.82 86.8771 22.96 86.4971 23.24C86.1371 23.52 85.9571 23.87 85.9571 24.29C85.9571 25.01 86.4071 25.45 87.3071 25.61L89.4071 26.06C90.8271 26.36 91.9071 26.91 92.6471 27.71C93.4071 28.51 93.7871 29.47 93.7871 30.59C93.7871 31.91 93.2871 33.05 92.2871 34.01C91.2871 34.97 89.8771 35.45 88.0571 35.45C87.0171 35.45 86.0871 35.3 85.2671 35C84.4471 34.68 83.8071 34.28 83.3471 33.8C82.9071 33.3 82.5671 32.81 82.3271 32.33C82.1071 31.83 81.9671 31.35 81.9071 30.89ZM95.978 30.98C95.978 29.72 96.388 28.71 97.208 27.95C98.028 27.19 99.088 26.71 100.388 26.51L104.018 25.97C104.758 25.87 105.128 25.52 105.128 24.92C105.128 24.36 104.908 23.9 104.468 23.54C104.048 23.18 103.438 23 102.638 23C101.798 23 101.128 23.23 100.628 23.69C100.148 24.15 99.878 24.72 99.818 25.4L96.278 24.65C96.418 23.37 97.048 22.24 98.168 21.26C99.288 20.28 100.768 19.79 102.608 19.79C104.808 19.79 106.428 20.32 107.468 21.38C108.508 22.42 109.028 23.76 109.028 25.4V32.66C109.028 33.54 109.088 34.32 109.208 35H105.548C105.448 34.56 105.398 33.97 105.398 33.23C104.458 34.69 103.008 35.42 101.048 35.42C99.528 35.42 98.298 34.98 97.358 34.1C96.438 33.22 95.978 32.18 95.978 30.98ZM101.888 32.45C102.828 32.45 103.598 32.19 104.198 31.67C104.818 31.13 105.128 30.25 105.128 29.03V28.37L101.798 28.88C100.578 29.06 99.968 29.68 99.968 30.74C99.968 31.22 100.138 31.63 100.478 31.97C100.818 32.29 101.288 32.45 101.888 32.45ZM117.882 15.83V20.24H120.852V23.78H117.882V29.96C117.882 30.58 118.022 31.02 118.302 31.28C118.582 31.54 119.022 31.67 119.622 31.67C120.162 31.67 120.572 31.63 120.852 31.55V34.85C120.272 35.09 119.522 35.21 118.602 35.21C117.162 35.21 116.022 34.81 115.182 34.01C114.342 33.19 113.922 32.07 113.922 30.65V23.78H111.252V20.24H112.002C112.742 20.24 113.302 20.03 113.682 19.61C114.082 19.17 114.282 18.6 114.282 17.9V15.83H117.882ZM127.005 25.94H133.605C133.565 25.12 133.265 24.43 132.705 23.87C132.165 23.31 131.365 23.03 130.305 23.03C129.345 23.03 128.565 23.33 127.965 23.93C127.365 24.53 127.045 25.2 127.005 25.94ZM133.995 29.78L137.325 30.77C136.925 32.13 136.135 33.25 134.955 34.13C133.795 35.01 132.345 35.45 130.605 35.45C128.485 35.45 126.685 34.74 125.205 33.32C123.725 31.88 122.985 29.96 122.985 27.56C122.985 25.28 123.705 23.42 125.145 21.98C126.585 20.52 128.285 19.79 130.245 19.79C132.525 19.79 134.305 20.47 135.585 21.83C136.885 23.19 137.535 25.06 137.535 27.44C137.535 27.6 137.525 27.78 137.505 27.98C137.505 28.18 137.505 28.34 137.505 28.46L137.475 28.67H126.915C126.955 29.63 127.335 30.43 128.055 31.07C128.775 31.71 129.635 32.03 130.635 32.03C132.335 32.03 133.455 31.28 133.995 29.78ZM149.677 20.18V24.2C149.277 24.12 148.877 24.08 148.477 24.08C147.337 24.08 146.417 24.41 145.717 25.07C145.017 25.71 144.667 26.77 144.667 28.25V35H140.677V20.24H144.547V22.43C145.267 20.89 146.667 20.12 148.747 20.12C148.967 20.12 149.277 20.14 149.677 20.18ZM151.671 30.98C151.671 29.72 152.081 28.71 152.901 27.95C153.721 27.19 154.781 26.71 156.081 26.51L159.711 25.97C160.451 25.87 160.821 25.52 160.821 24.92C160.821 24.36 160.601 23.9 160.161 23.54C159.741 23.18 159.131 23 158.331 23C157.491 23 156.821 23.23 156.321 23.69C155.841 24.15 155.571 24.72 155.511 25.4L151.971 24.65C152.111 23.37 152.741 22.24 153.861 21.26C154.981 20.28 156.461 19.79 158.301 19.79C160.501 19.79 162.121 20.32 163.161 21.38C164.201 22.42 164.721 23.76 164.721 25.4V32.66C164.721 33.54 164.781 34.32 164.901 35H161.241C161.141 34.56 161.091 33.97 161.091 33.23C160.151 34.69 158.701 35.42 156.741 35.42C155.221 35.42 153.991 34.98 153.051 34.1C152.131 33.22 151.671 32.18 151.671 30.98ZM157.581 32.45C158.521 32.45 159.291 32.19 159.891 31.67C160.511 31.13 160.821 30.25 160.821 29.03V28.37L157.491 28.88C156.271 29.06 155.661 29.68 155.661 30.74C155.661 31.22 155.831 31.63 156.171 31.97C156.511 32.29 156.981 32.45 157.581 32.45Z" fill="#03004D"/>
<g clip-path="url(#clip0_63_2)">
<path d="M45.6928 34.0004C45.6817 33.9607 45.6645 33.9224 45.6417 33.8867L38.4004 23L45.6246 12.1183C45.6813 12.0294 45.7051 11.9275 45.6928 11.8264C45.6928 11.8264 45.6928 11.8265 45.6928 11.7918C45.6856 11.7323 45.6642 11.6746 45.6299 11.6227C45.5957 11.5707 45.5494 11.5256 45.4939 11.4901L45.4541 11.4654C45.4033 11.4354 45.3478 11.4121 45.2893 11.3961C45.2478 11.3913 45.2057 11.3913 45.1642 11.3961H30.7271L23.5085 0.514402C23.4908 0.490804 23.4698 0.469203 23.446 0.450098C23.3937 0.393996 23.3279 0.348535 23.2533 0.316918C23.1786 0.2853 23.097 0.268297 23.014 0.26709C22.9319 0.26901 22.8514 0.286352 22.7778 0.317944C22.7042 0.349535 22.6393 0.394624 22.5877 0.450098C22.5639 0.469203 22.5429 0.490804 22.5252 0.514402L15.3066 11.3961H0.846668C0.730156 11.3978 0.617051 11.4306 0.52268 11.4901H0.494267C0.437413 11.5247 0.390694 11.5705 0.357858 11.6236C0.321877 11.6749 0.298645 11.7322 0.289654 11.7918C0.292792 11.8032 0.292792 11.815 0.289654 11.8264C0.27912 11.928 0.304932 12.0299 0.363548 12.1183L7.58214 23L0.363548 33.8817C0.304932 33.97 0.27912 34.072 0.289654 34.1735C0.292313 34.1833 0.292313 34.1935 0.289654 34.2032C0.298527 34.2644 0.321739 34.3233 0.357858 34.3763C0.407454 34.4511 0.47866 34.5132 0.564414 34.5566C0.650168 34.6 0.747475 34.6231 0.846668 34.6236H15.2895L22.5081 45.5054C22.5291 45.5385 22.556 45.5685 22.5877 45.5944V45.6191C22.6295 45.65 22.6753 45.6766 22.7241 45.6983H22.7866C22.8386 45.718 22.8947 45.7281 22.9515 45.728H22.9969C23.0537 45.7281 23.1098 45.718 23.1618 45.6983H23.2243C23.2739 45.6778 23.3198 45.6511 23.3607 45.6191V45.5944L23.4403 45.5054L30.6589 34.6236H45.096C45.1962 34.624 45.2946 34.6013 45.3815 34.5579C45.4683 34.5144 45.5405 34.4518 45.5905 34.3763C45.6224 34.3221 45.6435 34.2636 45.6531 34.2032C45.6531 34.2032 45.6531 34.2032 45.6531 34.1735C45.6808 34.1191 45.6944 34.06 45.6928 34.0004ZM43.5898 32.7738L34.8479 28.3815L37.7638 23.9892L43.5898 32.7738ZM23.5653 43.4082V29.0641H33.0859L23.5653 43.4082ZM12.908 29.0641H22.4285V43.4082L12.908 29.0641ZM22.4285 2.59676V11.7423L11.9246 27.5703L8.88943 23L22.4285 2.59676ZM37.1044 23L34.0749 27.5753L23.5653 11.7473V2.59181L37.1044 23ZM14.0448 28.0699L22.9969 23.5737L31.9491 28.0699H14.0448ZM23.5653 13.7258L32.5175 27.2241L23.5653 22.723V13.7258ZM22.4285 22.723L13.4764 27.2241L22.4285 13.7258V22.723ZM34.8479 17.6234L43.5955 13.2312L37.7638 22.0107L34.8479 17.6234ZM43.0214 12.3755L34.2795 16.7677L31.3637 12.3755H43.0214ZM11.7143 16.7677L2.97245 12.3755H14.6302L11.7143 16.7677ZM2.40406 13.2312L11.1459 17.6284L8.23008 22.0107L2.40406 13.2312ZM11.1459 28.3914L2.40406 32.7886L8.23008 23.9892L11.1459 28.3914ZM2.96676 33.6344L11.7143 29.2372L14.6302 33.6344H2.96676ZM34.2795 29.2372L43.0271 33.6344H31.3637L34.2795 29.2372Z" fill="#03004D"/>
<path d="M45.6938 34.0005C45.1254 33.0706 44.4774 32.1704 43.8749 31.2504L42.022 28.52L38.2819 23.0792L38.2365 23.0149L38.2819 22.9407L41.9367 17.2228L43.8124 14.3887L44.7502 12.974L45.222 12.2667L45.3357 12.0886L45.3925 12.0046C45.3947 11.9898 45.3947 11.9748 45.3925 11.96C45.4011 11.9258 45.4011 11.8904 45.3925 11.8562C45.3786 11.8239 45.3672 11.7909 45.3584 11.7573C45.329 11.735 45.3024 11.7101 45.2788 11.683C45.2616 11.6621 45.2426 11.6423 45.222 11.6237H45.1652H30.5461L30.4609 11.5L26.7038 5.83659L24.8281 3.00241L23.8902 1.58778L23.4185 0.88047C23.2423 0.603481 23.157 0.489718 22.9979 0.494664C22.8387 0.499611 22.7534 0.603481 22.5772 0.88047L22.1112 1.58778L21.1676 3.00241L19.292 5.83659L15.5349 11.5L15.4496 11.6237H0.790783C0.752739 11.6344 0.716442 11.6494 0.682787 11.6682C0.659256 11.6953 0.632582 11.7201 0.603204 11.7424C0.594456 11.776 0.583062 11.8091 0.569102 11.8413C0.560476 11.8755 0.560476 11.911 0.569102 11.9452C0.566962 11.96 0.566962 11.9749 0.569102 11.9897L0.625927 12.0738L0.745302 12.2519L1.21139 12.9592L2.14921 14.3738L4.03063 17.208L7.78769 22.8714L7.87293 22.9951L7.78769 23.1187L4.03063 28.7822L2.14921 31.6164L1.21139 33.031L0.739613 33.7383L0.625927 33.9164L0.569102 34.0054C0.56604 34.0185 0.56604 34.0319 0.569102 34.045C0.560476 34.0792 0.560476 34.1146 0.569102 34.1488C0.583062 34.1811 0.594456 34.2142 0.603204 34.2478C0.622764 34.2772 0.648964 34.3029 0.68022 34.3233C0.711477 34.3437 0.747148 34.3584 0.785094 34.3665H15.4496L15.5349 34.4901L19.292 40.1536L21.1676 42.9828L22.1112 44.4024L22.5772 45.1097L22.6966 45.2878L22.7534 45.3719C22.7696 45.3826 22.7831 45.3961 22.7932 45.4114C22.8212 45.4338 22.8517 45.4537 22.8842 45.4708C22.9191 45.4872 22.9582 45.4958 22.9979 45.4958C23.0376 45.4958 23.0766 45.4872 23.1115 45.4708C23.1115 45.4461 23.1798 45.4362 23.2082 45.4114L23.2423 45.3719L23.2991 45.2828L23.4185 45.1097L23.8902 44.4024L24.8281 42.9828L26.7038 40.1536L30.5575 34.5396L30.6143 34.4654H30.7109L38.4468 34.5643C39.737 34.5891 41.0273 34.594 42.3175 34.599H44.2557C44.574 34.599 44.898 34.599 45.222 34.599C45.3014 34.5906 45.3779 34.5678 45.4464 34.532C45.515 34.4962 45.5741 34.4483 45.6199 34.3912C45.6523 34.3272 45.6789 34.261 45.6995 34.1934C45.7074 34.1291 45.7055 34.0643 45.6938 34.0005ZM45.6938 34.0005C45.7022 34.0695 45.7022 34.1391 45.6938 34.2082C45.6739 34.2767 45.6453 34.3431 45.6085 34.4061C45.5639 34.4649 45.5053 34.5148 45.4366 34.5523C45.368 34.5899 45.2909 34.6142 45.2106 34.6237C44.8866 34.6237 44.5627 34.6237 44.2444 34.6237H42.3062C41.0178 34.6237 39.7276 34.6336 38.4354 34.6534L30.6996 34.7523L30.8474 34.6781L27.1869 40.391L25.3112 43.2203L24.3677 44.6398L23.9016 45.3471L23.7823 45.5252L23.7197 45.6142L23.6231 45.7527C23.539 45.8262 23.4409 45.8864 23.3332 45.9308C23.2271 45.9762 23.1104 45.9998 22.9922 45.9998C22.8739 45.9998 22.7573 45.9762 22.6511 45.9308C22.5455 45.8858 22.4494 45.8256 22.3669 45.7527L22.2589 45.634L22.1964 45.54L22.0827 45.3669L21.611 44.6596L20.6731 43.24L18.7918 40.4108L15.0347 34.7474L15.2848 34.871H0.841919C0.783333 34.8761 0.724305 34.8761 0.665719 34.871C0.547271 34.8504 0.435291 34.8079 0.337256 34.7465C0.239221 34.6851 0.157401 34.6061 0.0973266 34.5149C-0.0158059 34.3351 -0.0443417 34.1241 0.0177433 33.9263C0.0341105 33.8756 0.0590132 33.8272 0.0916371 33.7828L0.148497 33.6889L0.267837 33.5108L0.733923 32.8035L1.67747 31.3889L3.55316 28.5547L7.31592 22.8912V23.1385L3.55316 17.4751L1.67747 14.6409L0.739613 13.2263L0.267837 12.519L0.148497 12.3409L0.0916371 12.2519C0.0612772 12.2065 0.0365069 12.1584 0.0177433 12.1084C-0.0408289 11.9093 -0.0145784 11.6985 0.0916371 11.5149C0.221781 11.3383 0.425505 11.2124 0.66003 11.1637C0.720372 11.1565 0.781577 11.1565 0.841919 11.1637H15.2905L15.0404 11.2874L18.7975 5.62391L20.6788 2.78973L21.6167 1.37509L22.0884 0.667786L22.2021 0.489713L22.2646 0.400685C22.2978 0.35924 22.3339 0.319601 22.3726 0.28198C22.4505 0.204311 22.5466 0.142052 22.6545 0.0993941C22.7623 0.0567362 22.8794 0.034668 22.9979 0.034668C23.1161 0.0359117 23.2327 0.0585391 23.3404 0.101115C23.448 0.143691 23.5443 0.205284 23.6231 0.28198C23.6618 0.319601 23.6979 0.35924 23.7311 0.400685L23.7936 0.489713L23.913 0.667786L24.3791 1.37509L25.3169 2.78973L27.1983 5.62391L30.9554 11.2874L30.7109 11.1637H45.1538H45.33C45.4434 11.1913 45.5509 11.2347 45.6483 11.2923C45.7378 11.3579 45.818 11.4326 45.887 11.5149C45.9986 11.6971 46.0251 11.9097 45.9609 12.1084C45.9445 12.1591 45.9196 12.2075 45.887 12.2519L45.8302 12.3409L45.7108 12.519L45.2447 13.2263L44.3069 14.6458L42.4255 17.4751L38.5605 23.0841V22.9456L42.1129 28.4904L43.909 31.2504C44.5002 32.1605 45.1311 33.0656 45.6938 34.0005Z" fill="#03004D"/>
<path d="M43.5901 32.7738C42.9251 32.4622 42.2259 32.1456 41.5098 31.839C41.146 31.6807 40.7936 31.557 40.4071 31.3444L39.2703 30.8003C37.7357 30.0781 36.2124 29.3164 34.7232 28.5695L34.4788 28.4459L34.6209 28.2332L37.5367 23.8409L37.7811 23.47L38.0256 23.8409C39.0202 25.3248 40.0149 26.8631 40.9755 28.3915L41.6917 29.5341L42.0554 30.1078C42.1691 30.2958 42.26 30.4738 42.3624 30.6568C42.7489 31.4087 43.1752 32.1011 43.5901 32.7738ZM43.5901 32.7738C43.0217 31.9824 42.4931 31.2257 41.9247 30.4788L41.5041 29.9297L41.1346 29.4005L40.3957 28.3519C39.4124 26.9521 38.4689 25.5424 37.5197 24.113H38.0085L35.0983 28.5052L34.9903 28.1689C36.4113 28.8811 37.7982 29.5934 39.1851 30.3353L40.2252 30.8893C40.5663 31.0674 40.9357 31.3048 41.3052 31.5125C42.0441 31.9429 42.8 32.3534 43.5901 32.7738Z" fill="#03004D"/>
<path d="M23.5654 43.4081C23.5654 42.2853 23.5086 41.1378 23.4518 39.9804C23.4518 39.3967 23.3779 38.8328 23.3722 38.2146L23.3381 36.3845C23.2926 33.941 23.2812 31.4877 23.2812 29.0591V28.8118H33.5805L33.3361 29.1827C31.7276 31.6064 30.0906 34.0449 28.4365 36.4636L27.1918 38.269L26.5722 39.1741L25.9527 40.0348C25.1285 41.1625 24.3328 42.2903 23.5654 43.4081ZM23.5654 43.4081C24.3839 42.132 25.174 40.8756 25.9413 39.6094L26.5097 38.6746L27.0781 37.7842L28.2149 36.0036C29.7325 33.6393 31.2728 31.2948 32.8359 28.9354L33.0803 29.3064H23.5654L23.8496 29.0591C23.8496 31.4135 23.8496 33.7432 23.7928 36.0827L23.7587 37.8386C23.7587 38.4174 23.7018 39.0505 23.6791 39.6638C23.6223 40.9004 23.5882 42.1419 23.5654 43.4081Z" fill="#03004D"/>
<path d="M12.9084 29.0592C14.409 29.0147 15.9607 28.9553 17.5465 28.8712C17.9444 28.8712 18.3423 28.8267 18.7515 28.8218H22.7302V44.348L22.2016 43.5418L17.3703 36.2362L16.1824 34.4061L15.5799 33.491C15.3866 33.1844 15.2218 32.8876 15.0115 32.5859L12.9084 29.0592ZM12.9084 29.0592C13.7838 30.2957 14.6477 31.5323 15.523 32.7046C15.7333 33.0013 15.9664 33.3031 16.1653 33.5949L16.7337 34.4753L17.9273 36.2362L22.645 43.2846L22.1164 43.4082V29.0641L22.4006 29.3115H20.0872H18.9505C18.564 29.3115 18.1718 29.2818 17.7739 29.262C16.2013 29.1696 14.5795 29.1021 12.9084 29.0592Z" fill="#03004D"/>
<path d="M22.4288 2.5918C22.4288 4.05094 22.5026 5.53481 22.5822 7.04341L22.7016 9.3632C22.7016 10.1447 22.7016 10.9361 22.7016 11.7176V11.7819L22.6618 11.8413L12.1579 27.6692L11.9135 28.0402L11.6634 27.6692L8.63386 23.094L8.54858 22.9703L8.63386 22.8466C10.9074 19.3843 13.2151 15.9615 15.5398 12.5387L17.2848 9.97157L18.1544 8.69052L19.0241 7.45396C20.212 5.85138 21.3488 4.20427 22.4288 2.5918ZM22.4288 2.5918C21.292 4.37244 20.1552 6.13329 19.0525 7.8991L18.2283 9.21482L17.4098 10.486L15.7672 13.0234C13.5789 16.4017 11.3678 19.7552 9.13404 23.1236V22.8763L12.1692 27.4516H11.6861L22.1957 11.6236L22.1559 11.7473C22.1559 11.0054 22.1559 10.2634 22.1559 9.53138L22.2696 7.27588C22.3548 5.74255 22.4117 4.20427 22.4288 2.5918Z" fill="#03004D"/>
<path d="M37.1045 22.9997L34.2626 27.669L34.0864 27.9608L33.8817 27.669C33.4213 27.021 32.9439 26.383 32.5062 25.7202L31.199 23.7417L28.573 19.7847L23.321 11.8707L23.2812 11.8163V1.67651L23.8099 2.4778L30.6306 12.7412L32.3357 15.3083L33.1883 16.5894C33.4725 17.0197 33.7226 17.4501 33.9897 17.8804L37.1045 22.9997ZM37.1045 22.9997L33.4839 17.9249C33.1883 17.5045 32.8757 17.084 32.5915 16.6636L31.7503 15.3924L30.0451 12.8599L23.321 2.72016L23.8496 2.59651V11.7421L23.8099 11.6184L29.0675 19.5324L31.6934 23.4894L33.0121 25.4679C33.4498 26.1257 33.8476 26.8083 34.2626 27.4761H33.8817L37.1045 22.9997Z" fill="#03004D"/>
<path d="M14.0452 28.0699C14.7329 27.7088 15.4207 27.3329 16.1255 26.9421L18.2513 25.7254C19.7859 24.9191 21.3206 24.1228 22.8553 23.3561L22.9973 23.2869L23.1394 23.3561L32.0916 27.8522L33.0124 28.3172H31.9495C28.92 28.3172 25.8677 28.3172 22.8553 28.2628C21.3376 28.2628 19.7973 28.2281 18.3081 28.1886C16.8189 28.149 15.4377 28.0946 14.0452 28.0699ZM14.0452 28.0699C15.6423 28.0699 17.194 28.0105 18.7457 27.9462C20.2975 27.8819 21.7014 27.8967 23.1735 27.872C26.0951 27.8324 29.0109 27.8226 31.9495 27.8226L31.8074 28.2825L22.8553 23.7864H23.1394C21.69 24.5185 20.2406 25.2258 18.7912 25.9183L16.4438 26.957C15.6651 27.3081 14.8523 27.6791 14.0452 28.0699Z" fill="#03004D"/>
<path d="M23.5654 13.7158C24.2816 14.7496 25.0319 15.8081 25.839 16.8567C26.6461 17.9053 27.4021 19.1072 28.1808 20.235C29.7439 22.5102 31.2785 24.8053 32.7961 27.0905L33.3247 27.8868L32.3755 27.4515L23.4233 22.9554L23.2813 22.8812V22.7377C23.2813 21.1995 23.2812 19.6464 23.3381 18.0883L23.4859 15.8724C23.5257 15.1255 23.5484 14.4182 23.5654 13.7158ZM23.5654 13.7158C23.5654 14.5171 23.6109 15.3085 23.6507 16.0851L23.7985 18.3702C23.8326 19.8096 23.8553 21.2539 23.8496 22.713L23.7075 22.5003L32.6597 26.9965L32.2732 27.3378C30.801 25.1219 29.3574 22.9158 27.9364 20.695C27.2202 19.5722 26.5097 18.4791 25.7992 17.3266C25.0887 16.1741 24.3385 14.9375 23.5654 13.7158Z" fill="#03004D"/>
<path d="M22.4287 22.7133L20.32 23.9251C19.6038 24.3258 18.9047 24.7511 18.1601 25.1419L13.6129 27.4271L12.6921 27.887L13.2264 27.0907L22.1843 13.6023L22.7129 12.801V18.2913C22.7129 19.0481 22.6219 19.7752 22.5821 20.527L22.4287 22.7133ZM22.4287 22.7133L22.2809 20.4133C22.2411 19.6516 22.1729 18.8948 22.1502 18.1529V13.7012L22.6788 13.8249L13.7266 27.3232L13.3401 26.9819L17.7508 24.7709C18.5011 24.4148 19.2912 24.0883 20.0699 23.7371L22.4287 22.7133Z" fill="#03004D"/>
<path d="M34.8481 17.6134L36.8432 16.4362C37.1842 16.2384 37.5026 16.0207 37.8834 15.8377L39.0202 15.2689L43.4763 13.0035L44.3971 12.5386L43.8629 13.3448L38.0311 22.1343L37.7867 22.5053L37.5423 22.1343L36.7863 20.9917L36.4112 20.4229C36.2862 20.23 36.1952 20.0321 36.0872 19.8392L34.8481 17.6134ZM34.8481 17.6134C35.4165 18.3702 35.9849 19.0973 36.5533 19.7848C36.6897 19.9579 36.8375 20.1311 36.9569 20.2794L37.3093 20.8037L38.0141 21.8623H37.5253L43.3513 13.1074L43.7378 13.4437L39.4465 15.5805L38.4006 16.0999C38.0539 16.2779 37.639 16.4313 37.2638 16.5945L34.8481 17.6134Z" fill="#03004D"/>
<path d="M43.0216 12.3657C42.3793 12.712 41.7143 13.0829 41.0549 13.4687C40.7139 13.6616 40.407 13.8644 40.0262 14.0623L38.8894 14.6558C37.4059 15.4472 35.894 16.2238 34.3991 16.9756L34.1547 17.0993L34.0126 16.8816L31.0967 12.4894L30.8523 12.1184H31.3411C33.3305 12.1184 35.3199 12.1184 37.3434 12.1679L38.8382 12.2025H39.5885C39.8386 12.2025 40.0603 12.2025 40.2933 12.2421C41.2425 12.3113 42.1463 12.341 43.0216 12.3657ZM43.0216 12.3657C41.9587 12.3657 40.9299 12.4201 39.9011 12.4745L39.1452 12.5141H38.4404L37.0194 12.5487C35.138 12.5883 33.2623 12.5982 31.3354 12.5982L31.5799 12.2272L34.4957 16.6195L34.1092 16.5304C35.5302 15.8182 36.9512 15.1257 38.3608 14.453L39.435 13.9584C39.7818 13.7902 40.2024 13.627 40.5718 13.4638C41.4187 13.1076 42.2088 12.7515 43.0216 12.3657Z" fill="#03004D"/>
<path d="M11.7145 16.7579L9.54324 15.8477C9.17379 15.6845 8.80433 15.5559 8.40646 15.3531L7.26968 14.7991L2.79643 12.5684L1.86426 12.1084H15.0908L14.8407 12.4794L14.0847 13.617L13.7039 14.1858C13.5732 14.3738 13.4254 14.542 13.289 14.72L11.7145 16.7579ZM11.7145 16.7579C12.1749 15.9467 12.6126 15.1652 13.0275 14.3936C13.1298 14.2056 13.2264 14.0078 13.3401 13.8297L13.6868 13.3005L14.386 12.242L14.6304 12.6129H2.97263L3.11473 12.1529L7.37767 14.3194L8.44625 14.8585C8.79865 15.0316 9.15106 15.269 9.51483 15.4768L11.7145 16.7579Z" fill="#03004D"/>
<path d="M2.4043 13.2212C3.06932 13.5328 3.76846 13.8494 4.48463 14.156C4.8484 14.3143 5.20649 14.4429 5.58732 14.6507L6.7241 15.1947C8.25876 15.9169 9.78205 16.6786 11.2712 17.4205L11.5213 17.5442L11.3792 17.7618L8.46338 22.1541L8.21329 22.5251L7.96888 22.1541C6.97419 20.6702 5.97951 19.132 5.01892 17.6036L4.29705 16.4412L3.93327 15.8674C3.8196 15.6795 3.72867 15.5014 3.62635 15.3184C3.23985 14.5913 2.81922 13.8939 2.4043 13.2212ZM2.4043 13.2212C2.97269 14.0126 3.50129 14.7743 4.06968 15.5212L4.49032 16.0702L4.85976 16.5945L5.59866 17.6481C6.58198 19.0479 7.5312 20.4526 8.48041 21.887H7.98592L10.9018 17.4947L11.0041 17.8311C9.5831 17.1188 8.19622 16.4066 6.80934 15.6646L5.77486 15.1107C5.42814 14.9326 5.0587 14.6902 4.68925 14.4825C3.95034 14.0571 3.18868 13.6416 2.4043 13.2212Z" fill="#03004D"/>
<path d="M11.1462 28.3815L9.15678 29.5637C8.81006 29.7615 8.49175 29.9742 8.11661 30.1621L6.97983 30.731L2.52365 32.9914L1.59717 33.4613L2.13146 32.6551L7.96317 23.8656L8.20757 23.4946L8.45767 23.8656L9.20795 25.0082L9.58307 25.577C9.70812 25.7699 9.79907 25.9678 9.90706 26.1607L11.1462 28.3815ZM11.1462 28.3815C10.5778 27.6297 10.0094 26.8976 9.44097 26.2151C9.31024 26.037 9.1568 25.8688 9.03744 25.7204L8.685 25.1961L7.9802 24.1376H8.4747L2.64868 32.8925L2.26218 32.5512L6.5706 30.4194L7.64487 29.8901C7.99159 29.7071 8.40652 29.5587 8.78165 29.3955L11.1462 28.3815Z" fill="#03004D"/>
<path d="M2.96704 33.6344C3.61501 33.2882 4.28005 32.9172 4.93938 32.5314C5.28042 32.3385 5.58166 32.1308 5.96248 31.9379L7.09927 31.3443C8.58845 30.548 10.1004 29.7764 11.5953 29.0245L11.8397 28.9009L11.9818 29.1136L14.8976 33.5108L15.1477 33.8817H14.6532C12.6638 33.8817 10.6744 33.8818 8.65097 33.8323L7.15044 33.7977H6.40015C6.15574 33.7977 5.93405 33.7977 5.70101 33.7581C4.75748 33.6888 3.84805 33.6592 2.96704 33.6344ZM2.96704 33.6344C4.03562 33.6344 5.06444 33.58 6.08754 33.5256L6.84348 33.486H7.55397L8.97495 33.4514C10.8563 33.4119 12.732 33.402 14.6305 33.402L14.3861 33.7729L11.4702 29.3757L11.8567 29.4697C10.4357 30.182 9.01476 30.8744 7.60514 31.5471L6.53087 32.0418C6.18415 32.2099 5.75786 32.3732 5.39409 32.5364C4.5756 32.8925 3.77984 33.2486 2.96704 33.6344Z" fill="#03004D"/>
<path d="M34.2797 29.2373L36.451 30.1524C36.8205 30.3107 37.1956 30.4442 37.5878 30.647L38.7246 31.201L43.2035 33.4317L44.0845 33.8818H30.8694L31.1195 33.5109L31.8811 32.3732L32.2563 31.8044C32.387 31.6164 32.5405 31.4483 32.6769 31.2702L34.2797 29.2373ZM34.2797 29.2373C33.8193 30.0534 33.3817 30.835 32.9724 31.6066C32.8644 31.7945 32.7678 31.9924 32.6598 32.1704L32.3074 32.6997L31.6083 33.7582L31.3639 33.3872H43.0273L42.8852 33.8472L38.6166 31.6807L37.5537 31.1416C37.2013 30.9685 36.8432 30.7311 36.4851 30.5233L34.2797 29.2373Z" fill="#03004D"/>
</g>
<defs>
<clipPath id="clip0_63_2">
<rect width="46" height="46" fill="white"/>
</clipPath>
</defs>
</svg>
