<svg width="550" height="495" viewBox="0 0 550 495" fill="none" xmlns="http://www.w3.org/2000/svg">
<path fill-rule="evenodd" clip-rule="evenodd" d="M465.042 374.502C493.967 372.654 527.34 339.97 518.538 319.747C509.737 299.525 507.726 286.139 516.631 272.478C524.707 260.084 494.552 207.579 505.99 187.452C501.717 183.403 495.803 181.141 490.339 183.005C483.413 185.366 479.984 193.002 477.79 199.99C475.381 207.71 473.556 215.6 472.33 223.593C471.163 231.21 470.339 239.4 465.416 245.324C460.008 251.826 450.88 254.052 444.863 259.996C439.814 265.076 437.495 272.262 438.622 279.335C439.654 285.462 443.19 290.825 445.715 296.507C448.24 302.189 449.698 309.045 446.595 314.424C443.867 319.17 438.364 321.515 434.548 325.441C429.67 330.458 427.858 337.935 428.73 344.875C429.602 351.815 432.908 358.257 437.093 363.875C439.272 366.802 441.692 369.54 444.329 372.061C451.031 374.111 458.047 374.938 465.042 374.502Z" fill="#EBECF0"/>
<path fill-rule="evenodd" clip-rule="evenodd" d="M493.576 403.85C499.733 390.524 521.967 381.267 530.569 373.913C539.641 366.157 547.945 355.749 549.685 343.593C551.629 329.98 544.189 322.706 537.929 312.019C527.575 294.321 548.526 276.954 541.426 259.184C537.762 250.026 526.997 245.929 521.199 237.95C516.563 231.58 515.532 223.326 514.887 215.462C514.241 207.599 513.76 199.421 509.94 192.517C508.893 190.637 507.563 188.929 505.998 187.452C494.56 207.575 524.715 260.084 516.639 272.478C507.734 286.139 509.749 299.529 518.546 319.748C527.344 339.966 493.975 372.655 465.05 374.502C458.051 374.944 451.029 374.121 444.321 372.073C448.469 376.05 453.126 379.462 458.168 382.218C470.458 388.927 485.687 392.288 493.576 403.85Z" fill="#D3D5D7"/>
<path fill-rule="evenodd" clip-rule="evenodd" d="M522.959 327.559L522.381 327.03L493.966 357.97V282.862L512.501 259.387L511.884 258.901L493.966 281.596V205.958H493.182V245.631L480.566 227.283L479.92 227.725L493.182 247.016V307.687L459.689 273.908L459.132 274.461L493.182 308.802V381.306L450.1 338.385L449.546 338.938L493.182 382.413V461.686H493.966V359.133L522.959 327.559Z" fill="#D3D5D7"/>
<path fill-rule="evenodd" clip-rule="evenodd" d="M259.348 227.841C258.292 227.841 257.248 228.055 256.277 228.47C255.297 225.632 253.191 223.323 250.454 222.086C247.717 220.849 244.592 220.793 241.813 221.932C240.364 213.204 232.814 206.804 223.964 206.802C223.253 206.805 222.543 206.847 221.837 206.93C217.745 197.496 208.442 191.392 198.157 191.392C187.873 191.392 178.569 197.496 174.478 206.93C173.773 206.847 173.064 206.805 172.355 206.802C163.657 206.804 156.19 212.99 154.573 221.534C149.405 220.058 143.933 222.577 141.694 227.463C139.23 226.503 136.451 226.823 134.271 228.319C132.567 222.828 127.725 218.903 121.999 218.372C116.274 217.84 110.792 220.807 108.106 225.89C103.121 222.376 96.2315 223.563 92.7098 228.542C90.2802 226.695 87.0136 226.386 84.2802 227.743C81.5468 229.1 79.8194 231.889 79.8225 234.94C79.8225 235.179 79.8225 235.414 79.8584 235.645H267.169C267.163 231.331 263.662 227.839 259.348 227.841Z" fill="#D3D5D7"/>
<path fill-rule="evenodd" clip-rule="evenodd" d="M504.974 121.274C503.917 121.273 502.871 121.487 501.9 121.903C500.919 119.066 498.814 116.758 496.078 115.52C493.343 114.283 490.218 114.225 487.439 115.362C485.989 106.634 478.439 100.235 469.59 100.232C468.879 100.234 468.169 100.276 467.463 100.359C463.372 90.9256 454.068 84.821 443.784 84.821C433.499 84.821 424.196 90.9256 420.104 100.359C419.398 100.276 418.688 100.234 417.977 100.232C409.28 100.232 401.813 106.419 400.2 114.964C395.032 113.497 389.566 116.013 387.32 120.892C384.854 119.938 382.077 120.258 379.893 121.748C378.185 116.261 373.343 112.34 367.62 111.81C361.896 111.279 356.416 114.244 353.728 119.323C348.741 115.813 341.852 117.005 338.336 121.987C335.906 120.141 332.64 119.831 329.906 121.188C327.173 122.545 325.446 125.334 325.449 128.385C325.449 128.624 325.449 128.859 325.481 129.09H512.792C512.792 124.774 509.292 121.274 504.974 121.274Z" fill="#EDEEF2"/>
<path fill-rule="evenodd" clip-rule="evenodd" d="M182.622 279.235H220.148C221.838 279.235 223.207 277.866 223.207 276.177C223.207 274.488 221.838 273.119 220.148 273.119H182.622C180.933 273.119 179.563 274.488 179.563 276.177C179.563 277.866 180.933 279.235 182.622 279.235Z" fill="#D3D5D7"/>
<path d="M165.159 279.235C166.848 279.235 168.217 277.866 168.217 276.177C168.217 274.488 166.848 273.119 165.159 273.119C163.469 273.119 162.1 274.488 162.1 276.177C162.1 277.866 163.469 279.235 165.159 279.235Z" fill="#D3D5D7"/>
<path fill-rule="evenodd" clip-rule="evenodd" d="M161.762 302.822H199.288C200.978 302.822 202.347 301.453 202.347 299.764C202.347 298.075 200.978 296.706 199.288 296.706H161.762C160.072 296.706 158.703 298.075 158.703 299.764C158.703 301.453 160.072 302.822 161.762 302.822Z" fill="#D3D5D7"/>
<path d="M144.016 302.822C145.705 302.822 147.074 301.453 147.074 299.764C147.074 298.075 145.705 296.706 144.016 296.706C142.327 296.706 140.957 298.075 140.957 299.764C140.957 301.453 142.327 302.822 144.016 302.822Z" fill="#D3D5D7"/>
<path d="M126.843 302.822C128.533 302.822 129.902 301.453 129.902 299.764C129.902 298.075 128.533 296.706 126.843 296.706C125.154 296.706 123.785 298.075 123.785 299.764C123.785 301.453 125.154 302.822 126.843 302.822Z" fill="#D3D5D7"/>
<path fill-rule="evenodd" clip-rule="evenodd" d="M82.2039 52.1307C84.4058 52.1275 86.5884 52.5423 88.6356 53.353C91.8215 42.4197 101.081 34.5083 112.009 34.5083C120.583 34.5083 128.13 39.3778 132.522 46.7516C133.248 46.6608 133.978 46.6143 134.709 46.6123C142.243 46.6123 148.759 51.4459 151.865 58.4693C153.457 57.6618 155.217 57.2404 157.002 57.239C161.694 57.239 165.764 60.1137 167.895 64.3581C168.797 64.0777 169.737 63.9328 170.682 63.9281C176.469 63.9281 181.164 69.128 181.164 75.5423C181.164 76.7399 180.995 77.9315 180.662 79.0819H63.8368C63.3496 77.1853 63.1033 75.2349 63.104 73.2768C63.104 61.6028 71.6544 52.1307 82.2039 52.1307Z" fill="#EDEEF2"/>
<path fill-rule="evenodd" clip-rule="evenodd" d="M195.708 45.2305C201.369 45.2306 206.281 49.1338 207.56 54.6469C209.824 53.5323 212.486 53.5728 214.715 54.7557C216.944 55.9386 218.469 58.1199 218.814 60.6192H183.972C182.966 56.9591 183.728 53.0397 186.03 50.0217C188.332 47.0037 191.912 45.2331 195.708 45.2344V45.2305Z" fill="#EDEEF2"/>
<path fill-rule="evenodd" clip-rule="evenodd" d="M174.203 93.742H197.126C197.621 93.742 198.096 93.5453 198.446 93.1951C198.797 92.8449 198.994 92.3699 198.994 91.8747C198.994 91.3794 198.797 90.9045 198.446 90.5543C198.096 90.2041 197.621 90.0073 197.126 90.0073H174.203C173.171 90.0073 172.335 90.8434 172.335 91.8747C172.335 92.906 173.171 93.742 174.203 93.742Z" fill="#D3D5D7"/>
<path fill-rule="evenodd" clip-rule="evenodd" d="M165.465 104.249H188.388C188.884 104.249 189.359 104.053 189.709 103.702C190.059 103.352 190.256 102.877 190.256 102.382C190.256 101.887 190.059 101.412 189.709 101.062C189.359 100.711 188.884 100.515 188.388 100.515H165.465C164.434 100.515 163.597 101.351 163.597 102.382C163.597 103.413 164.434 104.249 165.465 104.249Z" fill="#D3D5D7"/>
<path fill-rule="evenodd" clip-rule="evenodd" d="M108.946 93.742H150.543C151.574 93.742 152.411 92.906 152.411 91.8747C152.411 90.8434 151.574 90.0073 150.543 90.0073H108.946C107.915 90.0073 107.078 90.8434 107.078 91.8747C107.078 92.906 107.915 93.742 108.946 93.742Z" fill="#D3D5D7"/>
<path fill-rule="evenodd" clip-rule="evenodd" d="M161.674 91.8747C161.674 92.906 162.51 93.742 163.542 93.742C164.573 93.742 165.41 92.906 165.41 91.8747C165.41 90.8434 164.573 90.0073 163.542 90.0073C163.046 90.0063 162.57 90.2027 162.22 90.5531C161.869 90.9035 161.673 91.3791 161.674 91.8747Z" fill="#D3D5D7"/>
<path fill-rule="evenodd" clip-rule="evenodd" d="M152.753 102.382C152.753 103.413 153.589 104.249 154.621 104.249C155.652 104.249 156.489 103.413 156.489 102.382C156.489 101.351 155.652 100.515 154.621 100.515C153.589 100.515 152.753 101.351 152.753 102.382Z" fill="#D3D5D7"/>
<path fill-rule="evenodd" clip-rule="evenodd" d="M55.0476 377.138C83.9762 375.29 117.345 342.606 108.548 322.383C99.7507 302.161 97.7316 288.779 106.636 275.114C114.713 262.72 84.5576 210.215 95.9993 190.088C91.7221 186.039 85.8121 183.777 80.3482 185.64C73.4187 188.002 69.9739 195.638 67.7955 202.626C65.3919 210.346 63.5721 218.236 62.3514 226.229C61.1846 233.845 60.3602 242.035 55.4339 247.96C50.0058 254.462 40.886 256.687 34.8725 262.632C29.8224 267.712 27.5022 274.897 28.628 281.97C29.6634 288.098 33.1998 293.461 35.7207 299.143C38.2416 304.825 39.7032 311.681 36.6009 317.06C33.8768 321.806 28.3691 324.151 24.5539 328.077C19.6794 333.094 17.8674 340.571 18.7395 347.511C19.6117 354.451 22.9171 360.893 27.1027 366.511C29.2799 369.438 31.7006 372.177 34.3388 374.697C41.0391 376.747 48.0541 377.574 55.0476 377.138Z" fill="#EBECF0"/>
<path fill-rule="evenodd" clip-rule="evenodd" d="M83.5818 406.486C89.7426 393.16 111.977 383.902 120.575 376.548C129.651 368.792 137.95 358.385 139.691 346.229C141.634 332.616 134.195 325.342 127.934 314.655C117.58 296.957 138.536 279.589 131.431 261.82C127.771 252.662 117.003 248.565 111.208 240.586C106.573 234.216 105.537 225.962 104.896 218.098C104.255 210.235 103.769 202.056 99.9457 195.152C98.8941 193.274 97.5634 191.567 95.9991 190.088C84.5575 210.227 114.713 262.72 106.636 275.126C97.7314 288.791 99.7505 302.177 108.548 322.395C117.345 342.614 83.976 375.302 55.0474 377.15C48.0546 377.59 41.0396 376.767 34.3386 374.721C38.4868 378.698 43.1429 382.109 48.1856 384.866C60.4676 391.563 75.6766 394.923 83.5818 406.486Z" fill="#D3D5D7"/>
<path fill-rule="evenodd" clip-rule="evenodd" d="M112.964 330.195L112.387 329.665L83.9761 360.606V285.498L102.507 262.027L101.889 261.537L83.9761 284.232V208.594H83.1916V248.266L70.5751 229.919L69.926 230.361L83.1916 249.652V310.323L49.6991 276.543L49.1415 277.097L83.1916 311.442V383.942L40.1093 341.021L39.5518 341.574L83.1916 385.049V464.322H83.9761V361.769L112.964 330.195Z" fill="#D3D5D7"/>
<path fill-rule="evenodd" clip-rule="evenodd" d="M394.302 428.193C396.193 426.004 404.947 422.675 408.638 417.284C412.33 411.893 425.07 393.108 434.795 396.787C444.52 400.466 426.384 413.605 420.996 420.178C415.608 426.752 415.17 445.804 400.928 445.804C386.687 445.804 390.108 433.055 394.302 428.193Z" fill="#EBECF0"/>
<path fill-rule="evenodd" clip-rule="evenodd" d="M393.469 379.176C393.469 379.176 400.303 379.375 399.646 388.967C398.989 398.558 396.424 405.721 396.95 410.846C397.475 415.97 402.127 435.615 393.469 436.933C384.811 438.251 374.803 435.288 379.132 421.162C383.461 407.035 379.534 376.417 393.469 379.176Z" fill="#D3D5D7"/>
<path fill-rule="evenodd" clip-rule="evenodd" d="M385.058 468.69C384.948 468.69 384.859 468.601 384.859 468.491C384.859 448.822 391.104 391.169 391.167 390.587C391.182 390.48 391.278 390.403 391.386 390.412C391.439 390.417 391.488 390.443 391.522 390.484C391.555 390.525 391.571 390.578 391.566 390.631C391.502 391.212 385.253 448.846 385.257 468.491C385.257 468.601 385.168 468.69 385.058 468.69Z" fill="#EBECF0"/>
<path fill-rule="evenodd" clip-rule="evenodd" d="M386.986 468.69H386.966C386.913 468.685 386.864 468.659 386.83 468.618C386.797 468.577 386.781 468.524 386.786 468.471C386.786 468.383 387.77 459.377 393.585 446.727C398.949 435.058 409.646 417.797 430.152 401.839C430.207 401.791 430.285 401.777 430.355 401.803C430.424 401.83 430.472 401.893 430.481 401.967C430.489 402.04 430.456 402.112 430.394 402.154C409.96 418.056 399.299 435.249 393.955 446.875C388.164 459.472 387.185 468.423 387.185 468.511C387.176 468.614 387.089 468.692 386.986 468.69Z" fill="#D3D5D7"/>
<path fill-rule="evenodd" clip-rule="evenodd" d="M43.3112 424.435C41.4156 422.245 32.6621 418.916 28.9744 413.529C25.2866 408.142 12.5706 389.345 2.82553 393.024C-6.91955 396.703 11.2405 409.842 16.6287 416.416C22.017 422.989 22.4551 442.041 36.6924 442.041C50.9297 442.041 47.5167 429.292 43.3112 424.435Z" fill="#EBECF0"/>
<path fill-rule="evenodd" clip-rule="evenodd" d="M44.1437 375.414C44.1437 375.414 37.3058 375.613 37.9669 385.204C38.628 394.796 41.1847 401.959 40.659 407.103C40.1334 412.247 35.4818 431.876 44.1437 433.19C52.8055 434.504 62.8055 431.546 58.4806 417.419C54.1556 403.292 58.0743 372.674 44.1437 375.414Z" fill="#D3D5D7"/>
<path fill-rule="evenodd" clip-rule="evenodd" d="M52.5544 464.927C52.6644 464.927 52.7535 464.838 52.7535 464.728C52.7535 445.059 46.505 387.406 46.4413 386.825C46.4268 386.717 46.3304 386.64 46.2223 386.65C46.1136 386.662 46.0354 386.76 46.047 386.869C46.1108 387.45 52.3553 445.083 52.3553 464.728C52.3553 464.781 52.3762 464.832 52.4136 464.869C52.4509 464.906 52.5016 464.927 52.5544 464.927Z" fill="#EBECF0"/>
<path fill-rule="evenodd" clip-rule="evenodd" d="M50.627 464.927H50.647C50.6999 464.922 50.7486 464.896 50.7823 464.855C50.8159 464.814 50.8317 464.761 50.8262 464.708C50.8262 464.621 49.8425 455.618 44.0281 442.965C38.6637 431.295 27.9668 414.035 7.46115 398.081C7.40714 398.025 7.32543 398.005 7.25198 398.031C7.17852 398.057 7.12678 398.123 7.11952 398.2C7.11226 398.278 7.15082 398.352 7.21822 398.391C27.6522 414.294 38.3133 431.486 43.6577 443.112C49.4482 455.71 50.4279 464.66 50.4279 464.752C50.4417 464.852 50.5264 464.926 50.627 464.927Z" fill="#D3D5D7"/>
<path fill-rule="evenodd" clip-rule="evenodd" d="M356.413 361.892C349.571 350.214 363.406 338.755 358.718 327.03C356.305 320.986 349.2 318.27 345.373 313.018C342.315 308.806 341.634 303.367 341.207 298.179C340.781 292.991 340.463 287.592 337.946 283.049C337.253 281.81 336.375 280.683 335.341 279.709C332.518 277.037 328.619 275.544 325.011 276.77C320.439 278.331 318.169 283.372 316.731 287.982C315.148 293.076 313.95 298.281 313.147 303.554C312.378 308.579 311.837 313.986 308.583 317.888C304.999 322.176 298.993 323.645 295.043 327.571C291.716 330.918 290.186 335.652 290.925 340.312C291.606 344.353 293.94 347.877 295.604 351.644C297.269 355.41 298.229 359.917 296.186 363.473C294.386 366.606 290.754 368.151 288.221 370.743C285.003 374.052 283.804 378.989 284.382 383.568C284.959 388.147 287.138 392.399 289.889 396.102C293.602 401.09 298.348 405.218 303.804 408.202C311.916 412.629 321.956 414.843 327.169 422.476C331.235 413.68 345.907 407.573 351.582 402.719C357.555 397.603 363.047 390.735 364.194 382.712C365.453 373.745 360.542 368.947 356.413 361.892Z" fill="#EBECF0"/>
<path d="M327.444 358.074H326.966V466.683H327.444V358.074Z" fill="#D3D5D7"/>
<path fill-rule="evenodd" clip-rule="evenodd" d="M327.083 393.38L342.729 377.738L342.805 377.814L327.159 393.457L327.083 393.38Z" fill="#D3D5D7"/>
<path fill-rule="evenodd" clip-rule="evenodd" d="M313.638 360.376L313.714 360.3L327.16 373.743L327.084 373.819L313.638 360.376Z" fill="#D3D5D7"/>
<path fill-rule="evenodd" clip-rule="evenodd" d="M458.841 482.263C471.912 481.841 505.225 490.27 482.875 492.802C460.526 495.334 426.372 495.752 402.338 492.802C378.304 489.852 168.731 492.802 135.84 491.958C102.948 491.114 52.1004 482.681 76.258 475.936C100.416 469.191 272.462 482.681 309.567 482.681C346.671 482.681 458.841 482.263 458.841 482.263Z" fill="#D3D5D7"/>
<path fill-rule="evenodd" clip-rule="evenodd" d="M344.568 162.002C344.568 162.002 361.434 144.857 408.379 160.035C455.325 175.212 499.179 148.186 499.179 148.186L501.147 136.99C501.147 136.99 463.911 155.886 436.707 152.916C409.502 149.946 388.742 134.808 358.411 142.627C328.081 150.447 344.568 162.002 344.568 162.002Z" fill="#E0A010"/>
<path fill-rule="evenodd" clip-rule="evenodd" d="M365.09 201.945C365.09 201.945 369.817 190.398 334.449 183.231L326.735 196.076C326.735 196.076 363.684 196.872 354.967 215.984C354.967 215.964 363.963 204.23 365.09 201.945Z" fill="#E0A010"/>
<path fill-rule="evenodd" clip-rule="evenodd" d="M87.0664 311.307C87.2058 317.426 84.5973 361.681 89.3165 361.972C92.7175 362.179 93.8366 362.286 94.8919 361.176C103.96 349.183 115.716 312.497 115.716 312.497C115.716 312.497 108.946 305.601 104.414 302.173C104.362 302.201 86.927 305.195 87.0664 311.307Z" fill="#303D8B"/>
<path fill-rule="evenodd" clip-rule="evenodd" d="M83.6932 309.085C83.1316 315.642 80.6944 363.047 89.5036 364.922C91.0727 365.257 92.9126 363.799 94.8799 361.195C93.8365 362.286 92.7174 362.179 89.3045 361.992C84.5852 361.701 87.1938 317.446 87.0544 311.326C86.915 305.207 104.35 302.201 104.398 302.193C102.944 301.094 101.714 300.345 101.009 300.301C98.1216 300.094 84.2547 302.527 83.6932 309.085Z" fill="#C8E1F3"/>
<path d="M95.2185 330.072C98.9383 332.462 103.592 332.881 107.68 331.194" stroke="#C9E2F3" stroke-width="2" stroke-linecap="round"/>
<path d="M94.6091 334.985C94.6091 334.985 102.355 338.198 106.604 336.016" stroke="#C9E2F3" stroke-width="2" stroke-linecap="round"/>
<path d="M93.6851 338.317C93.6851 338.317 100.654 342.438 104.963 339.723" stroke="#C9E2F3" stroke-width="2" stroke-linecap="round"/>
<path fill-rule="evenodd" clip-rule="evenodd" d="M237.09 277.742C225.031 275.042 214.959 273.816 212.629 276.484C206.034 284.049 181.379 344.537 181.379 344.537C181.379 344.537 185.807 355.824 192.331 366.304C198.814 344.991 216.982 290.598 237.09 277.742Z" fill="#303D8B"/>
<path fill-rule="evenodd" clip-rule="evenodd" d="M212.163 383.863C235.401 362.079 287.922 292.597 287.922 292.597C287.922 292.597 259.176 282.691 237.09 277.742C216.982 290.598 198.814 344.991 192.331 366.304C197.894 375.238 204.983 383.588 212.163 383.863Z" fill="#0A1658"/>
<path fill-rule="evenodd" clip-rule="evenodd" d="M152.849 363.517C177.727 369.418 189.65 385.814 192.331 366.304C185.807 355.824 181.379 344.537 181.379 344.537C152.705 344.246 122.673 313.584 113.116 311.522C103.558 309.459 99.4358 322.766 99.4358 322.766C99.9615 323.395 100.487 324.024 101.029 324.649C106.481 331.019 130.901 358.313 152.849 363.517Z" fill="#FF7977"/>
<path fill-rule="evenodd" clip-rule="evenodd" d="M204.573 389.795C206.44 388.875 209.037 386.809 212.163 383.879C204.995 383.604 197.894 375.255 192.331 366.32C189.65 385.83 177.727 369.433 152.849 363.533C130.901 358.329 106.481 331.035 101.021 324.665C136.97 366.957 189.057 397.412 204.573 389.795Z" fill="#F45658"/>
<path fill-rule="evenodd" clip-rule="evenodd" d="M330.546 175.029C331.074 167.624 330.626 160.181 329.212 152.892C324.166 138.733 302.82 140.354 302.82 140.354C302.82 140.354 299.865 134.652 296.691 127.41C293.796 127.613 291.912 127.716 291.912 127.716C291.912 127.716 270.694 129.289 249.559 129.556C249.559 129.592 259.611 212.587 218.325 207.814C218.058 210.375 217.596 212.912 216.943 215.402C212.63 232.077 212.63 276.484 212.63 276.484C212.63 276.484 283.47 242.947 296.309 231.142C309.149 219.336 327.48 197.02 330.546 175.029Z" fill="white"/>
<path fill-rule="evenodd" clip-rule="evenodd" d="M329.212 152.892C325.747 135.238 317.643 125.328 317.643 125.328C310.965 126.315 302.084 127.024 296.691 127.398C299.877 134.644 302.82 140.354 302.82 140.354C302.82 140.354 324.166 138.742 329.212 152.892Z" fill="#C9E2F4"/>
<path fill-rule="evenodd" clip-rule="evenodd" d="M324.139 202.474C324.615 201.398 325.146 200.346 325.732 199.325C328.331 191.458 329.948 183.301 330.546 175.037C327.48 197.028 309.141 219.348 296.297 231.15C283.454 242.951 212.63 276.484 212.63 276.484L299.308 269.177C299.308 269.177 321.705 208.283 324.139 202.474Z" fill="#C9E2F4"/>
<path fill-rule="evenodd" clip-rule="evenodd" d="M320.952 88.2274C321.657 70.3781 302.836 63.5417 302.836 63.5417C288.746 68.0807 276.345 81.3592 289.885 89.4936C289.885 89.4936 282.155 116.759 273.159 130.249C273.159 130.249 287.639 155.822 302.816 140.366C302.816 140.366 302.784 139.88 302.737 139.04C302.506 136.054 301.63 128.624 298.46 123.082C294.409 115.979 297.317 107.478 297.317 107.478C299.543 110.922 304.648 114.928 304.648 114.928C306.896 116.055 309.482 116.313 311.908 115.652C321.972 110.337 320.252 106.073 320.952 88.2274Z" fill="#FF7977"/>
<path fill-rule="evenodd" clip-rule="evenodd" d="M327.281 82.6054C329.543 62.4428 315.509 59.4527 302.84 63.5377C302.84 63.5377 321.661 70.3741 320.957 88.2234C320.252 106.073 321.976 110.333 311.912 115.648C317.424 114.135 324.525 107.152 327.281 82.6054Z" fill="#F45658"/>
<path fill-rule="evenodd" clip-rule="evenodd" d="M297.317 107.478C297.317 107.478 294.409 115.979 298.464 123.078C301.649 128.62 302.51 136.05 302.741 139.036C302.498 134.489 301.92 119.55 304.648 114.928C304.648 114.928 299.543 110.922 297.317 107.478Z" fill="#F45658"/>
<path fill-rule="evenodd" clip-rule="evenodd" d="M332.199 72.0661C337.117 57.5931 334.306 44.2429 326.014 47.6153C317.723 50.9877 319.168 39.3576 312.052 42.5707C311.044 43.152 310.14 44.1633 309.431 45.7878C305.497 54.7821 279.913 50.1436 277.524 60.6828C275.134 71.222 287.225 89.1629 286.428 93.9886C285.632 98.8142 284.668 105.467 284.668 105.467C284.668 105.467 290.224 93.1923 290.363 89.3501C290.363 89.3501 282.115 83.8236 286.428 77.3138C290.741 70.8039 295.094 79.5594 295.094 79.5594C295.094 79.5594 295.397 86.0254 297.086 83.4016C298.774 80.7777 299.419 72.9102 304.652 74.5944C307.532 75.5221 311.227 80.1128 316.345 82.2629C316.373 82.2748 327.285 86.5192 332.199 72.0661Z" fill="#303D8B"/>
<path fill-rule="evenodd" clip-rule="evenodd" d="M332.199 79.1933C346.536 68.2241 345.552 37.0763 336.978 40.5721C328.404 44.0679 323.342 46.3334 323.342 46.3334C323.342 46.3334 316.636 39.9112 312.048 42.5549C319.168 39.3418 317.723 50.972 326.014 47.5996C334.306 44.2272 337.117 57.5774 332.199 72.0503C327.281 86.5233 316.373 82.2591 316.341 82.2471C320.55 84.0349 325.728 84.1463 332.199 79.1933Z" fill="#0A1658"/>
<path fill-rule="evenodd" clip-rule="evenodd" d="M447.643 65.8828C446.019 65.1589 444.135 65.3371 442.676 66.3527C442.676 66.3527 443.238 65.7913 441.741 65.413C440.243 65.0348 436.117 67.3839 433.963 70.0037C431.808 72.6236 430.59 76.3742 430.59 76.3742C430.59 76.3742 407.535 90.0549 398.543 93.9887C389.55 97.9225 332.012 121.907 323.764 124.153C321.748 124.665 319.704 125.064 317.643 125.347C317.643 125.347 332.677 143.734 330.546 175.029C330.546 175.029 337.257 154.696 348.866 145.327C359.817 136.496 401.036 120.275 425.6 97.0505C431.219 91.4166 434.95 87.6222 435.448 87.0568C437.603 84.6201 448.101 81.6219 450.159 78.7194C452.218 75.8168 450.454 67.1012 447.643 65.8828Z" fill="#FF7977"/>
<path fill-rule="evenodd" clip-rule="evenodd" d="M330.546 175.029C329.948 183.293 328.331 191.45 325.732 199.317C330.387 190.987 342.701 173.361 355.998 163.308C367.798 154.389 407.038 115.656 425.612 97.0425C401.036 120.275 359.841 136.496 348.878 145.327C337.257 154.696 330.546 175.029 330.546 175.029Z" fill="#F45658"/>
<path fill-rule="evenodd" clip-rule="evenodd" d="M442.676 66.3528C442.676 66.3528 437.969 69.3628 438.495 71.3656C439.021 73.3683 441.167 79.0938 443.413 78.9504C445.659 78.8071 448.861 78.5523 448.861 78.5523C448.861 78.5523 443.835 80.4157 442.465 80.3798C441.095 80.344 436.281 72.8626 436.739 72.0663C437.197 71.27 437.125 69.4903 442.676 66.3528Z" fill="#F45658"/>
<path fill-rule="evenodd" clip-rule="evenodd" d="M250.324 160.966C250.914 150.491 250.657 139.986 249.555 129.552C247.611 129.576 245.675 129.588 243.744 129.588C220.881 129.588 123.614 87.2438 115.183 82.6053C106.752 77.9668 100.141 66.0221 96.9071 60.4041C93.6734 54.7861 89.3205 55.6262 88.0541 56.0244C86.7877 56.4226 83.5579 53.2373 82.2915 53.2373C81.0251 53.2373 74.4182 62.2277 77.2298 70.2386C80.0414 78.2495 89.0378 81.3392 101.686 90.6162C107.369 94.7809 128.241 112.168 150.141 130.623C150.141 130.623 173.936 144.861 199.523 161.723C219.766 175.073 241.96 165.521 250.324 160.966Z" fill="#FF7977"/>
<path fill-rule="evenodd" clip-rule="evenodd" d="M218.317 207.81C242.211 210.597 248.918 183.92 250.32 160.967C241.957 165.521 219.766 175.073 199.511 161.723C173.932 144.861 150.129 130.623 150.129 130.623C177.003 153.266 205.429 177.522 209.249 180.926C215.087 186.122 219.587 195.16 218.317 207.81Z" fill="#F45658"/>
<path fill-rule="evenodd" clip-rule="evenodd" d="M83.4824 63.9875C83.4824 63.9875 84.1833 67.7103 86.7162 66.3765C89.249 65.0427 92.6182 60.1931 92.6182 60.1931C92.6182 60.1931 89.5278 69.5378 87.0666 69.1158C84.6055 68.6938 83.4824 63.9875 83.4824 63.9875Z" fill="#F45658"/>
<path fill-rule="evenodd" clip-rule="evenodd" d="M93.1119 62.0884C93.1119 62.0884 93.6734 63.6332 92.6181 65.8828C91.5627 68.1324 87.1382 75.2992 85.7324 75.2275C84.3266 75.1559 79.2649 72.4882 79.2649 72.4882C79.2649 72.4882 83.554 77.4771 86.9949 76.5614C90.4357 75.6456 94.7248 65.413 94.5854 64.6605C94.446 63.908 93.1119 62.0884 93.1119 62.0884Z" fill="#F45658"/>
<path fill-rule="evenodd" clip-rule="evenodd" d="M308.021 212.731L258.372 217.931L259.953 180.974L313.641 174.209L308.021 212.731Z" fill="#FEB701"/>
<path d="M284.712 194.878C285.082 201.276 281.733 209.084 272.968 209.585C270.546 209.725 268.145 209.239 266.743 208.224L269.439 202.992C270.5 203.68 271.766 203.984 273.024 203.852C275.556 203.709 276.978 202.259 277.631 199.986C276.772 200.756 275.674 201.206 274.521 201.26C271.152 201.455 268.022 199.44 267.783 195.319C267.492 190.231 270.893 186.779 275.879 186.492C280.726 186.214 284.378 189.009 284.712 194.878ZM276.098 196.072C277.321 196 278.213 194.977 278.129 193.512C278.061 192.317 277.372 191.521 276.174 191.589C274.975 191.656 274.059 192.648 274.147 194.209C274.218 195.419 274.955 196.128 276.098 196.064V196.072Z" fill="#0A1658"/>
<path d="M305.895 193.659C306.261 200.058 302.912 207.861 294.147 208.367C291.725 208.507 289.324 208.017 287.922 207.001L290.61 201.774C291.672 202.461 292.937 202.765 294.194 202.634C296.727 202.486 298.153 201.041 298.802 198.768C297.942 199.536 296.844 199.986 295.692 200.042C292.327 200.237 289.193 198.222 288.958 194.101C288.663 189.013 292.068 185.561 297.05 185.274C301.905 184.991 305.556 187.79 305.895 193.659ZM297.277 194.854C298.5 194.786 299.392 193.763 299.308 192.294C299.24 191.099 298.551 190.303 297.353 190.37C296.154 190.438 295.238 191.434 295.326 192.994C295.397 194.201 296.122 194.909 297.277 194.842V194.854Z" fill="#0A1658"/>
<path fill-rule="evenodd" clip-rule="evenodd" d="M324.298 310.347C331.068 294.99 342.526 274.282 342.529 274.274C305.783 261.135 228.703 247.235 212.63 276.484C212.63 276.484 203.729 317.227 231.558 320.281C240.718 321.28 253.705 321.296 267.4 320.974L266.751 320.655C266.751 320.655 315.835 311.139 324.298 310.347Z" fill="#303D8B"/>
<path fill-rule="evenodd" clip-rule="evenodd" d="M324.298 310.347C315.835 311.143 266.743 320.651 266.743 320.651L267.392 320.97C286.819 320.508 307.615 319.377 320.709 319.397C321.566 316.821 322.804 313.711 324.298 310.347Z" fill="#0A1658"/>
<path fill-rule="evenodd" clip-rule="evenodd" d="M358.061 281.17C354.66 279.076 349.276 276.687 342.53 274.274C342.53 274.274 331.048 294.978 324.298 310.347C324.298 310.347 348.129 314.894 360.311 333.44C372.494 351.986 399.881 387.279 399.881 387.279C404.477 393.223 407.906 398.355 409.439 401.983C409.439 401.983 420.777 400.689 430.311 395.313C421.171 381.083 378.603 293.807 358.061 281.17Z" fill="#FF7977"/>
<path fill-rule="evenodd" clip-rule="evenodd" d="M360.311 333.444C348.129 314.894 324.298 310.351 324.298 310.351C322.82 313.715 321.566 316.825 320.714 319.401C326.492 319.401 330.769 319.652 332.765 320.281C340.415 322.67 380.514 362.227 399.881 387.287C399.881 387.287 372.49 351.994 360.311 333.444Z" fill="#F45658"/>
<path fill-rule="evenodd" clip-rule="evenodd" d="M358.344 284.168C359.117 285.45 353.374 291.685 350.941 290.176C348.507 288.667 354.78 278.264 358.344 284.168Z" fill="#F45658"/>
<path fill-rule="evenodd" clip-rule="evenodd" d="M467.368 430.53C459.658 422.133 435.628 400.446 431.705 397.149C431.174 396.592 430.71 395.975 430.323 395.31C420.789 400.685 409.451 401.979 409.451 401.979C409.654 402.449 409.849 402.906 409.969 403.324C410.94 406.299 413.362 415.042 415.357 420.075C415.405 420.099 448.766 434.807 453.449 434.616C458.133 434.424 467.336 432.899 467.368 430.53Z" fill="#303D8B"/>
<path fill-rule="evenodd" clip-rule="evenodd" d="M417.472 423.754C419.343 424.319 452.517 439.306 458.136 437.809C463.756 436.312 469.757 436.12 469.757 433.688C469.757 433.29 468.873 432.159 467.368 430.53C467.328 432.919 458.128 434.436 453.429 434.623C448.73 434.811 415.385 420.107 415.337 420.083C416.177 422.149 416.926 423.591 417.472 423.754Z" fill="#C8E1F3"/>
<path d="M429.745 410.825C429.745 410.825 433.306 406.143 439.208 405.299" stroke="#C9E2F3" stroke-width="2" stroke-linecap="round"/>
<path d="M432.346 414.035C432.346 414.035 436.281 409.189 442.043 408.978" stroke="#C9E2F3" stroke-width="2" stroke-linecap="round"/>
<path d="M435.858 417.057C435.858 417.057 438.391 412.139 444.926 411.506" stroke="#C9E2F3" stroke-width="2" stroke-linecap="round"/>
<path fill-rule="evenodd" clip-rule="evenodd" d="M59.5159 257.137C59.5159 257.137 82.7097 217.119 139.635 230.592C196.56 244.066 324.298 253.626 365.09 201.945C365.09 201.945 361.781 218.213 360.311 221.024C358.842 223.835 334.74 247.215 247.13 255.123C166.17 262.433 106.76 203.036 66.4653 267.864L59.5159 257.137Z" fill="#FEB701"/>
<path fill-rule="evenodd" clip-rule="evenodd" d="M40.4201 461.176L36.7004 463.88L36.4615 464.051C36.4615 464.051 31.0493 460.265 33.0326 458.819C33.5344 458.457 34.2512 458.421 35.0517 458.581C37.3974 459.074 40.4201 461.176 40.4201 461.176Z" fill="#303D8B"/>
<path opacity="0.57" fill-rule="evenodd" clip-rule="evenodd" d="M37.9549 462.558C37.9549 462.558 37.3974 463.195 36.7004 463.88L36.4615 464.051C36.4615 464.051 31.0493 460.265 33.0326 458.819C33.5344 458.457 34.2512 458.421 35.0517 458.581C32.4512 461.503 37.9549 462.558 37.9549 462.558Z" fill="#0A1658"/>
<path fill-rule="evenodd" clip-rule="evenodd" d="M80.6709 426.541L78.5084 432.513L76.7481 432.254C73.4188 431.777 66.0751 430.753 61.1847 430.347C58.1738 430.115 55.2231 429.38 52.4551 428.173C50.2608 427.134 49.0979 425.924 49.994 424.936C51.7901 422.93 65.3225 421.305 80.6709 426.541Z" fill="#303D8B"/>
<path opacity="0.57" fill-rule="evenodd" clip-rule="evenodd" d="M76.7361 432.234C73.4068 431.757 66.0631 430.733 61.1727 430.327C58.1618 430.095 55.2111 429.36 52.4431 428.153C62.9966 426.425 75.5414 427.703 78.3769 428.524C80.1252 429.033 78.3849 430.873 76.7361 432.234Z" fill="#0A1658"/>
<path fill-rule="evenodd" clip-rule="evenodd" d="M76.8714 429.786V435.559L76.3019 435.703C75.4099 435.926 73.5461 436.383 71.3836 436.873C68.7552 437.466 65.6807 438.111 63.339 438.466C58.1937 439.202 40.0575 438.828 40.7824 434.138C41.4275 429.937 59.7349 427.767 72.6221 429.169C74.1235 429.308 75.5532 429.523 76.8714 429.786Z" fill="#303D8B"/>
<path fill-rule="evenodd" clip-rule="evenodd" d="M76.1507 432.31C76.1507 432.31 50.5236 429.607 47.8195 435.018C46.5132 437.626 68.2097 437.184 75.2467 434.659C82.2837 432.135 76.1507 432.31 76.1507 432.31Z" fill="#0A1658"/>
<path opacity="0.57" fill-rule="evenodd" clip-rule="evenodd" d="M76.8714 429.786V434.166C76.6324 434.819 76.4253 435.36 76.3019 435.706C75.4098 435.929 73.546 436.387 71.3835 436.877C71.9092 435.858 72.9765 433.262 72.6221 429.153C74.1235 429.308 75.5532 429.523 76.8714 429.786Z" fill="#0A1658"/>
<path fill-rule="evenodd" clip-rule="evenodd" d="M56.4814 473.627C55.1762 477.015 51.7987 479.144 48.178 478.859C48.178 478.859 46.5571 483.37 44.5699 481.204C43.4866 480.009 43.9605 478.572 44.6177 477.497C45.2169 476.537 46.2736 475.959 47.4054 475.972H48.3731L48.0107 473.448L56.4814 473.627Z" fill="#0A1658"/>
<path fill-rule="evenodd" clip-rule="evenodd" d="M78.8546 473.627C85.354 477.055 90.4038 475.251 90.7662 472.723C91.1286 470.195 84.6292 470.919 82.1043 469.837C79.5794 468.754 76.8714 470.561 78.8546 473.627Z" fill="#0A1658"/>
<path fill-rule="evenodd" clip-rule="evenodd" d="M105.203 446.927C105.203 446.927 98.7074 451.975 91.4872 467.312C71.4594 476.334 66.7641 473.448 60.8223 473.806C56.2305 474.085 48.2018 475.001 44.769 475.399L43.1401 475.594L44.753 471.895L48.1262 464.175L49.994 459.898C49.994 459.898 61.7263 457.191 64.972 450.88C63.3721 449.404 62.2958 447.447 61.9055 445.306C61.9055 445.306 73.4546 442.419 75.6211 430.694C78.146 426.903 83.1878 424.558 83.1878 424.558C83.1878 424.558 88.0583 424.558 89.6832 424.92C90.4797 425.096 94.1913 430.343 97.7875 435.671C99.8106 438.665 101.77 441.679 103.196 443.837C104.414 445.704 105.203 446.927 105.203 446.927Z" fill="#C9E2F4"/>
<path opacity="0.37" fill-rule="evenodd" clip-rule="evenodd" d="M105.203 446.926C105.203 446.926 98.7074 451.975 91.4872 467.312C71.4594 476.334 66.7641 473.448 60.8223 473.806C56.2305 474.085 48.2018 475 44.769 475.399L43.1401 475.594L44.753 471.895L49.0342 469.159C52.8812 472.647 60.4638 470.242 60.4638 470.242L69.1257 467.853C69.1257 467.853 81.8696 467.973 87.8911 465.066C93.9125 462.16 88.2535 454.842 98.5999 447.026C100.153 445.831 101.706 444.764 103.208 443.809C104.414 445.704 105.203 446.926 105.203 446.926Z" fill="#303D8B"/>
<path fill-rule="evenodd" clip-rule="evenodd" d="M50.5236 468.232C50.5236 468.232 50.0218 468.921 49.2014 469.992C48.1301 471.393 46.5053 473.448 44.757 475.43C43.0087 477.413 41.0971 479.38 39.516 480.499C35.1871 483.565 31.0374 480.678 31.0374 480.678C31.0374 480.678 29.4125 484.469 26.5253 482.844C23.638 481.22 28.3293 476.529 29.0501 476.35C29.771 476.171 31.579 476.888 33.7415 476.35C32.4671 470.601 34.5818 465.795 36.5292 462.813C37.7734 460.911 40.0188 459.916 42.2639 460.273C43.6479 460.502 45.0513 460.594 46.4535 460.547C47.6536 460.513 48.8424 460.304 49.982 459.926L50.5236 468.232Z" fill="#303D8B"/>
<path fill-rule="evenodd" clip-rule="evenodd" d="M70.9177 452.337C70.9177 452.337 73.0802 455.586 75.609 459.556C70.1929 459.914 50.5195 468.216 50.5195 468.216C50.5195 468.216 49.273 466.341 48.1101 464.191C47.4546 463.021 46.899 461.798 46.4495 460.535C47.6496 460.501 48.8383 460.292 49.9779 459.914C49.9779 459.914 61.7103 457.207 64.956 450.896C63.3561 449.42 62.2798 447.463 61.8895 445.322C61.8895 445.322 73.4386 442.435 75.6051 430.71C78.1299 426.919 83.1717 424.574 83.1717 424.574C83.1717 424.574 88.0423 424.574 89.6671 424.936C90.4636 425.111 94.1753 430.359 97.7715 435.687L74.6971 443.148L73.0523 447.13L71.2522 451.509L70.9177 452.337Z" fill="#303D8B"/>
<path opacity="0.57" fill-rule="evenodd" clip-rule="evenodd" d="M79.5794 450.052C79.5794 450.052 74.6412 451.358 71.2601 451.505C69.1409 451.638 67.0142 451.432 64.9598 450.896C63.3599 449.42 62.2836 447.463 61.8933 445.322C63.8606 447.134 68.7511 447.361 73.0442 447.15C75.6292 447.021 78.2055 446.755 80.7622 446.353L79.5794 450.052Z" fill="#0A1658"/>
<path fill-rule="evenodd" clip-rule="evenodd" d="M99.7865 447.647C99.7865 447.647 99.5834 447.647 99.217 447.723C96.9595 448.109 94.7918 448.905 92.8212 450.072C92.0395 450.533 91.2916 451.049 90.583 451.617C86.0709 455.224 85.1669 455.224 84.2668 452.517C84.1085 452.041 84.0029 451.55 83.9522 451.051C83.7173 448.722 84.6173 446.17 86.2501 443.486L98.994 447.388L99.7865 447.647Z" fill="#AE3628"/>
<g style="mix-blend-mode:multiply" opacity="0.4">
<path fill-rule="evenodd" clip-rule="evenodd" d="M99.2209 447.723C96.9634 448.109 94.7957 448.905 92.8251 450.072C91.2321 448.877 86.6642 446.206 83.9561 451.051C83.7212 448.722 84.6212 446.17 86.254 443.486L98.9979 447.388C99.0795 447.495 99.154 447.606 99.2209 447.723Z" fill="#AE3628"/>
</g>
<path fill-rule="evenodd" clip-rule="evenodd" d="M80.842 472.906C80.7265 473.957 79.6951 475.017 78.2415 475.825C77.5832 476.186 76.8909 476.483 76.1746 476.709C75.9914 476.764 75.8002 476.824 75.6091 476.872C72.901 477.597 65.1432 477.055 57.2021 472.182C56.9526 472 56.7133 471.805 56.4853 471.596C51.4555 467.01 64.725 465.56 67.6681 466.771C68.111 466.95 68.533 467.177 68.9265 467.448C70.6589 468.642 70.7306 470.107 73.4426 470.561C76.6883 471.099 81.0212 471.282 80.842 472.906Z" fill="#C9E2F4"/>
<path fill-rule="evenodd" clip-rule="evenodd" d="M89.5039 444.342C87.6999 447.591 80.3005 452.103 73.9723 449.917C73.0859 449.626 72.2502 449.199 71.4953 448.651C68.154 446.146 69.5359 442.479 71.8059 444.143C74.2591 445.943 79.9819 447.002 85.1949 444.757C85.7422 444.525 86.2743 444.259 86.7879 443.96C86.7879 443.96 91.308 441.109 89.5039 444.342Z" fill="#FF7547"/>
<g style="mix-blend-mode:multiply" opacity="0.4">
<path fill-rule="evenodd" clip-rule="evenodd" d="M89.5038 444.342C87.6998 447.591 80.3003 452.103 73.9722 449.917C73.0857 449.626 72.25 449.199 71.4951 448.651C78.8786 451.836 85.0116 448.296 85.8798 446.17C86.3417 445.051 85.82 444.765 85.1948 444.757C85.7421 444.525 86.2741 444.259 86.7878 443.96C86.7878 443.96 91.3079 441.109 89.5038 444.342Z" fill="#AE3628"/>
</g>
<path fill-rule="evenodd" clip-rule="evenodd" d="M89.659 434.572C89.6272 434.659 89.5873 434.743 89.5515 434.827C88.2015 437.614 84.5814 435.249 82.8132 433.059C81.045 430.869 80.3958 428.205 83.4504 428.169H83.6535C87.5762 428.273 90.7064 431.821 89.659 434.572Z" fill="white"/>
<path fill-rule="evenodd" clip-rule="evenodd" d="M93.5619 433.664C93.49 433.659 93.419 433.644 93.3508 433.62C91.2043 433.035 87.4887 427.409 88.7232 426.796C88.9447 426.709 89.1907 426.709 89.4122 426.796C93.9243 428.161 95.9076 433.935 93.5619 433.664Z" fill="white"/>
<path fill-rule="evenodd" clip-rule="evenodd" d="M89.6591 434.572C88.6236 435.332 86.5607 434.683 84.904 433.031C83.1915 431.311 82.5544 429.161 83.4504 428.169H83.6535C87.5762 428.273 90.7065 431.821 89.6591 434.572Z" fill="#231F20"/>
<path fill-rule="evenodd" clip-rule="evenodd" d="M93.538 433.505C93.4821 433.553 93.419 433.592 93.3508 433.62C91.2043 433.035 87.4887 427.409 88.7232 426.796C89.6073 427.071 90.7583 427.883 91.8136 429.041C93.4703 430.865 94.2429 432.864 93.538 433.505Z" fill="#231F20"/>
<path fill-rule="evenodd" clip-rule="evenodd" d="M22.2241 490.15H89.0339C89.0339 490.15 80.3282 493.495 55.633 493.495C30.9377 493.495 22.2241 490.15 22.2241 490.15Z" fill="#D3D5D7"/>
<path fill-rule="evenodd" clip-rule="evenodd" d="M116.015 436.666C114.1 440.918 110.209 446.027 106.103 447.468C95.8201 451.075 86.2542 443.486 86.2542 443.486L74.7051 443.124C75.2467 442.583 91.1288 436.63 96.7201 434.464C99.6617 433.346 102.659 432.381 105.701 431.574C110.555 430.287 115.362 429.499 116.752 430.678C117.68 431.47 117.27 433.887 116.015 436.666Z" fill="#C9E2F4"/>
<path fill-rule="evenodd" clip-rule="evenodd" d="M117.242 432.545C117.063 433.977 116.649 435.37 116.015 436.666C112.144 438.259 102.578 435.261 105.701 431.586C106.342 431.418 106.987 431.255 107.62 431.104C111.77 430.124 115.545 429.666 116.752 430.706C117.154 431.032 117.309 431.685 117.242 432.545Z" fill="#231F20"/>
<path fill-rule="evenodd" clip-rule="evenodd" d="M84.4023 444.044C84.6054 444.418 87.4728 443.729 87.4051 443.427C87.1781 442.399 83.8965 443.12 84.4023 444.044Z" fill="#AE3628"/>
<path fill-rule="evenodd" clip-rule="evenodd" d="M80.8421 472.906C80.7266 473.957 79.6951 475.016 78.2415 475.825C74.6932 476.259 69.6394 474.63 66.2265 472.906C61.5152 470.549 62.4551 466.814 68.9266 467.447C70.6589 468.642 70.7306 470.107 73.4427 470.561C76.6884 471.098 81.0213 471.282 80.8421 472.906Z" fill="#C9E2F4"/>
<g style="mix-blend-mode:screen">
<path fill-rule="evenodd" clip-rule="evenodd" d="M117.242 432.545C114.199 433.063 108.134 433.087 107.62 431.104C111.77 430.124 115.545 429.666 116.752 430.706C117.154 431.032 117.309 431.685 117.242 432.545Z" fill="#58595B"/>
</g>
<path fill-rule="evenodd" clip-rule="evenodd" d="M86.3457 429.38C85.6328 430.033 87.0227 431.37 87.6081 430.913C88.1935 430.455 86.8873 428.886 86.3457 429.38Z" fill="white"/>
<path fill-rule="evenodd" clip-rule="evenodd" d="M89.4321 428.54C89.2051 429.296 90.4357 430.303 90.6507 429.762C90.8658 429.22 89.5834 427.962 89.4321 428.54Z" fill="white"/>
<path opacity="0.57" fill-rule="evenodd" clip-rule="evenodd" d="M49.2092 469.976C48.1379 471.377 46.5131 473.432 44.7648 475.415C43.0165 477.398 41.1049 479.364 39.5239 480.483C35.1949 483.549 31.0452 480.662 31.0452 480.662C31.0452 480.662 29.4204 484.453 26.5331 482.828C23.6458 481.204 28.3371 476.514 29.0579 476.334C29.7788 476.155 31.5868 476.872 33.7493 476.334C32.4749 470.585 34.5896 465.779 36.537 462.797C31.9293 471.732 44.6851 472.743 49.2092 469.976Z" fill="#0A1658"/>
<path opacity="0.37" fill-rule="evenodd" clip-rule="evenodd" d="M76.1746 476.709C75.9914 476.764 75.8003 476.824 75.6091 476.872C72.9011 477.596 65.1432 477.055 57.2022 472.181C56.9526 472 56.7133 471.804 56.4854 471.596C63.8967 476.087 72.9409 476.593 76.1746 476.709Z" fill="#303D8B"/>
<path fill-rule="evenodd" clip-rule="evenodd" d="M403.027 287.509C401.311 287.306 399.734 288.118 398.587 289.364C397.276 290.789 396.655 292.581 396.372 294.464C395.815 298.199 396.372 302.32 394.11 305.589C393.188 306.97 391.712 307.883 390.064 308.093C388.272 308.308 386.48 307.803 384.736 307.484C382.991 307.166 381.187 306.986 379.558 307.751C378.021 308.464 376.902 309.809 375.899 311.131C374.728 312.66 373.656 314.249 371.992 315.28C370.427 316.255 368.431 316.741 366.815 315.571C366.831 315.891 366.81 316.211 366.751 316.526C366.751 316.65 366.611 317.414 366.715 317.478C368.077 318.481 369.766 318.274 371.215 317.553C372.808 316.757 373.927 315.495 374.983 314.097C376.038 312.7 376.974 311.31 378.364 310.295C379.813 309.224 381.506 308.969 383.262 309.176C386.607 309.574 390.431 311.195 393.218 308.424C395.867 305.804 395.827 301.798 396.054 298.354C396.209 296.065 396.576 293.724 397.989 291.845C399.16 290.292 400.912 289.161 402.912 289.4C402.987 288.772 403.03 288.141 403.039 287.509H403.027Z" fill="#E17000"/>
<path fill-rule="evenodd" clip-rule="evenodd" d="M413.099 50.8287C412.93 54.6524 414.933 58.2442 418.276 60.1097C418.603 60.3009 421.37 58.1548 421.749 57.9119C422.545 57.3983 423.381 56.8528 424.166 56.3193C424.479 56.0624 424.815 55.8345 425.17 55.6384C421.828 53.7715 419.825 50.1807 419.992 46.3574C419.665 46.5914 419.32 46.8004 418.961 46.9825C418.164 47.4961 417.332 48.0138 416.52 48.5752C415.707 49.1366 414.887 49.6342 414.102 50.1678C413.939 50.2793 413.123 50.7132 413.099 50.8486V50.8287Z" fill="#E17000"/>
<path fill-rule="evenodd" clip-rule="evenodd" d="M86.5968 20.4254C86.8955 25.0122 91.3479 28.5956 95.8799 27.9187C96.0742 27.5712 96.2381 27.2075 96.3698 26.8318C96.7481 25.9359 97.1304 25.0401 97.5087 24.1721C97.8871 23.3041 98.2415 22.3804 98.6238 21.4845C98.7311 21.1007 98.8765 20.7285 99.0579 20.3737C94.5219 21.0505 90.0695 17.4671 89.7708 12.8804C89.6506 13.2606 89.4862 13.6254 89.281 13.9673C88.9026 14.8632 88.5243 15.759 88.142 16.627C87.7597 17.495 87.4092 18.4187 87.0309 19.3146C86.9194 19.5853 86.5689 20.1109 86.5968 20.4254Z" fill="#FEB701"/>
<path fill-rule="evenodd" clip-rule="evenodd" d="M141.821 47.1297C140.495 45.971 138.886 45.0553 137.409 44.0997C136.612 43.5781 135.84 43.0924 134.868 42.9968C133.868 42.9349 132.885 43.2813 132.145 43.9567C131.405 44.6321 130.971 45.5788 130.941 46.5802C131.151 46.7574 131.376 46.9147 131.614 47.0501C132.156 47.4243 132.718 47.7986 133.275 48.1689L134.94 49.2757C135.015 49.3315 135.653 49.6739 135.633 49.7217C135.682 48.424 136.407 47.2468 137.544 46.6193C138.681 45.9918 140.064 46.0057 141.188 46.6559C141.077 46.5802 140.965 46.5245 140.85 46.4488L137.11 44.0002C137.85 44.5866 138.631 45.1188 139.448 45.5928C140.217 46.1184 141.133 46.5484 141.837 47.1456L141.821 47.1297Z" fill="#E17000"/>
<path fill-rule="evenodd" clip-rule="evenodd" d="M472.943 59.4964C475.339 63.6237 479.637 66.2826 484.401 66.5836C484.696 66.3133 484.963 66.0131 485.197 65.6878C485.85 64.9552 486.476 64.2464 487.097 63.5138C487.718 62.7812 488.375 62.0486 489 61.316C489.108 61.1806 489.65 60.3923 489.761 60.3923C484.999 60.0914 480.701 57.4343 478.304 53.3091C478.383 53.4445 475.803 56.0962 475.588 56.3749C475.372 56.6536 472.764 59.2257 472.927 59.4964H472.943Z" fill="#FEB701"/>
<path fill-rule="evenodd" clip-rule="evenodd" d="M214.509 33.6163C212.564 33.8748 210.804 34.9011 209.621 36.4661C208.438 38.0311 207.931 40.0045 208.213 41.9457C208.44 43.2517 209.077 44.6014 209.487 45.8477C209.898 47.0939 210.626 48.4317 210.841 49.7138C210.556 47.772 211.062 45.7968 212.245 44.231C213.429 42.6652 215.191 41.6397 217.138 41.3843C217.054 41.3843 215.943 37.8009 215.859 37.4824C215.776 37.1639 214.74 33.5964 214.509 33.6163Z" fill="#E17000"/>
<path fill-rule="evenodd" clip-rule="evenodd" d="M245.748 85.6037L240.129 95.1156C240.32 94.817 247.512 98.5636 247.759 98.1575L253.378 88.6297C253.187 88.9561 245.991 85.1816 245.748 85.5877V85.6037Z" fill="#FEB701"/>
<path fill-rule="evenodd" clip-rule="evenodd" d="M98.0504 109.37L92.4312 118.897C92.6223 118.599 99.8186 122.342 100.062 121.935L105.681 112.408C105.49 112.734 98.2973 108.959 98.0504 109.37Z" fill="#FEB701"/>
<path fill-rule="evenodd" clip-rule="evenodd" d="M153.948 10.6745C154.139 11.3832 154.346 12.088 154.546 12.7927C154.745 13.4975 154.681 13.3382 155.278 13.4736C155.731 13.5221 156.189 13.5033 156.636 13.4178L161.766 13.2546C162.164 13.2546 162.256 5.08441 162.526 5.08441L157.397 5.24765C157.043 5.24765 156.688 5.27553 156.31 5.27553C156.039 5.27553 155.768 5.3034 155.493 5.3034C155.442 5.14015 155.414 4.97691 155.358 4.84154C155.007 4.18856 154.9 3.21308 154.681 2.48047C154.669 2.88171 154.624 3.28127 154.546 3.67494C154.438 4.62255 154.354 5.60201 154.275 6.54963C154.195 7.49724 154.084 8.4767 154.028 9.4283C154.004 9.80654 153.841 10.352 153.948 10.6745Z" fill="#303D8B"/>
<path fill-rule="evenodd" clip-rule="evenodd" d="M474.803 83.7085C473.984 87.0253 471.793 89.8378 468.778 91.4447C468.993 91.3372 470.92 92.5316 471.219 92.6949C471.518 92.8581 473.365 94.0486 473.692 93.8893C476.707 92.2824 478.896 89.4697 479.713 86.1532C479.797 85.7152 474.692 84.0629 474.799 83.7085H474.803Z" fill="#303D8B"/>
<path fill-rule="evenodd" clip-rule="evenodd" d="M407.738 41.9257C406.145 44.5018 404.553 47.0819 402.932 49.634C402.987 49.5504 405.377 50.1755 405.596 50.2313C405.815 50.287 408.173 50.9639 408.28 50.7728C409.873 48.1927 411.475 45.6233 413.087 43.0645C413.035 43.1441 410.646 42.523 410.427 42.4672C410.208 42.4115 407.846 41.7346 407.738 41.9257Z" fill="#303D8B"/>
<path fill-rule="evenodd" clip-rule="evenodd" d="M479.765 0.748534C479.009 3.16534 478.272 5.58215 477.515 7.99498C477.567 7.83173 479.956 7.67247 480.227 7.6446C480.498 7.61673 482.864 7.48136 482.943 7.24644C483.704 4.83362 484.437 2.41681 485.197 0C485.142 0.163244 482.752 0.326488 482.481 0.354359C482.21 0.38223 479.821 0.517603 479.765 0.752515V0.748534Z" fill="#E17000"/>
<path fill-rule="evenodd" clip-rule="evenodd" d="M358.248 17.0331L347.986 12.8804C348.312 13.0157 345.652 20.6723 346.086 20.8435L356.349 24.9963C356.022 24.8609 358.71 17.1805 358.248 17.0331Z" fill="#303D8B"/>
<path fill-rule="evenodd" clip-rule="evenodd" d="M457.981 123.683C467.021 125.204 473.756 133.944 473.728 143.01C473.7 147.76 471.964 152.374 469.168 156.173C468.532 157.04 467.842 157.866 467.101 158.645C466.886 158.888 465.309 160.353 467.021 158.809C468.515 157.451 467.511 158.347 467.129 158.645C466.559 159.079 465.962 159.485 465.337 159.892C463.111 161.277 460.614 162.444 457.981 162.715C455.194 163.013 452.442 162.201 450.785 159.892C450.117 158.999 449.713 157.937 449.618 156.826C449.572 156.257 449.636 155.685 449.809 155.142C450.108 154.166 451.49 152.836 449.319 154.763L448.18 155.739C452.74 152.239 457.846 156.392 460.422 160.246C462.8 163.887 464.174 168.091 464.405 172.434C464.651 176.731 463.917 181.027 462.258 184.999C461.447 186.977 460.399 188.849 459.136 190.574C458.499 191.445 457.8 192.27 457.045 193.042C456.83 193.289 456.556 193.504 456.34 193.751C456.205 193.914 458.893 191.605 457.726 192.473C457.181 192.871 456.667 193.289 456.094 193.639C452.051 196.299 445.373 198.338 441.924 193.639C440.729 192.011 440.132 189.706 441.056 187.806C441.163 187.587 441.271 187.408 441.378 187.233C442.223 185.716 438.419 189.224 439.59 188.782C440.003 188.582 440.429 188.41 440.865 188.268C441.899 188.04 442.976 188.086 443.987 188.404C449.307 189.996 449.634 196.084 447.786 200.48C445.616 205.656 441.016 209.303 438.694 214.415C434.313 224.186 436.846 236.537 444.827 243.676C444.963 243.811 447.786 240.889 447.898 240.96C442.031 235.72 439.136 227.741 439.698 219.949C439.968 216.088 441.159 212.347 443.17 209.04C445.671 204.995 449.391 201.682 451.072 197.151C452.458 193.432 452.35 188.547 448.519 186.345C447.087 185.475 445.367 185.211 443.74 185.613C442.028 186.102 440.642 187.703 439.359 188.869C438.192 189.929 437.432 191.151 437.488 192.779C437.591 194.567 438.39 196.244 439.714 197.45C443.159 200.595 448.507 199.042 452.059 196.96C455.07 195.196 457.842 192.672 460.231 190.12C462.622 187.526 464.468 184.48 465.659 181.161C468.105 174.512 468.077 166.855 465.034 160.397C463.377 156.921 460.653 152.988 456.727 151.956C453.007 150.977 449.913 153.613 447.567 156.217C444.931 159.175 447.268 163.598 450.498 164.928C454.787 166.696 459.809 164.331 463.314 161.835C469.773 157.248 475.504 150.814 476.508 142.671C477.483 134.772 473.322 126.602 466.301 122.803C464.628 121.888 462.809 121.273 460.924 120.984C460.653 120.928 459.594 122.15 459.375 122.341C459.295 122.477 458.236 123.727 457.965 123.671L457.981 123.683Z" fill="#FEB701"/>
<path fill-rule="evenodd" clip-rule="evenodd" d="M62.6223 33.9867C66.1548 34.783 67.5685 38.5416 67.2659 41.8542C67.1878 42.6772 67.0141 43.4883 66.7481 44.271C66.6135 44.6565 66.4511 45.0318 66.2623 45.3938C66.1309 45.6646 65.9596 45.8876 65.8043 46.1503C67.8712 42.5669 67.6482 43.7614 66.7123 44.7528C65.1579 46.306 63.4193 47.6632 61.5351 48.7941C57.9509 51.0676 54.3945 53.134 51.7741 56.5781C49.3846 59.6837 46.6447 63.0202 47.4651 67.1969C48.6598 73.4957 55.88 76.5297 57.2101 82.725C57.5701 84.5244 57.328 86.3922 56.5212 88.0404C56.3096 88.4951 56.073 88.9377 55.8123 89.3662C54.7211 91.1579 56.115 89.1034 56.2703 88.8446C56.0959 89.0933 55.9085 89.3325 55.7088 89.5613C55.0278 90.4333 54.3707 91.3172 53.7175 92.225C51.328 95.4899 49.0302 98.6592 49.2094 102.911C49.6873 113.781 60.6311 118.997 69.2929 122.644C69.6235 122.768 71.4674 119.228 71.7183 119.323C63.7533 115.975 54.5937 111.814 52.1166 102.681C51.5849 100.799 51.4748 98.824 51.794 96.8953C51.9697 95.9753 52.2517 95.0788 52.6343 94.2237C52.8708 93.6892 53.1463 93.1729 53.4587 92.6789C53.6259 92.3922 54.4822 91.2097 53.4826 92.5435C52.5347 93.8057 53.2436 92.858 53.4626 92.5913C54.7968 90.8354 56.1269 89.1034 57.3973 87.2958C58.4965 85.7032 59.4722 83.9871 59.739 82.0561C60.5952 75.4706 53.2834 71.5527 50.6948 66.297C49.9198 64.7808 49.5924 63.0752 49.751 61.3798C49.8575 60.3998 50.1267 59.4444 50.5475 58.5529C50.7546 58.0791 52.013 56.164 50.8183 57.8402C49.6236 59.5164 51.1528 57.6491 51.5431 57.3067C54.7569 54.2887 58.8509 52.5288 62.2957 49.8014C64.048 48.4079 65.3662 46.6998 66.6765 44.9081C67.8712 43.3155 69.0102 41.7627 69.4443 39.7759C70.2408 36.1925 68.9544 31.6017 64.972 30.6979C64.8087 30.6621 63.8609 32.1631 63.7334 32.3463C63.7095 32.4816 62.7418 34.0305 62.6183 33.9827L62.6223 33.9867Z" fill="#FEB701"/>
<path fill-rule="evenodd" clip-rule="evenodd" d="M157.27 88.2552C153.642 88.9441 150.953 91.6117 149.424 94.8846C147.672 98.6232 147.556 102.676 148.194 106.686C149.456 114.649 153.267 122.676 150.734 130.79C149.744 134.194 147.326 137.001 144.108 138.487C140.595 140.079 136.644 140.187 132.869 140.665C129.094 141.142 125.326 141.935 122.487 144.531C119.811 146.967 118.401 150.431 117.202 153.768C115.8 157.626 114.645 161.548 111.917 164.713C109.361 167.711 105.605 169.977 101.591 168.623C101.754 168.687 102.037 170.391 102.077 170.614C102.117 170.837 102.363 172.517 102.61 172.581C106.027 173.751 109.341 172.25 111.826 169.845C114.554 167.218 116.015 163.913 117.266 160.385C118.461 156.989 119.544 153.433 121.714 150.475C123.98 147.37 127.258 145.765 130.961 145.052C138.018 143.683 146.84 144.57 150.726 137.137C154.43 130.109 151.782 121.979 150.033 114.816C148.875 110.058 148.122 105.057 149.787 100.319C151.172 96.4095 154.02 92.9814 158.237 92.189C158.237 92.2408 157.417 88.2353 157.282 88.2513L157.27 88.2552Z" fill="#303D8B"/>
</svg>
