<svg width="523" height="400" viewBox="0 0 523 400" fill="none" xmlns="http://www.w3.org/2000/svg">
<path fill-rule="evenodd" clip-rule="evenodd" d="M481.04 365.221H443.781L438.819 292.606H486.299L481.04 365.221Z" fill="#D3D5D7"/>
<path fill-rule="evenodd" clip-rule="evenodd" d="M452.473 276.677C452.473 276.677 458.381 247.47 446.562 235.657C434.742 223.844 428.003 219.621 428.003 219.621C428.003 219.621 406.041 254.751 452.473 276.677Z" fill="#EBECF0"/>
<path fill-rule="evenodd" clip-rule="evenodd" d="M455.175 195.2C455.175 195.2 461.082 165.994 449.263 154.184C437.444 142.374 430.704 138.148 430.704 138.148C430.704 138.148 408.736 173.258 455.175 195.2Z" fill="#EBECF0"/>
<path fill-rule="evenodd" clip-rule="evenodd" d="M459.563 147.71C459.563 147.71 464.743 128.695 454.948 117.888C445.153 107.082 434.574 104.385 434.574 104.385C434.574 104.385 433.223 134.32 459.563 147.71Z" fill="#D3D5D7"/>
<path fill-rule="evenodd" clip-rule="evenodd" d="M469.018 261.317C469.018 261.317 466.654 218.947 494.85 201.224C494.85 201.224 495.032 251.184 469.018 261.317Z" fill="#EBECF0"/>
<path fill-rule="evenodd" clip-rule="evenodd" d="M462.292 235.763C462.292 235.763 458.89 206.278 437.351 197.41C437.351 197.41 443.156 231.867 462.292 235.763Z" fill="#D3D5D7"/>
<path fill-rule="evenodd" clip-rule="evenodd" d="M474.253 185.861C474.253 185.861 457.199 155.644 491.811 133.196C491.811 133.196 505.095 170.989 474.253 185.861Z" fill="#D3D5D7"/>
<path d="M453.951 130.832C453.951 130.832 463.502 149.511 463.502 178.095V220.634" stroke="#D3D5D7" stroke-width="2" stroke-linecap="round"/>
<path d="M445.27 172.694C445.27 172.694 453.26 186.988 455.174 195.2C457.089 203.412 458.725 229.75 458.725 256.421V314.49" stroke="#D3D5D7" stroke-width="2" stroke-linecap="round"/>
<path d="M442.568 254.844C442.568 254.844 451.504 269.138 452.473 276.676C453.442 284.215 452.473 315.332 452.473 315.332" stroke="#D3D5D7" stroke-width="2" stroke-linecap="round"/>
<path d="M454.752 225.108C454.752 225.108 460.123 231.636 462.292 235.76C464.461 239.883 466.231 254.658 466.231 261.314V310.941" stroke="#D3D5D7" stroke-width="2" stroke-linecap="round"/>
<path d="M481.006 163.073C481.006 163.073 474.253 176.24 474.253 185.861V310.934" stroke="#D3D5D7" stroke-width="2" stroke-linecap="round"/>
<path d="M111.012 13.5657H110.359V32.1342H111.012V13.5657Z" fill="#D3D5D7"/>
<path d="M139.579 32.1343H138.926V50.7028H139.579V32.1343Z" fill="#D3D5D7"/>
<path d="M120.112 50.7026H119.459V69.2712H120.112V50.7026Z" fill="#D3D5D7"/>
<path d="M168.053 31.8079H84.4205V32.4607H168.053V31.8079Z" fill="#D3D5D7"/>
<path d="M159.183 50.3765H75.5502V51.0293H159.183V50.3765Z" fill="#D3D5D7"/>
<path d="M181.759 68.9448H98.1267V69.5977H181.759V68.9448Z" fill="#D3D5D7"/>
<path fill-rule="evenodd" clip-rule="evenodd" d="M453.93 6.78271V63.3681L363.118 63.3681V6.78271L453.93 6.78271Z" fill="#EBECF0"/>
<path d="M461.77 70.1475H355.279V0H461.77V70.1475ZM355.605 69.8039H461.443V0.347044H355.605V69.8039Z" fill="#DEDFED"/>
<path fill-rule="evenodd" clip-rule="evenodd" d="M523.781 374.983C523.781 374.983 550.276 374.546 539.848 379.625C529.421 384.704 437.052 385.81 396.281 390.462C355.509 395.115 257.432 394.029 317.515 387.49C377.598 380.951 478.971 373.887 523.781 374.983Z" fill="#D3D5D7"/>
<path fill-rule="evenodd" clip-rule="evenodd" d="M111.159 390.476C111.159 390.476 179.041 392.039 166.558 396.317C154.075 400.595 32.4107 400.162 20.6739 399.753C8.93704 399.344 -19.3036 394.046 20.6739 393.355C60.6514 392.665 111.159 390.476 111.159 390.476Z" fill="#D3D5D7"/>
<path d="M52.4546 43.5385C52.4546 43.5385 205.504 41.3463 165.589 109.48C125.673 177.614 20.1654 258.025 159.746 260.767C299.327 263.509 365.153 99.4985 480.996 80.0297" stroke="#1F2055" stroke-width="2" stroke-linecap="round" stroke-dasharray="8 8"/>
<path fill-rule="evenodd" clip-rule="evenodd" d="M61.002 47.8028L57.4792 51.579L30.6202 40.3809L61.002 47.8028Z" fill="#1F2055"/>
<path fill-rule="evenodd" clip-rule="evenodd" d="M59.7509 35.3333L62.4041 39.3363L60.6101 43.2568L64.6312 43.9406L68.1883 51.744L29.7574 40.1197L59.7509 35.3333Z" fill="#2F3E8A"/>
<path fill-rule="evenodd" clip-rule="evenodd" d="M60.6103 43.2567L62.4043 39.3362L41.5873 40.3086L60.6103 43.2567Z" fill="#1F2055"/>
<path fill-rule="evenodd" clip-rule="evenodd" d="M474.266 81.6893L477.793 85.4655L504.652 74.2673L474.266 81.6893Z" fill="#1F2055"/>
<path fill-rule="evenodd" clip-rule="evenodd" d="M475.521 69.2197L472.868 73.2228L474.662 77.1433L470.637 77.8271L467.083 85.6304L505.514 74.0062L475.521 69.2197Z" fill="#2F3E8A"/>
<path fill-rule="evenodd" clip-rule="evenodd" d="M474.661 77.1435L472.867 73.2229L493.684 74.1953L474.661 77.1435Z" fill="#1F2055"/>
<path fill-rule="evenodd" clip-rule="evenodd" d="M384.303 361.675H158.22C145.484 361.669 135.162 351.345 135.162 338.612V43.9817C135.162 31.2443 145.49 20.9187 158.231 20.9187H240.461C248.174 20.9197 255.376 24.7735 259.655 31.1891L264.412 38.3259C268.694 44.7376 275.896 48.5873 283.607 48.586H384.307C397.045 48.5936 407.367 58.9233 407.361 71.6593V338.612C407.361 351.345 397.039 361.669 384.303 361.675Z" fill="url(#paint0_linear_168_4160)"/>
<path d="M380.886 77.4253H158.685C156.094 77.4253 153.993 79.5261 153.993 82.1175V99.641C153.993 102.232 156.094 104.333 158.685 104.333H380.886C383.477 104.333 385.578 102.232 385.578 99.641V82.1175C385.578 79.5261 383.477 77.4253 380.886 77.4253Z" fill="#EBECF0"/>
<path fill-rule="evenodd" clip-rule="evenodd" d="M357.946 104.337H319.883C312.45 104.337 306.424 98.3123 306.424 90.881C306.424 83.4496 312.45 77.4253 319.883 77.4253H357.946C365.379 77.4253 371.405 83.4496 371.405 90.881C371.405 98.3123 365.379 104.337 357.946 104.337Z" fill="#303D8B"/>
<path d="M371.68 132.096H170.843C169.074 132.096 167.641 133.53 167.641 135.299V358.472C167.641 360.241 169.074 361.675 170.843 361.675H371.68C373.449 361.675 374.883 360.241 374.883 358.472V135.299C374.883 133.53 373.449 132.096 371.68 132.096Z" fill="#EBECF0"/>
<path fill-rule="evenodd" clip-rule="evenodd" d="M327.014 244.364H215.509C208.024 244.364 201.958 242.209 201.958 239.553C201.958 236.894 208.024 234.743 215.509 234.743H327.014C334.5 234.743 340.566 236.897 340.566 239.553C340.566 242.209 334.5 244.364 327.014 244.364Z" fill="#303D8B"/>
<path fill-rule="evenodd" clip-rule="evenodd" d="M327.014 226.919H215.509C208.024 226.919 201.958 224.764 201.958 222.108C201.958 219.449 208.024 217.298 215.509 217.298H327.014C334.5 217.298 340.566 219.452 340.566 222.108C340.566 224.75 334.5 226.919 327.014 226.919Z" fill="#303D8B"/>
<path fill-rule="evenodd" clip-rule="evenodd" d="M327.09 209.937H215.585C208.099 209.937 202.03 207.783 202.03 205.127C202.03 202.467 208.099 200.316 215.585 200.316H327.09C334.576 200.316 340.645 202.471 340.645 205.127C340.645 207.783 334.576 209.937 327.09 209.937Z" fill="#303D8B"/>
<path fill-rule="evenodd" clip-rule="evenodd" d="M327.014 260.768H215.509C208.024 260.768 201.958 258.881 201.958 256.555C201.958 254.229 208.024 252.342 215.509 252.342H327.014C334.5 252.342 340.566 254.229 340.566 256.555C340.566 258.874 334.5 260.768 327.014 260.768Z" fill="#303D8B"/>
<path d="M220.72 284.136H208.511C207.435 284.136 206.563 285.008 206.563 286.084V297.654C206.563 298.73 207.435 299.602 208.511 299.602H220.72C221.796 299.602 222.668 298.73 222.668 297.654V286.084C222.668 285.008 221.796 284.136 220.72 284.136Z" fill="#303D8B"/>
<path fill-rule="evenodd" clip-rule="evenodd" d="M338.675 314.587H298.121C292.893 314.587 288.654 310.35 288.652 305.124C288.652 299.895 292.891 295.657 298.121 295.657H338.675C343.905 295.657 348.144 299.895 348.144 305.124C348.142 310.35 343.903 314.587 338.675 314.587Z" fill="#0A1658"/>
<path fill-rule="evenodd" clip-rule="evenodd" d="M326.457 305.124C326.457 299.896 322.218 295.657 316.989 295.657H298.11C294.685 295.592 291.492 297.382 289.76 300.337C288.028 303.292 288.028 306.952 289.76 309.907C291.492 312.862 294.685 314.652 298.11 314.587H316.989C322.217 314.587 326.455 310.35 326.457 305.124Z" fill="#E0A010"/>
<path fill-rule="evenodd" clip-rule="evenodd" d="M428.068 349.648C428.087 361.812 420.775 372.789 409.542 377.46C398.309 382.131 385.367 379.576 376.753 370.986C368.139 362.397 365.55 349.465 370.192 338.222C374.835 326.979 385.795 319.64 397.961 319.627C405.959 319.539 413.656 322.671 419.319 328.318C424.982 333.965 428.135 341.652 428.068 349.648Z" fill="#0A1658"/>
<path fill-rule="evenodd" clip-rule="evenodd" d="M428.068 349.648C428.08 356.208 425.925 362.589 421.937 367.798C412.601 372.701 401.38 372.366 392.354 366.915C383.327 361.464 377.809 351.691 377.804 341.148C377.779 334.645 379.906 328.317 383.853 323.149C393.167 318.195 404.397 318.483 413.446 323.908C422.494 329.332 428.038 339.1 428.054 349.648H428.068Z" fill="#FCB614"/>
<path fill-rule="evenodd" clip-rule="evenodd" d="M395.999 363.08C394.735 363.079 393.552 362.456 392.837 361.413L385.022 349.964C383.828 348.219 384.275 345.837 386.02 344.644C387.765 343.45 390.148 343.897 391.342 345.642L395.992 352.435L409.052 333.083C410.234 331.33 412.613 330.866 414.367 332.047C416.121 333.228 416.585 335.607 415.403 337.361L399.205 361.389C398.498 362.443 397.313 363.077 396.044 363.08H395.999Z" fill="#303D8B"/>
<path d="M271.467 187.897C283.153 187.781 292.532 178.188 292.416 166.47C292.299 154.752 282.731 145.348 271.045 145.464C259.359 145.58 249.98 155.173 250.097 166.891C250.213 178.609 259.781 188.014 271.467 187.897Z" fill="#2F3E8A"/>
<path fill-rule="evenodd" clip-rule="evenodd" d="M280.662 175.285L262.023 175.48L262.023 172.759C262.016 171.073 262.852 169.495 264.251 168.553L267.801 166.165C265.374 164.613 264.26 161.648 265.064 158.882C265.868 156.116 268.398 154.211 271.279 154.201C274.16 154.191 276.703 156.079 277.526 158.84C278.349 161.6 277.256 164.572 274.84 166.141L278.4 168.505C279.803 169.44 280.649 171.012 280.655 172.697L280.662 175.285Z" fill="white"/>
<path fill-rule="evenodd" clip-rule="evenodd" d="M465.444 146.219H434.169C431.989 146.219 430.223 147.985 430.223 150.164V177.862C430.221 178.319 430.497 178.732 430.92 178.907C431.342 179.082 431.829 178.984 432.151 178.659L439.296 171.515C439.925 170.889 440.777 170.537 441.664 170.536H465.444C467.658 170.534 469.453 168.74 469.455 166.526V150.229C469.455 148.014 467.659 146.219 465.444 146.219Z" fill="#2F3E8A"/>
<path fill-rule="evenodd" clip-rule="evenodd" d="M461.663 153.435H439.324C438.527 153.436 437.882 154.081 437.88 154.878C437.882 155.674 438.527 156.319 439.324 156.321H461.663C462.46 156.319 463.105 155.674 463.107 154.878C463.105 154.081 462.46 153.436 461.663 153.435Z" fill="#1F2055"/>
<path fill-rule="evenodd" clip-rule="evenodd" d="M452.886 161.709H439.324C438.527 161.711 437.882 162.356 437.88 163.152C437.882 163.948 438.527 164.593 439.324 164.595H452.892C453.689 164.593 454.336 163.949 454.339 163.152C454.336 162.352 453.685 161.707 452.886 161.709Z" fill="#1F2055"/>
<path fill-rule="evenodd" clip-rule="evenodd" d="M135.85 302.447C138.555 306.254 147.38 302.863 152.9 300.214C155.024 276.46 153.199 253.139 144.586 244.426C132.444 232.138 123.48 247.817 124.783 263.53C125.175 268.265 126.759 276.666 128.66 286.607C131.595 293.943 134.375 300.372 135.85 302.447Z" fill="#DF7126"/>
<path fill-rule="evenodd" clip-rule="evenodd" d="M136.427 359.826C136.138 359.751 135.857 359.675 135.578 359.589C135.719 360.06 136.011 360.118 136.427 359.826Z" fill="#C54F28"/>
<path fill-rule="evenodd" clip-rule="evenodd" d="M152.896 300.214C147.377 302.863 138.551 306.254 135.846 302.447C134.375 300.386 131.595 293.943 128.656 286.607C133.055 309.629 139.17 340.962 136.166 354.298C135.516 357.184 135.362 358.881 135.578 359.606C135.856 359.692 136.138 359.768 136.427 359.844C137.015 359.431 137.843 358.308 138.833 356.627C145.421 345.264 150.903 322.545 152.896 300.214Z" fill="#BF6328"/>
<path fill-rule="evenodd" clip-rule="evenodd" d="M135.585 359.616C135.815 360.348 136.448 360.029 137.334 358.885C153.302 315.178 136.389 247.483 136.338 247.264C136.243 246.89 135.863 246.664 135.489 246.758C135.115 246.853 134.889 247.233 134.984 247.607C135.039 247.813 152.182 316.435 135.585 359.616Z" fill="#141444"/>
<path fill-rule="evenodd" clip-rule="evenodd" d="M164.949 321.328C168.933 317.69 174.256 310.072 179.264 304.148C182.491 294.08 179.652 283.782 168.761 288.576C160.64 292.149 153.154 306.502 147.892 322.796C149.181 336.152 160.392 325.493 164.949 321.328Z" fill="#FCB614"/>
<path fill-rule="evenodd" clip-rule="evenodd" d="M140.692 371.681C141.328 375.876 142.376 376.598 143.29 370.753C145.652 355.669 172.187 319.157 177.659 308.124C178.295 306.835 178.835 305.502 179.274 304.134C174.267 310.072 168.943 317.69 164.96 321.315C160.402 325.479 149.191 336.138 147.903 322.768C142.136 340.605 139.042 360.754 140.692 371.681Z" fill="#DFA026"/>
<path fill-rule="evenodd" clip-rule="evenodd" d="M142.18 374.794C141.799 375.257 141.435 374.845 141.118 373.763C142.091 337.437 173.83 293.139 173.93 293.015C174.104 292.77 174.443 292.712 174.688 292.886C174.933 293.06 174.99 293.399 174.817 293.644C174.717 293.764 142.541 338.667 142.18 374.794Z" fill="#141444"/>
<path fill-rule="evenodd" clip-rule="evenodd" d="M122.57 287.156C120.714 283.504 119.999 279.092 119.738 275.732C118.343 274.096 116.669 272.722 114.792 271.674C102.014 264.953 98.8382 279.704 103.846 291.888C106.87 299.248 117.404 317.092 125.58 333.66C128.165 329.279 125.852 293.62 122.57 287.156Z" fill="#FCB614"/>
<path fill-rule="evenodd" clip-rule="evenodd" d="M138.558 362.482C143.026 342.553 134.392 292.166 119.738 275.732C119.999 279.092 120.714 283.504 122.57 287.157C125.852 293.62 128.165 329.28 125.58 333.661C130.949 344.529 135.3 354.851 135.853 361.297C136.396 367.609 137.568 366.915 138.558 362.482Z" fill="#DFA026"/>
<path fill-rule="evenodd" clip-rule="evenodd" d="M136.74 365.695C137.111 366.221 137.53 365.805 137.946 364.664C139.62 325.816 109.039 276.168 108.939 276.013C108.837 275.824 108.639 275.707 108.424 275.709C108.209 275.71 108.013 275.83 107.913 276.021C107.814 276.211 107.828 276.441 107.949 276.618C108.046 276.783 139.046 327.104 136.74 365.695Z" fill="#141444"/>
<path fill-rule="evenodd" clip-rule="evenodd" d="M168.466 356.462L167.407 361.627L162.901 383.838H121.494L116.988 361.627L115.933 356.462H168.466Z" fill="#2F3E8A" stroke="#141444"/>
<path opacity="0.68" fill-rule="evenodd" clip-rule="evenodd" d="M168.036 358.558H149.298L121.494 383.837H162.901L168.036 358.558Z" fill="#141444"/>
<path d="M171.638 349.686H111.159V358.558H171.638V349.686Z" fill="#2F3E8A" stroke="#141444"/>
<path fill-rule="evenodd" clip-rule="evenodd" d="M387.376 191.142C387.376 191.142 363.957 213.762 359.427 218.61C354.897 223.458 340.827 250.466 354.251 250.143C367.676 249.82 388.176 236.653 389.733 232.726C391.29 228.798 387.376 191.142 387.376 191.142Z" fill="#C9E2F4"/>
<path fill-rule="evenodd" clip-rule="evenodd" d="M439.162 207.292C435.107 201.289 427.246 195.839 420.421 191.894C420.421 191.894 398.617 183.579 390.641 200.485C382.664 217.39 385.585 235.852 385.585 235.852C385.585 235.852 385.241 235.491 384.654 234.821C384.915 237.57 385.238 241.762 385.585 246.621L440.231 220.318C440.231 220.318 441.516 235.357 425.047 246.03C408.577 256.702 386.815 265.155 386.815 265.155C387.654 278.243 388.358 290.135 388.358 290.135C396.772 290.665 409.708 300.1 424.913 302.22C440.117 304.34 468.599 292.548 468.599 292.548C468.599 292.548 447.249 219.259 439.162 207.292Z" fill="white"/>
<path fill-rule="evenodd" clip-rule="evenodd" d="M440.248 220.308L385.602 246.611C386.008 252.273 386.444 258.847 386.85 265.145C386.85 265.145 408.612 256.692 425.081 246.02C441.551 235.347 440.248 220.308 440.248 220.308Z" fill="#C9E2F4"/>
<path fill-rule="evenodd" clip-rule="evenodd" d="M390.641 200.502C398.618 183.579 420.421 191.912 420.421 191.912C416.361 189.564 412.173 187.445 407.876 185.565C394.301 182.817 382.877 194.252 381.787 197.179C380.698 200.107 383.365 225.661 384.334 231.97C384.423 232.554 384.533 233.533 384.654 234.828C385.245 235.492 385.585 235.859 385.585 235.859C385.585 235.859 382.664 217.421 390.641 200.502Z" fill="#C9E2F4"/>
<path fill-rule="evenodd" clip-rule="evenodd" d="M402.704 100.436L423.802 111.072L341.079 275.082L319.982 264.446L402.704 100.436Z" fill="#303D8B"/>
<path fill-rule="evenodd" clip-rule="evenodd" d="M321.042 264.978L340.016 274.544L336.762 280.996L317.787 271.431L321.042 264.978Z" fill="#303D8B"/>
<path fill-rule="evenodd" clip-rule="evenodd" d="M318.166 275.219L333.491 282.945L330.237 289.398L314.912 281.671L318.166 275.219Z" fill="#303D8B"/>
<path fill-rule="evenodd" clip-rule="evenodd" d="M314.708 285.616L327.189 291.909L323.935 298.361L311.454 292.069L314.708 285.616Z" fill="#303D8B"/>
<path fill-rule="evenodd" clip-rule="evenodd" d="M319.378 300.087L312.803 296.771L310.785 300.794C310.022 302.306 309.833 303.973 310.28 305.22L311.734 309.261C312.277 310.776 314.209 310.354 315.133 308.515L319.378 300.087Z" fill="#FCB614"/>
<path fill-rule="evenodd" clip-rule="evenodd" d="M336.796 280.985L317.821 271.423L318.017 275.567L333.345 283.291L336.796 280.985Z" fill="#0A1658"/>
<path fill-rule="evenodd" clip-rule="evenodd" d="M330.269 289.39L314.944 281.662L314.793 285.631L327.169 291.871L330.269 289.39Z" fill="#0A1658"/>
<path fill-rule="evenodd" clip-rule="evenodd" d="M323.969 298.348L311.486 292.056L311.06 295.887L321.141 300.969L323.969 298.348Z" fill="#0A1658"/>
<path fill-rule="evenodd" clip-rule="evenodd" d="M413.248 105.754L423.796 111.071L341.073 275.082L330.526 269.764L413.248 105.754Z" fill="#0A1658"/>
<path fill-rule="evenodd" clip-rule="evenodd" d="M404.388 97.0934L425.486 107.73L423.799 111.074L402.702 100.438L404.388 97.0934Z" fill="#FEB701"/>
<path fill-rule="evenodd" clip-rule="evenodd" d="M408.317 94.882L424.922 103.253L423.236 106.598L406.631 98.2262L408.317 94.882Z" fill="#FEB701"/>
<path fill-rule="evenodd" clip-rule="evenodd" d="M416.619 99.0668L424.923 103.253L423.236 106.598L414.932 102.411L416.619 99.0668Z" fill="#E0A010"/>
<path fill-rule="evenodd" clip-rule="evenodd" d="M414.933 102.412L425.48 107.729L423.793 111.073L413.246 105.756L414.933 102.412Z" fill="#E0A010"/>
<path d="M388.458 145.405L377.24 167.653C376.862 168.402 376.065 168.763 375.46 168.457C374.855 168.151 374.673 167.299 375.051 166.547L386.269 144.302C386.647 143.552 387.444 143.192 388.049 143.498C388.654 143.803 388.84 144.655 388.458 145.405ZM372.992 173.34C372.387 173.034 371.59 173.395 371.212 174.144L349.048 218.095C348.673 218.844 348.855 219.699 349.46 220.002C350.065 220.304 350.862 219.947 351.24 219.198L373.401 175.247C373.79 174.498 373.608 173.659 372.992 173.34Z" fill="#C9E2F4"/>
<path fill-rule="evenodd" clip-rule="evenodd" d="M397.999 171.316C397.999 171.316 401.69 167.729 401.048 164.035C400.848 162.884 401.869 163.004 403.333 163.798C402.8 161.801 402.395 160.224 402.206 159.348C401.154 154.5 375.763 150.071 376.732 160.159C376.732 160.159 378.189 187.486 384.417 187.971C390.644 188.455 393.067 186.352 393.067 186.352C393.067 186.352 395.738 184.535 396.281 183.442L393.009 191.142C393.084 193.819 393.394 196.688 394.363 197.025C396.222 197.671 408.595 196.135 410.86 190.475C410.86 190.475 404.471 180.167 403.622 177.683C402.773 175.199 401.113 171.618 397.999 171.316Z" fill="#FF7977"/>
<path fill-rule="evenodd" clip-rule="evenodd" d="M401.048 164.038C401.69 167.732 397.999 171.319 397.999 171.319C401.113 171.622 402.773 175.199 403.622 177.686C404.471 180.174 410.86 190.479 410.86 190.479C410.86 190.479 405.756 172.841 403.333 163.801C401.862 163.007 400.848 162.884 401.048 164.038Z" fill="#F45658"/>
<path fill-rule="evenodd" clip-rule="evenodd" d="M396.281 183.442C395.738 184.535 393.067 186.352 393.067 186.352C393.067 186.352 392.937 188.665 393.009 191.142L396.281 183.442Z" fill="#F45658"/>
<path fill-rule="evenodd" clip-rule="evenodd" d="M403.622 161.087C405.598 160.08 417.215 150.658 415.5 148.672C414.001 147.074 409.626 145.786 409.626 145.786C409.626 145.786 409.444 141.965 409.141 140.573C408.839 139.182 400.649 135.722 392.947 135.54C385.245 135.357 363.796 152.273 363.796 152.273C363.796 152.273 374.305 160.321 376.044 161.008C377.784 161.695 389.751 157.692 389.751 157.692L387.001 159.472L392.785 163.231L394.239 168.89L396.222 164.361C399.212 157.084 401.477 162.987 401.075 165.657C401.075 165.657 401.639 162.097 403.622 161.087Z" fill="#303D8B"/>
<path fill-rule="evenodd" clip-rule="evenodd" d="M406.079 173.732C406.079 173.732 414.355 152.517 415.812 150.274C416.156 149.727 415.981 149.184 415.5 148.672C417.218 150.658 405.598 160.08 403.622 161.087C401.646 162.094 401.075 165.657 401.075 165.657C400.67 168.323 406.079 173.732 406.079 173.732Z" fill="#0A1658"/>
<path fill-rule="evenodd" clip-rule="evenodd" d="M372.498 198.853C371.772 197.238 367.971 196.025 366.108 196.025C364.246 196.025 354.708 199.702 354.708 199.702C354.708 199.702 354.062 197.812 354.385 196.265C354.385 196.265 351.492 197.08 351.248 199.423C351.003 201.767 348.804 204.828 348.804 204.828C347.027 207.089 323.412 222.136 322.928 232.076C322.827 233.79 322.926 235.509 323.223 237.199C323.821 238.306 325.114 238.443 327.781 235.712C333.891 229.448 347.646 219.868 354.588 213.649C354.925 213.245 355.313 212.888 355.743 212.587C358.654 210.972 367.494 208.625 368.655 207.089C369.817 205.553 373.226 200.461 372.498 198.853Z" fill="#FF7977"/>
<path fill-rule="evenodd" clip-rule="evenodd" d="M329.558 245.26C331.479 245.408 349.299 219.418 354.605 213.648C347.646 219.868 333.891 229.454 327.798 235.711C325.131 238.46 323.839 238.306 323.241 237.199C324.316 243.127 327.873 245.13 329.558 245.26Z" fill="#F45658"/>
<path fill-rule="evenodd" clip-rule="evenodd" d="M434.794 205.677C423.367 198.533 410.919 209.587 397.999 224.575C397.999 224.575 410.846 240.587 413.785 246.951C426.632 240.683 435.781 232.265 438.53 228.008C442.558 221.682 438.781 208.168 434.794 205.677Z" fill="white"/>
<path fill-rule="evenodd" clip-rule="evenodd" d="M409.901 240.494C405.052 233.351 397.999 224.558 397.999 224.558C397.759 224.836 397.515 225.118 397.274 225.403C381.53 243.793 356.193 248.686 352.231 249.091C348.268 249.497 340.587 245.291 339.129 245.858C337.672 246.425 343.092 249.737 342.446 249.899C341.8 250.06 332.5 250.383 331.043 250.466C329.585 250.548 327.726 256.771 327.888 257.338C328.049 257.905 332.661 260.331 334.844 260.815C337.026 261.3 342.848 259.843 347.46 259.279C349.034 259.084 352.124 258.857 356.441 258.475C365.669 257.592 399.738 253.5 409.901 240.494Z" fill="#FF7977"/>
<path fill-rule="evenodd" clip-rule="evenodd" d="M413.785 246.934C413.022 245.285 411.596 242.989 409.901 240.495C399.738 253.5 365.669 257.593 356.441 258.476C364.751 257.744 377.612 256.452 392.988 253.782C400.207 252.484 407.208 250.179 413.785 246.934Z" fill="#F45658"/>
<path fill-rule="evenodd" clip-rule="evenodd" d="M465.918 293.578C465.943 292.678 465.92 291.776 465.849 290.878C465.361 288.129 396.301 283.847 388.376 290.111C388.376 290.111 384.939 291.249 379.784 293.118C379.804 293.118 402.226 294.561 411.489 301.543C420.751 308.525 453.621 300.884 465.918 293.578Z" fill="#0A1658"/>
<path fill-rule="evenodd" clip-rule="evenodd" d="M441.345 314.628C433.416 321.184 415.871 325.654 415.871 325.654C415.871 325.654 427.302 348.576 438.616 363.544C436.464 359.156 434.602 353.39 433.732 345.896C431.598 327.486 438.176 318.03 441.345 314.628Z" fill="#0A1658"/>
<path fill-rule="evenodd" clip-rule="evenodd" d="M442.953 313.126C442.376 313.581 441.838 314.083 441.344 314.628C441.914 314.164 442.451 313.663 442.953 313.126Z" fill="#0A1658"/>
<path fill-rule="evenodd" clip-rule="evenodd" d="M513.539 364.097L512.852 353.538C512.802 352.917 512.289 352.435 511.666 352.425H507.717C507.113 352.424 506.605 352.879 506.538 353.479C488.931 354.108 469.317 353.988 467.458 350.256C464.454 344.23 465.88 304.557 465.911 293.592C453.614 300.883 420.751 308.539 411.482 301.557C402.213 294.575 379.797 293.132 379.777 293.132C364.689 298.588 334.823 310.284 332.654 318.057C330.833 324.585 333.568 345.642 335.874 360.489C334.93 360.794 334.396 361.792 334.668 362.747L335.861 366.921C336.034 367.529 336.508 368.004 337.115 368.179C337.263 368.224 337.415 368.249 337.569 368.255L348.45 368.622C348.7 368.63 348.95 368.586 349.182 368.492C349.74 368.277 350.158 367.804 350.302 367.224L351.223 363.496C351.352 362.969 351.243 362.413 350.925 361.974C350.606 361.535 350.111 361.258 349.57 361.217C350.237 348.848 351.23 331.093 355.214 329.949C359.826 328.616 396.294 331.812 415.864 325.664C415.864 325.664 433.392 321.197 441.338 314.638C441.831 314.094 442.369 313.591 442.946 313.136C442.445 313.673 441.907 314.174 441.338 314.638C438.169 318.04 431.591 327.496 433.725 345.906C434.595 353.4 436.475 359.166 438.609 363.554C444.479 371.32 450.322 376.955 454.521 376.116C462.739 374.494 489.921 368.942 507.002 365.444C507.061 365.763 507.247 366.045 507.518 366.223C507.79 366.402 508.122 366.462 508.439 366.389L512.618 365.416C513.185 365.283 513.573 364.76 513.536 364.179L513.539 364.097Z" fill="#303D8B"/>
<path fill-rule="evenodd" clip-rule="evenodd" d="M349.326 376.185C349.168 373.78 349.1 371.189 349.189 368.492C348.957 368.586 348.707 368.63 348.457 368.622L337.593 368.255C337.439 368.249 337.287 368.224 337.139 368.179C337.933 372.942 338.514 376.024 338.514 376.024L349.357 376.185H349.326Z" fill="#FF7977"/>
<path fill-rule="evenodd" clip-rule="evenodd" d="M512.779 353.222L513.539 364.097L512.852 353.538C512.842 353.43 512.818 353.323 512.779 353.222Z" fill="#FF7977"/>
<path fill-rule="evenodd" clip-rule="evenodd" d="M522.179 352.734C519.323 352.899 516.144 353.077 512.779 353.222C512.817 353.324 512.84 353.43 512.848 353.538L513.536 364.097L521.482 362.468C521.482 362.468 520.509 355.603 522.179 352.734Z" fill="#FF7977"/>
<path d="M506.762 355.417V363.544" stroke="#050D2D" stroke-width="2" stroke-linecap="round"/>
<path d="M337.122 360.451L348.144 361.214" stroke="#C9E2F3" stroke-width="2" stroke-linecap="round"/>
<path d="M342.631 358.414C342.631 358.414 337.253 321.648 348.13 316.944C359.008 312.24 415.372 301.55 424.452 286.978" stroke="#C9E2F3" stroke-width="2" stroke-linecap="round"/>
<path fill-rule="evenodd" clip-rule="evenodd" d="M350.849 388.07C350.113 384.144 349.605 380.18 349.326 376.195L338.483 376.034C338.483 376.034 316.411 384.524 312.414 387.936C318.573 388.146 338.696 388.778 350.849 388.07Z" fill="#303D8B"/>
<path fill-rule="evenodd" clip-rule="evenodd" d="M311.796 388.727C311.431 391.304 351.096 390.486 351.096 389.607C351.096 389.435 351 388.899 350.849 388.06C338.696 388.778 318.573 388.146 312.414 387.926C312.128 388.12 311.911 388.401 311.796 388.727Z" fill="#C8E1F3"/>
<path d="M331.63 378.752L332.85 380.35" stroke="#C9E2F3" stroke-width="2" stroke-linecap="round"/>
<path d="M329.502 379.625L330.764 381.507" stroke="#C9E2F3" stroke-width="2" stroke-linecap="round"/>
<path d="M327.77 380.35L328.818 382.209" stroke="#C9E2F3" stroke-width="2" stroke-linecap="round"/>
<path fill-rule="evenodd" clip-rule="evenodd" d="M532.528 373.818C533.311 370.251 534.463 355.369 533.641 352.033C531.844 352.136 528.342 352.377 523.839 352.638L522.179 352.734C520.509 355.603 521.492 362.468 521.492 362.468C521.492 362.468 520.684 368.997 519.227 369.797C518.113 370.419 514.072 373.405 512.078 375.134C512.144 375.137 531.692 377.615 532.528 373.818Z" fill="#0A1658"/>
<path fill-rule="evenodd" clip-rule="evenodd" d="M510.972 376.268C510.649 377.075 529.733 378.694 533.129 376.429C536.525 374.165 536.432 352.105 534.94 351.978C534.83 351.978 534.38 351.978 533.641 352.033C534.463 355.369 533.298 370.244 532.528 373.818C531.692 377.597 512.144 375.137 512.071 375.134C511.65 375.454 511.279 375.837 510.972 376.268Z" fill="#C8E1F3"/>
<path d="M520.966 365.509L524.235 366.124" stroke="#C9E2F3" stroke-width="2" stroke-linecap="round"/>
<path d="M520.595 367.059L523.781 367.516" stroke="#C9E2F3" stroke-width="2" stroke-linecap="round"/>
<path d="M521.292 363.767L524.465 364.365" stroke="#C9E2F3" stroke-width="2" stroke-linecap="round"/>
<path fill-rule="evenodd" clip-rule="evenodd" d="M45.986 223.462C46.5325 232.138 47.8041 237.622 48.0756 241.072C49.1376 240.962 50.2683 240.807 51.485 240.601C67.3942 237.928 96.5593 230.606 103.801 227.809C104.292 219.851 105.055 210.013 105.822 200.75C100.13 202.337 80.9697 207.577 73.4568 208.264C64.5863 209.072 45.0168 208.103 45.986 223.462Z" fill="white"/>
<path fill-rule="evenodd" clip-rule="evenodd" d="M108.496 154.579C108.496 154.579 123.092 154.579 127.292 155.067C126.969 147.799 127.326 139.439 127.536 135.605C117.125 136.935 106.952 136.917 100.247 136.024C87.5101 134.327 79.9937 134.811 79.9937 134.811C79.3063 134.845 78.619 134.897 77.9557 134.955C78.7589 137.775 79.3766 140.645 79.8047 143.546C79.8047 143.546 62.6445 147.147 58.1147 151.998C53.5849 156.85 41.6178 151.572 36.521 168.278C31.4241 184.985 71.5391 199.203 78.9798 199.375C84.3894 199.495 98.7761 197.217 106.224 195.966C107.409 182.019 108.496 170.474 108.496 170.474C108.496 170.474 109.588 156.884 108.496 154.579Z" fill="white"/>
<path fill-rule="evenodd" clip-rule="evenodd" d="M108.495 170.467C115.319 169.141 121.984 167.102 128.381 164.382C127.783 162.001 127.453 158.668 127.292 155.063C123.092 154.575 108.495 154.575 108.495 154.575C109.588 156.884 108.495 170.467 108.495 170.467Z" fill="#C9E2F4"/>
<path fill-rule="evenodd" clip-rule="evenodd" d="M78.9798 199.368C71.539 199.207 31.431 184.978 36.5209 168.272C41.6109 151.566 53.5884 156.843 58.1147 151.992C62.641 147.14 79.8047 143.539 79.8047 143.539C79.3766 140.638 78.7589 137.769 77.9556 134.949C59.9397 136.547 48.055 146.848 40.3255 157.603C32.3177 168.76 34.5035 183.435 36.2013 197.262C37.0708 204.354 36.1566 220.703 35.0225 239.017C36.8784 240.478 40.6108 241.852 48.0825 241.079C47.811 237.643 46.5394 232.145 45.9929 223.469C45.0237 208.11 64.5932 209.079 73.4637 208.271C80.9766 207.584 100.137 202.344 105.829 200.757C105.963 199.138 106.1 197.537 106.231 195.967C98.7761 197.21 84.3894 199.489 78.9798 199.368Z" fill="#C9E2F4"/>
<path fill-rule="evenodd" clip-rule="evenodd" d="M93.3013 98.9077C93.3013 98.9077 86.0152 103.718 80.4337 102.918C74.8523 102.117 78.2513 108.738 76.2304 110.353C74.2096 111.968 78.4128 120.38 78.4128 120.38C78.4128 120.38 74.8557 126.362 76.7975 130.97C78.7393 135.578 79.7876 143.429 79.8048 143.539C87.0668 146.573 91.3148 140.419 90.4212 138.694C89.5276 136.969 87.8161 124.867 87.8161 124.867C89.696 124.805 94.3048 123.836 95.2122 116.136C95.8824 110.474 94.2258 102.653 93.3013 98.9077Z" fill="#FF7977"/>
<path fill-rule="evenodd" clip-rule="evenodd" d="M78.413 120.38C78.413 120.38 74.2097 111.972 76.2306 110.353C78.2514 108.735 74.8558 102.107 80.4338 102.917C86.0119 103.728 93.3014 98.9076 93.3014 98.9076C93.2567 98.7392 93.2189 98.564 93.1777 98.4265C92.9096 97.3648 92.7275 96.7325 92.7275 96.7325C92.7275 96.7325 71.1372 90.9702 67.556 99.2168C63.9748 107.463 72.5909 110.192 72.5909 110.192C74.2303 114.985 70.2883 136.388 70.2883 136.388C70.2883 136.388 71.7489 139.642 78.5573 142.968C78.8254 143.099 79.0969 143.23 79.3856 143.36C79.5265 143.425 79.664 143.48 79.8049 143.539C79.7877 143.429 78.7223 135.546 76.7977 130.97C74.873 126.393 78.413 120.38 78.413 120.38Z" fill="#F45658"/>
<path fill-rule="evenodd" clip-rule="evenodd" d="M97.0956 74.8413C94.0609 73.8723 90.4831 79.8751 90.301 76.9029C90.1188 73.9307 87.3384 65.4436 85.3004 70.6595C84.8192 71.8931 84.3793 73.082 83.9256 74.1953C83.1825 77.8033 81.0524 80.9756 77.9936 83.0294C72.8968 86.3624 61.9813 97.7633 67.6212 97.8217C73.2611 97.8802 76.1102 101.821 75.416 109.432C75.5878 109.583 75.7975 109.401 76.0518 108.676C77.2031 105.402 76.5982 103.22 78.4163 102.069C80.2344 100.918 86.596 104.663 93.3048 98.9075C100.014 93.1521 100.127 75.8137 97.0956 74.8413Z" fill="#303D8B"/>
<path fill-rule="evenodd" clip-rule="evenodd" d="M67.6178 97.8218C61.9779 97.7634 72.8933 86.3625 77.9902 83.0295C81.0489 80.9756 83.179 77.8034 83.9222 74.1953C82.4478 77.7791 80.7843 80.5417 76.8973 81.3286C71.8038 82.3594 71.8038 83.1497 71.0752 83.8163C70.3466 84.4829 52.5162 100.066 58.0358 104.433C63.5554 108.8 72.3847 113.882 72.8143 117.888C72.8143 117.888 74.1615 111.649 73.2508 109.467C73.2508 109.467 67.9752 109.405 68.2192 106.01C68.4632 102.615 71.1886 101.763 74.6461 104.189C74.6461 104.189 74.7939 108.903 75.4057 109.432C76.1068 101.821 73.2576 97.8836 67.6178 97.8218Z" fill="#0A1658"/>
<path fill-rule="evenodd" clip-rule="evenodd" d="M62.0775 165.897C55.4478 162.018 44.4498 151.72 38.0195 163.337C37.1362 164.932 32.8058 177.741 40.4459 185.624C45.0891 190.414 54.0937 196.588 64.7307 200.292C67.0575 191.187 73.0445 177.477 75.5671 171.883C69.6317 169.732 64.7891 167.474 62.0775 165.897Z" fill="white"/>
<path fill-rule="evenodd" clip-rule="evenodd" d="M154.941 139.027L153.862 128.375C146.452 132.107 136.898 134.395 127.536 135.591C127.326 139.426 126.969 147.786 127.292 155.053C127.292 155.067 154.725 149.349 154.941 139.027Z" fill="#FF7977"/>
<path fill-rule="evenodd" clip-rule="evenodd" d="M155.804 147.545L154.941 139.027C154.725 149.335 127.292 155.067 127.292 155.067C127.453 158.671 127.783 162.004 128.381 164.385C145.418 157.19 155.804 147.545 155.804 147.545Z" fill="#F45658"/>
<path fill-rule="evenodd" clip-rule="evenodd" d="M42.2676 296.417C42.2676 288.359 48.0759 241.072 48.0759 241.072C40.6111 241.859 36.8787 240.484 35.0159 239.01C33.9436 256.4 32.672 275.56 32.5551 290.266C32.3592 314.8 22.7154 353.016 18.0172 369.921C18.0172 369.921 42.2676 304.474 42.2676 296.417Z" fill="#0A1658"/>
<path fill-rule="evenodd" clip-rule="evenodd" d="M91.9198 308.192C92.889 293.963 76.8767 262.592 76.8767 262.592C76.5537 266.475 70.4086 274.398 70.4086 274.398C85.8744 299.578 91.5521 333.231 93.7792 355.098C93.7792 355.098 90.9472 322.421 91.9198 308.192Z" fill="#0A1658"/>
<path fill-rule="evenodd" clip-rule="evenodd" d="M30.7508 375.251L18.4606 371.646C18.1681 371.563 17.8964 371.419 17.6632 371.224C16.7593 374.443 16.0754 376.721 15.7352 377.804C15.6389 378.11 15.5393 378.415 15.4362 378.725L29.407 381.168C29.407 381.168 30.3349 378.938 31.8609 375.285C31.4939 375.368 31.1119 375.356 30.7508 375.251Z" fill="#FF7977"/>
<path fill-rule="evenodd" clip-rule="evenodd" d="M96.6696 372.048C96.115 372.082 95.5634 371.945 95.0886 371.657C95.2673 374.773 95.3601 376.746 95.4632 377.237C95.5801 378.136 95.5882 379.047 95.4873 379.948L108.547 378.694C108.479 378.275 108.685 375.409 109.059 371.066C108.723 371.242 108.353 371.344 107.973 371.365L96.6696 372.048Z" fill="#FF7977"/>
<path fill-rule="evenodd" clip-rule="evenodd" d="M104.372 239.57C104.073 237.725 103.32 235.65 103.801 227.809C96.5597 230.606 67.3946 237.928 51.4854 240.601C50.2687 240.807 49.138 240.945 48.076 241.072C48.076 241.072 42.2677 288.359 42.2677 296.417C42.2677 303.079 25.6918 348.989 19.9522 364.685C18.8096 364.542 17.7426 365.282 17.4777 366.403L16.8969 368.97C16.7093 369.8 17.0058 370.665 17.6633 371.206C17.8965 371.402 18.1682 371.546 18.4606 371.629L30.7508 375.234C31.112 375.339 31.494 375.351 31.8609 375.268C32.5298 375.125 33.0975 374.687 33.4041 374.076L34.4351 372.014C34.8142 371.252 34.7318 370.342 34.2221 369.66C40.7968 354.016 52.403 326.709 57.7989 315.937C65.5627 300.413 70.4155 274.381 70.4155 274.381C70.4155 274.381 76.5606 266.458 76.8837 262.575C76.8837 262.575 92.896 293.946 91.9268 308.175C90.9576 322.404 93.7964 355.084 93.7964 355.084C94.1401 358.294 94.3807 361.249 94.5835 363.884C93.7258 364.465 93.2675 365.478 93.3978 366.506L93.7964 369.646C93.9833 371.076 95.2435 372.119 96.6834 372.035L108.004 371.347C108.384 371.327 108.754 371.225 109.09 371.048C109.865 370.651 110.405 369.911 110.548 369.052L111.094 365.674C111.261 364.588 110.765 363.507 109.833 362.926C111.496 345.274 114.301 318.301 115.047 311.584C116.177 301.564 105.506 246.525 104.372 239.57Z" fill="#303D8B"/>
<path d="M95.1023 363.716L108.678 362.805" stroke="#C9E2F3" stroke-width="2" stroke-linecap="round"/>
<path d="M20.6738 365.111L32.4416 369.028" stroke="#C9E2F3" stroke-width="2" stroke-linecap="round"/>
<path d="M26.5579 365.111C26.5579 365.111 42.7523 318.219 44.0446 305.443C45.3368 292.668 48.076 241.072 48.076 241.072" stroke="#C9E2F3" stroke-width="2" stroke-linecap="round"/>
<path opacity="0.1" fill-rule="evenodd" clip-rule="evenodd" d="M249.324 126.857L206.233 95.475C203.152 93.2582 199.083 92.9722 195.723 94.7362C194.326 95.4439 193.103 96.4519 192.142 97.6878L172.627 124.489C171.994 124.071 171.258 123.833 170.5 123.802C170.228 123.843 170.524 125.726 170.448 127.582L168.544 130.087C167.955 129.718 167.488 129.184 167.201 128.551C166.988 128.511 166.77 128.511 166.558 128.551L175.287 184.085C176.104 183.737 176.867 183.274 177.552 182.71L197.802 197.454C202.27 200.705 208.295 199.86 211.577 195.565C211.701 195.477 211.809 195.368 211.893 195.242L251.541 140.945C252.705 139.374 253.339 137.474 253.352 135.519C253.577 132.133 252.058 128.867 249.324 126.857Z" fill="black"/>
<path fill-rule="evenodd" clip-rule="evenodd" d="M176.632 82.8299L230.61 122.137C232.128 123.242 232.462 125.369 231.357 126.887C231.356 126.887 231.356 126.888 231.356 126.888L183.786 192.179C182.68 193.696 180.553 194.031 179.035 192.925L125.058 153.619C123.539 152.514 123.205 150.387 124.31 148.868C124.311 148.868 124.311 148.868 124.311 148.868L171.881 83.577C172.987 82.0593 175.114 81.7251 176.632 82.8305L176.632 82.8299Z" fill="#C9E2F4"/>
<path fill-rule="evenodd" clip-rule="evenodd" d="M172.211 96.8232L184.543 105.803C185.144 106.241 185.276 107.082 184.839 107.683C184.839 107.683 184.839 107.683 184.839 107.683L175.856 120.012C175.418 120.612 174.577 120.744 173.976 120.307L161.644 111.327C161.043 110.89 160.911 110.048 161.348 109.447C161.348 109.447 161.349 109.447 161.349 109.447L170.332 97.1187C170.769 96.5183 171.61 96.3861 172.211 96.8234L172.211 96.8232Z" fill="#0A1658"/>
<path fill-rule="evenodd" clip-rule="evenodd" d="M189.661 113.883L216.199 133.209C216.86 133.691 217.006 134.617 216.524 135.279C216.524 135.279 216.524 135.279 216.524 135.279L211.843 141.702C211.362 142.363 210.435 142.509 209.774 142.027L183.236 122.702C182.574 122.22 182.429 121.293 182.91 120.632C182.91 120.632 182.91 120.632 182.911 120.632L187.591 114.209C188.073 113.547 188.999 113.402 189.661 113.884L189.661 113.883Z" fill="#0A1658"/>
<path fill-rule="evenodd" clip-rule="evenodd" d="M157.803 116.601L170.135 125.581C170.736 126.018 170.868 126.86 170.431 127.46C170.431 127.46 170.431 127.46 170.431 127.461L161.447 139.789C161.01 140.389 160.169 140.522 159.568 140.084L147.236 131.104C146.635 130.667 146.503 129.825 146.94 129.225C146.94 129.225 146.94 129.225 146.94 129.224L155.924 116.896C156.361 116.296 157.202 116.163 157.803 116.601L157.803 116.601Z" fill="#0A1658"/>
<path fill-rule="evenodd" clip-rule="evenodd" d="M175.253 133.661L201.791 152.987C202.452 153.468 202.598 154.395 202.116 155.056C202.116 155.056 202.116 155.056 202.116 155.057L197.436 161.48C196.954 162.141 196.027 162.286 195.366 161.805L168.828 142.479C168.167 141.998 168.021 141.071 168.503 140.409C168.503 140.409 168.503 140.409 168.503 140.409L173.183 133.986C173.665 133.325 174.591 133.179 175.253 133.661L175.253 133.661Z" fill="#0A1658"/>
<path fill-rule="evenodd" clip-rule="evenodd" d="M143.393 136.38L155.725 145.36C156.325 145.797 156.458 146.639 156.02 147.239C156.02 147.239 156.02 147.239 156.02 147.24L147.037 159.568C146.599 160.168 145.758 160.301 145.158 159.863L132.825 150.883C132.225 150.446 132.092 149.604 132.53 149.004C132.53 149.004 132.53 149.004 132.53 149.004L141.513 136.675C141.951 136.075 142.792 135.942 143.392 136.38L143.393 136.38Z" fill="#0A1658"/>
<path fill-rule="evenodd" clip-rule="evenodd" d="M160.844 153.997L187.442 173.367C188.104 173.849 188.25 174.775 187.768 175.437C187.768 175.437 187.768 175.437 187.768 175.437L183.074 181.878C182.592 182.54 181.666 182.685 181.004 182.204L154.405 162.834C153.744 162.353 153.598 161.426 154.08 160.764C154.08 160.764 154.08 160.764 154.08 160.764L158.774 154.323C159.256 153.662 160.182 153.516 160.843 153.998L160.844 153.997Z" fill="#0A1658"/>
<path fill-rule="evenodd" clip-rule="evenodd" d="M154.436 131.805C154.094 131.556 153.896 131.155 153.907 130.733L154.044 126.09C154.065 125.383 154.656 124.826 155.364 124.847C156.072 124.867 156.629 125.458 156.608 126.166L156.526 128.915L163.87 126.242C164.307 126.053 164.814 126.122 165.184 126.421C165.555 126.72 165.729 127.2 165.637 127.667C165.544 128.134 165.2 128.512 164.743 128.647L155.625 131.956C155.227 132.1 154.783 132.038 154.44 131.791L154.436 131.805Z" fill="#E6E9F8"/>
<path fill-rule="evenodd" clip-rule="evenodd" d="M165.588 164.767C164.458 164.846 157.419 170.265 156.209 170.993C155 171.722 152.003 172.608 152.003 172.608L148.222 169.88C148.222 169.88 148.274 173.818 146.737 174.546C145.201 175.275 121.909 179.071 105.007 178.346C95.0127 177.913 84.1454 174.996 75.5567 171.88C73.7832 175.814 70.2983 183.758 67.5763 191.294C67.5763 191.294 79.509 205.213 129.539 191.294C140.537 187.308 149.129 183.793 149.971 183.425C151.91 182.59 160.808 180.205 162.746 177.927C164.685 175.649 168.166 170.732 168.166 169.925C168.166 169.117 166.719 164.685 165.588 164.767Z" fill="#FF7977"/>
<path fill-rule="evenodd" clip-rule="evenodd" d="M67.5866 191.297C66.4353 194.479 65.4214 197.588 64.7306 200.293C71.6043 202.698 79.1654 204.048 86.6611 203.33C97.3944 202.299 115.448 196.413 129.55 191.304C79.5194 205.216 67.5866 191.297 67.5866 191.297Z" fill="#F45658"/>
<path fill-rule="evenodd" clip-rule="evenodd" d="M108.578 378.694L95.5181 379.948C95.2054 384.099 93.9131 391.067 93.755 394.259C98.6113 393.895 118.964 392.397 130.873 392.033C124.106 388.198 108.829 380.206 108.578 378.694Z" fill="#303D8B"/>
<path fill-rule="evenodd" clip-rule="evenodd" d="M93.8581 395.833C94.6692 397.286 133.97 394.86 133.97 394.053C133.97 393.874 132.746 393.122 130.839 392.032C118.947 392.397 98.5941 393.895 93.7378 394.259C93.7 395.042 93.731 395.599 93.8581 395.833Z" fill="#C8E1F3"/>
<path d="M112.806 381.872L110.606 383.838" stroke="#C9E2F3" stroke-width="2" stroke-linecap="round"/>
<path d="M114.936 383.143L112.551 385.215" stroke="#C9E2F3" stroke-width="2" stroke-linecap="round"/>
<path d="M116.967 384.315L114.936 386.476" stroke="#C9E2F3" stroke-width="2" stroke-linecap="round"/>
<path fill-rule="evenodd" clip-rule="evenodd" d="M50.7153 394.682C45.3504 390.703 29.4068 381.168 29.4068 381.168L15.436 378.725C13.6729 383.947 10.9063 389.789 10.0608 392.5C16.3571 393.098 40.2226 395.287 50.7153 394.682Z" fill="#303D8B"/>
<path fill-rule="evenodd" clip-rule="evenodd" d="M52.4542 396.286C52.4542 396.063 51.8012 395.486 50.7152 394.682C40.2225 395.269 16.3467 393.098 10.0675 392.5C9.93075 392.881 9.84635 393.278 9.81665 393.682C9.81665 395.41 52.4542 397.623 52.4542 396.286Z" fill="#C8E1F3"/>
<path d="M33.0499 383.367L29.6509 385.03" stroke="#C9E2F3" stroke-width="2" stroke-linecap="round"/>
<path d="M35.1327 384.638L31.8608 386.466" stroke="#C9E2F3" stroke-width="2" stroke-linecap="round"/>
<path d="M37.0608 385.823L33.9126 387.902" stroke="#C9E2F3" stroke-width="2" stroke-linecap="round"/>
<defs>
<linearGradient id="paint0_linear_168_4160" x1="269.708" y1="-14.3767" x2="274.065" y2="378.106" gradientUnits="userSpaceOnUse">
<stop stop-color="#303D8B"/>
<stop offset="0.81" stop-color="#111E62"/>
<stop offset="1" stop-color="#0A1658"/>
</linearGradient>
</defs>
</svg>
